<?xml version="1.0" encoding="UTF-8"?>
<svg width="48px" height="48px" viewBox="0 0 48 48" version="1.1" xmlns="http://www.w3.org/2000/svg" xmlns:xlink="http://www.w3.org/1999/xlink">
    <!-- Generator: Sketch 56.3 (81716) - https://sketch.com -->
    <title>Group 4</title>
    <desc>Created with Sketch.</desc>
    <defs>
        <circle id="path-1" cx="20" cy="20" r="20"></circle>
        <filter x="-15.0%" y="-15.0%" width="130.0%" height="130.0%" filterUnits="objectBoundingBox" id="filter-2">
            <feOffset dx="0" dy="0" in="SourceAlpha" result="shadowOffsetOuter1"></feOffset>
            <feGaussianBlur stdDeviation="2" in="shadowOffsetOuter1" result="shadowBlurOuter1"></feGaussianBlur>
            <feColorMatrix values="0 0 0 0 0.0392156863   0 0 0 0 0.121568627   0 0 0 0 0.266666667  0 0 0 0.12 0" type="matrix" in="shadowBlurOuter1"></feColorMatrix>
        </filter>
    </defs>
    <g id="DESIGN--v3" stroke="none" stroke-width="1" fill="none" fill-rule="evenodd">
        <g id="4.1-ContentsPage" transform="translate(-34.000000, -592.000000)">
            <g id="Group-4" transform="translate(38.000000, 596.000000)">
                <g id="Group-8">
                    <g id="Oval">
                        <use fill="black" fill-opacity="1" filter="url(#filter-2)" xlink:href="#path-1"></use>
                        <use fill="#EDEDED" fill-rule="evenodd" xlink:href="#path-1"></use>
                    </g>
                </g>
                <path d="M28.6086957,8 L11.3913043,8 C11.1753043,8 11,8.168 11,8.375 L11,31.625 C11,31.832 11.1753043,32 11.3913043,32 L28.6086957,32 C28.8246957,32 29,31.832 29,31.625 L29,8.375 C29,8.168 28.8246957,8 28.6086957,8 Z" id="Path" fill="#FFD500" fill-rule="nonzero"></path>
                <polygon id="Path" fill="#FFFEFE" fill-rule="nonzero" points="13 30 22.7222222 30 27 26.1538462 27 10 13 10"></polygon>
                <g id="Group" transform="translate(15.000000, 14.000000)" fill="#A8A8A8" fill-rule="nonzero">
                    <path d="M8.12903226,12.1904762 L12,12.1904762 L7.74193548,16 L7.74193548,12.5714286 C7.74193548,12.3611429 7.91535484,12.1904762 8.12903226,12.1904762 Z" id="Path"></path>
                    <polygon id="Path" points="0.774193548 0 9.67741935 0 9.67741935 6.0952381 0.774193548 6.0952381"></polygon>
                    <polygon id="Path" points="3.09677419 8 7.35483871 8 7.35483871 8.76190476 3.09677419 8.76190476"></polygon>
                    <polygon id="Path" points="8.12903226 8 10.4516129 8 10.4516129 8.76190476 8.12903226 8.76190476"></polygon>
                    <polygon id="Path" points="1.93548387 10.2857143 6.19354839 10.2857143 6.19354839 11.047619 1.93548387 11.047619"></polygon>
                    <polygon id="Path" points="6.96774194 10.2857143 10.4516129 10.2857143 10.4516129 11.047619 6.96774194 11.047619"></polygon>
                    <polygon id="Path" points="0 12.5714286 6.58064516 12.5714286 6.58064516 13.3333333 0 13.3333333"></polygon>
                </g>
            </g>
        </g>
    </g>
</svg>