<?xml version="1.0" encoding="UTF-8"?>
<svg width="48px" height="48px" viewBox="0 0 48 48" version="1.1" xmlns="http://www.w3.org/2000/svg" xmlns:xlink="http://www.w3.org/1999/xlink">
    <!-- Generator: Sketch 56.3 (81716) - https://sketch.com -->
    <title>Group 9</title>
    <desc>Created with Sketch.</desc>
    <defs>
        <circle id="path-1" cx="20" cy="20" r="20"></circle>
        <filter x="-15.0%" y="-15.0%" width="130.0%" height="130.0%" filterUnits="objectBoundingBox" id="filter-2">
            <feOffset dx="0" dy="0" in="SourceAlpha" result="shadowOffsetOuter1"></feOffset>
            <feGaussianBlur stdDeviation="2" in="shadowOffsetOuter1" result="shadowBlurOuter1"></feGaussianBlur>
            <feColorMatrix values="0 0 0 0 0.0392156863   0 0 0 0 0.121568627   0 0 0 0 0.266666667  0 0 0 0.12 0" type="matrix" in="shadowBlurOuter1"></feColorMatrix>
        </filter>
    </defs>
    <g id="DESIGN--v3" stroke="none" stroke-width="1" fill="none" fill-rule="evenodd">
        <g id="4.1-ContentsPage" transform="translate(-980.000000, -1159.000000)">
            <g id="Group-9" transform="translate(984.000000, 1163.000000)">
                <g id="Group-6-Copy-2">
                    <g id="Group-8">
                        <g id="Oval">
                            <use fill="black" fill-opacity="1" filter="url(#filter-2)" xlink:href="#path-1"></use>
                            <use fill="#EDEDED" fill-rule="evenodd" xlink:href="#path-1"></use>
                        </g>
                    </g>
                </g>
                <g id="presentation" transform="translate(9.000000, 9.000000)" fill-rule="nonzero">
                    <path d="M14.5979118,0 L0.632857447,0 C0.278358382,0 0,0.277973378 0,0.631982126 L0,9.52186403 C0,9.87587278 0.278358382,10.1538462 0.632857447,10.1538462 L14.5979118,10.1538462 C14.9524108,10.1538462 15.2307692,9.87587278 15.2307692,9.52186403 L15.2307692,0.631982126 C15.2307692,0.277973378 14.9524108,0 14.5979118,0 Z" id="Path" fill="#7C8388"></path>
                    <path d="M15.2307692,0.631982126 L15.2307692,9.52186403 C15.2307692,9.87587278 14.9550837,10.1538462 14.6039886,10.1538462 L9.58974359,10.1538462 L9.58974359,0 L14.6039886,0 C14.9550837,0 15.2307692,0.277973378 15.2307692,0.631982126 Z" id="Path" fill="#575F64"></path>
                    <polygon id="Path" fill="#FAECD8" points="1.12820513 1.12820513 1.12820513 9.02564103 14.1025641 9.02564103 14.1025641 1.12820513"></polygon>
                    <polygon id="Path" fill="#F4D7AF" points="9.58974359 1.12820513 14.1025641 1.12820513 14.1025641 9.02564103 9.58974359 9.02564103"></polygon>
                    <path d="M22,11.7319699 L22,21.360911 C22,21.7189007 21.7121295,22 21.3455164,22 L18.6839496,22 L18.0294659,21.6293617 L14.1025641,19.401038 L14.1025641,11.7319699 C14.1025641,9.61016116 15.8565462,7.8974359 18.0294659,7.8974359 C19.116011,7.8974359 20.0977365,8.33198315 20.8045447,9.022166 C21.511353,9.71234881 22,10.6711487 22,11.7319699 Z" id="Path" fill="#FF637B"></path>
                    <path d="M22,11.7319699 L22,21.360911 C22,21.7189007 21.7137112,22 21.3491124,22 L18.7021696,22 L18.0512821,21.6293617 L18.0512821,7.8974359 C19.1318571,7.8974359 20.1081885,8.33198315 20.8111131,9.022166 C21.5140378,9.71234881 22,10.6711487 22,11.7319699 Z" id="Path" fill="#E63950"></path>
                    <path d="M16.0769231,11.8461538 C14.6807692,11.8461538 13.5384615,12.9884615 13.5384615,14.3846154 C13.5384615,15.7807692 14.6807692,16.9230769 16.0769231,16.9230769 C17.4730769,16.9230769 18.6153846,15.7807692 18.6153846,14.3846154 C18.6153846,12.9884615 17.4730769,11.8461538 16.0769231,11.8461538 Z" id="Path" fill="#7C8388"></path>
                    <path d="M19.1794872,20.0699301 L19.1794872,21.3706294 C19.1794872,21.7182583 18.8848758,22 18.5213675,22 L12.5982906,22 L11.2820513,21.2132867 L12.5982906,20.0699301 C12.5982906,18.3329327 14.0725472,16.9230769 15.8888889,16.9230769 C16.7970598,16.9230769 17.6263933,17.2756228 18.218701,17.8418925 C18.8108373,18.4083261 19.1794872,19.2014314 19.1794872,20.0699301 Z" id="Path" fill="#64E1DC"></path>
                    <path d="M15.7948718,16.9230769 L15.7948718,11.8461538 C17.3461538,11.8461538 18.6153846,12.9884615 18.6153846,14.3846154 C18.6153846,15.7807692 17.3461538,16.9230769 15.7948718,16.9230769 Z" id="Path" fill="#575F64"></path>
                    <path d="M19.1794872,20.0699301 L19.1794872,21.3706294 C19.1794872,21.7182583 18.8764583,22 18.5025641,22 L15.7948718,22 L15.7948718,16.9230769 C16.7289904,16.9230769 17.5820192,17.2756228 18.19125,17.8418925 C18.8003045,18.4083261 19.1794872,19.2014314 19.1794872,20.0699301 Z" id="Path" fill="#00C8C8"></path>
                    <path d="M9.87179487,11.8461538 C8.47564103,11.8461538 7.33333333,12.9884615 7.33333333,14.3846154 C7.33333333,15.7807692 8.47564103,16.9230769 9.87179487,16.9230769 C11.2679487,16.9230769 12.4102564,15.7807692 12.4102564,14.3846154 C12.4102564,12.9884615 11.2679487,11.8461538 9.87179487,11.8461538 Z" id="Path" fill="#7C8388"></path>
                    <path d="M12.974359,20.0699301 L12.974359,22 L6.39316239,22 L5.07692308,21.2132867 L6.39316239,20.0699301 C6.39316239,18.3329327 7.86741896,16.9230769 9.68376068,16.9230769 C10.5919315,16.9230769 11.4212651,17.2756228 12.0135728,17.8418925 C12.6057091,18.4083261 12.974359,19.2014314 12.974359,20.0699301 Z" id="Path" fill="#64E1DC"></path>
                    <path d="M9.58974359,16.9230769 L9.58974359,11.8461538 C11.1410256,11.8461538 12.4102564,12.9884615 12.4102564,14.3846154 C12.4102564,15.7807692 11.1410256,16.9230769 9.58974359,16.9230769 Z" id="Path" fill="#575F64"></path>
                    <path d="M12.974359,20.0699301 L12.974359,22 L9.58974359,22 L9.58974359,16.9230769 C10.5238622,16.9230769 11.376891,17.2756228 11.9861218,17.8418925 C12.5951763,18.4083261 12.974359,19.2014314 12.974359,20.0699301 Z" id="Path" fill="#00C8C8"></path>
                    <path d="M3.38461538,7.8974359 C3.07288998,7.8974359 2.82051282,7.58196445 2.82051282,7.19230769 L2.82051282,5.78205128 C2.82051282,5.39239452 3.07288998,5.07692308 3.38461538,5.07692308 C3.69634079,5.07692308 3.94871795,5.39239452 3.94871795,5.78205128 L3.94871795,7.19230769 C3.94871795,7.58196445 3.69634079,7.8974359 3.38461538,7.8974359 Z" id="Path" fill="#00C8C8"></path>
                    <path d="M5.64102564,7.8974359 C5.32930023,7.8974359 5.07692308,7.60299588 5.07692308,7.23931624 L5.07692308,4.60683761 C5.07692308,4.24315796 5.32930023,3.94871795 5.64102564,3.94871795 C5.95275105,3.94871795 6.20512821,4.24315796 6.20512821,4.60683761 L6.20512821,7.23931624 C6.20512821,7.60299588 5.95275105,7.8974359 5.64102564,7.8974359 Z" id="Path" fill="#7FE881"></path>
                    <path d="M8.46153846,7.8974359 C8.14981305,7.8974359 7.8974359,7.6135116 7.8974359,7.26282051 L7.8974359,3.45512821 C7.8974359,3.10443712 8.14981305,2.82051282 8.46153846,2.82051282 C8.77326387,2.82051282 9.02564103,3.10443712 9.02564103,3.45512821 L9.02564103,7.26282051 C9.02564103,7.6135116 8.77326387,7.8974359 8.46153846,7.8974359 Z" id="Path" fill="#FF637B"></path>
                    <path d="M3.12354312,11.8461538 C1.73892774,11.8461538 0.564102564,12.9884615 0.564102564,14.3846154 C0.564102564,15.7807692 1.73892774,16.9230769 3.12354312,16.9230769 C4.50815851,16.9230769 5.64102564,15.7807692 5.64102564,14.3846154 C5.64102564,12.9884615 4.50815851,11.8461538 3.12354312,11.8461538 Z" id="Path" fill="#7C8388"></path>
                    <path d="M6.76923077,20.0697599 L6.76923077,22 L0.672440143,22 C0.301022044,22 0,21.7182335 0,21.3705739 L0,20.2708812 C0,18.435055 1.65378248,16.8185445 3.61156393,16.9283662 C4.45894359,16.975901 5.2269963,17.3170041 5.78753818,17.8415259 C6.39255921,18.4080094 6.76923077,19.2011846 6.76923077,20.0697599 L6.76923077,20.0697599 Z" id="Path" fill="#64E1DC"></path>
                    <path d="M3.38461538,16.9230769 L3.38461538,11.8461538 C4.93589744,11.8461538 6.20512821,12.9884615 6.20512821,14.3846154 C6.20512821,15.7807692 4.93589744,16.9230769 3.38461538,16.9230769 Z" id="Path" fill="#575F64"></path>
                    <path d="M6.76923077,20.0699301 L6.76923077,22 L3.38461538,22 L3.38461538,16.9230769 C4.31873399,16.9230769 5.1717628,17.2756228 5.78099357,17.8418925 C6.39004807,18.4083261 6.76923077,19.2014314 6.76923077,20.0699301 Z" id="Path" fill="#00C8C8"></path>
                    <path d="M18.3333333,2.82051282 C16.9371795,2.82051282 15.7948718,3.96282051 15.7948718,5.35897436 C15.7948718,6.75512821 16.9371795,7.8974359 18.3333333,7.8974359 C19.7294872,7.8974359 20.8717949,6.75512821 20.8717949,5.35897436 C20.8717949,3.96282051 19.7294872,2.82051282 18.3333333,2.82051282 Z" id="Path" fill="#FFBD86"></path>
                    <path d="M18.0512821,7.8974359 L18.0512821,2.82051282 C19.6025641,2.82051282 20.8717949,3.96282051 20.8717949,5.35897436 C20.8717949,6.75512821 19.6025641,7.8974359 18.0512821,7.8974359 Z" id="Path" fill="#F6A96C"></path>
                </g>
            </g>
        </g>
    </g>
</svg>