<?xml version="1.0" encoding="UTF-8"?>
<svg width="62px" height="62px" viewBox="0 0 62 62" version="1.1" xmlns="http://www.w3.org/2000/svg" xmlns:xlink="http://www.w3.org/1999/xlink">
    <!-- Generator: Sketch 56.3 (81716) - https://sketch.com -->
    <title>Group 7 Copy 2</title>
    <desc>Created with Sketch.</desc>
    <defs>
        <circle id="path-1" cx="27" cy="27" r="27"></circle>
        <filter x="-11.1%" y="-11.1%" width="122.2%" height="122.2%" filterUnits="objectBoundingBox" id="filter-2">
            <feOffset dx="0" dy="0" in="SourceAlpha" result="shadowOffsetOuter1"></feOffset>
            <feGaussianBlur stdDeviation="2" in="shadowOffsetOuter1" result="shadowBlurOuter1"></feGaussianBlur>
            <feColorMatrix values="0 0 0 0 0.0392156863   0 0 0 0 0.121568627   0 0 0 0 0.266666667  0 0 0 0.12 0" type="matrix" in="shadowBlurOuter1"></feColorMatrix>
        </filter>
    </defs>
    <g id="DESIGN--v3" stroke="none" stroke-width="1" fill="none" fill-rule="evenodd">
        <g id="Artboard" transform="translate(-1433.000000, -21.000000)">
            <g id="Group-7-Copy-2" transform="translate(1437.000000, 25.000000)">
                <g id="Group-7-Copy">
                    <g id="Group-12">
                        <g id="Group-8">
                            <g id="Oval">
                                <use fill="black" fill-opacity="1" filter="url(#filter-2)" xlink:href="#path-1"></use>
                                <use fill="#EDEDED" fill-rule="evenodd" xlink:href="#path-1"></use>
                            </g>
                        </g>
                    </g>
                    <g id="Group-11" transform="translate(2.000000, 13.000000)" fill-rule="nonzero">
                        <path d="M8.15521453,8.08425596 L16.3531763,12.1339294 C16.3531763,12.1339294 22.4017903,10.1883557 23.3432409,10.4925157 C23.4347148,10.5220245 23.5892211,10.582952 23.7918665,10.6675629 L23.7926352,10.6680404 C25.671597,11.4545591 31.7553784,14.3425036 31.7553784,14.3425036 L30.0213143,14.2324903 C30.7267777,15.1330331 31.7092571,16.3117606 32.2674207,16.6554567 C33.2072379,17.2337905 30.9691066,18.879788 29.0897605,17.6784275 C27.21003,16.4773536 26.7175892,15.0094592 26.7175892,15.0094592 L25.7880532,15.1048613 L32.3072003,21.054747 L33.3428153,22.2884812 C34.2388173,23.3558584 33.1262374,24.8975725 31.6629437,24.4276286 C31.6862926,24.4452001 31.6034664,24.4211347 31.6253741,24.4802478 C31.709065,24.7041898 31.8781763,25.2419371 31.7256878,25.5042691 C31.1899123,26.4273494 30.3830781,27.1376609 28.6739964,25.8439542 C29.088127,26.1573775 29.3418902,26.8950014 29.054593,27.3238814 C28.6637151,27.907563 28.2327694,28.17085 27.7613715,28.313619 C27.2646068,28.4641233 26.5155204,27.9922694 26.1019662,27.6791326 C26.5158086,27.9922694 26.7129771,28.7351457 26.4371142,29.1725249 C26.0976423,29.7108452 25.019173,30.5019477 24.335425,29.9840639 L22.1871341,28.3579299 C22.1871341,28.3579299 16.9577494,23.3252992 15.3419672,21.9859446 C13.7257045,20.6460171 11.5291785,17.9199411 11.5291785,17.9199411 L1.87022901,12.5930821 L8.15569496,8.08396947 L8.15521453,8.08425596 Z" id="Path" fill="#FFFFFF"></path>
                        <path d="M0.000192742154,14.5727674 L7.09223665,19.3053435 L14.5877863,9.47955173 L5.56600791,0.977099237 C2.4526439,4.73398566 0.434729927,9.42807304 0,14.5727674 L0.000192742154,14.5727674 Z" id="Path" fill="#DBDBDB"></path>
                        <polygon id="Path" fill="#ADADAD" points="14.5065494 9.58015267 8.22900763 17.9951467 9.4323819 18.9312977 15.7099237 10.5160103"></polygon>
                        <path d="M32.6482775,12.1454927 C31.9930629,12.47002 29.6389015,10.9326089 27.7020792,10.6982866 C26.2997084,10.5286973 24.6054693,11.0707892 24.7063454,11.1229778 L29.0971485,13.1459829 C29.0971485,13.1459829 31.2375484,16.0998615 32.17733,16.6792994 C33.1170154,17.2590245 30.8791979,18.9097186 29.0001152,17.70507 C27.1206482,16.5007088 26.6282765,15.0287969 26.6282765,15.0287969 L22.7434875,15.4279205 L15.2538648,22.0248553 C14.2171461,22.9381091 14.5341855,23.4147018 15.2313839,24.3054522 C15.5501525,24.7133857 16.7217571,24.5759715 17.2128799,24.3888583 C16.0786476,25.2488701 17.7140903,27.4637763 19.3175409,26.24553 C18.3478808,26.9820127 19.7386268,29.5786144 21.680541,28.1037339 C20.7118416,29.4052905 22.6862282,30.3519642 23.516391,30.1166843 L24.117709,29.946329 L23.9641851,29.8297903 C23.9145156,29.8297903 22.3418082,28.2222836 22.2466003,28.0273182 C21.7085941,26.926664 23.1263365,25.4361748 24.3973761,26.5018769 L25.4913541,27.3390981 L24.8575636,26.5380739 C24.0491132,25.4821391 24.671375,24.3918269 25.4457196,24.0612667 C26.0132201,23.8193794 26.6006076,24.0880792 27.0794331,24.5588306 L28.2877374,25.5237943 L27.2583201,24.3248913 C27.2583201,24.3248913 26.2709827,23.2132248 27.1772349,22.220491 C28.0834871,21.2280445 29.3115823,22.4179461 29.3115823,22.4179461 L30.7570897,23.6090926 L29.5129504,22.172803 C29.5129504,22.172803 28.4354008,21.0437084 29.1606524,20.2882655 C30.168069,19.2388423 31.4145141,20.2723695 32.398585,21.3059923 C32.6813265,21.6031326 32.9726184,22.0595201 33.1936813,22.27019 C34.2797813,21.0517521 35.0106051,19.7310437 35.0106051,19.7310437 L47.129771,12.6054233 L40.8453783,8.08396947 L32.6482775,12.1454927 Z" id="Path" fill="#B9B9B9"></path>
                        <path d="M48.9997109,14.5725036 L41.9073779,19.3053435 L34.4122137,9.47960332 L43.4339921,0.977099237 C46.5475488,4.73367727 48.564981,9.42783623 49,14.5725036 L48.9997109,14.5725036 Z" id="Path" fill="#A6A6A6"></path>
                        <polygon id="Path" fill="#FFFFFF" points="34.4929718 9.58015267 40.7709924 17.9951467 39.5673308 18.9312977 33.2900763 10.5160103"></polygon>
                        <path d="M6.65573102,16.6606881 C6.90477225,16.6606881 7.10687023,16.834149 7.10687023,17.0479013 C7.10687023,17.2616536 6.90506262,17.4351145 6.65573102,17.4351145 C6.40668978,17.4351145 6.20459181,17.2619028 6.20459181,17.0479013 C6.20459181,16.834149 6.40639941,16.6606881 6.65573102,16.6606881 Z M5.31373463,15.9389313 C5.56277586,15.9389313 5.76487384,16.112143 5.76487384,16.3261445 C5.76487384,16.5398968 5.56277586,16.7133577 5.31373463,16.7133577 C5.0646934,16.7133577 4.86259542,16.5398968 4.86259542,16.3261445 C4.86259542,16.1123922 5.06440303,15.9389313 5.31373463,15.9389313 Z" id="Shape" fill="#ECF0F1"></path>
                        <path d="M42.7183148,17.0346909 C42.4692735,17.0346909 42.2671756,17.2081614 42.2671756,17.4219256 C42.2671756,17.6356898 42.4689832,17.8091603 42.7183148,17.8091603 C42.967356,17.8091603 43.169454,17.635939 43.169454,17.4219256 C43.169454,17.2081614 42.9676464,17.0346909 42.7183148,17.0346909 Z M44.0603112,16.3129771 C43.8112699,16.3129771 43.609172,16.4861984 43.609172,16.7002118 C43.609172,16.913976 43.8112699,17.0874465 44.0603112,17.0874465 C44.3093524,17.0874465 44.5114504,16.913976 44.5114504,16.7002118 C44.5114504,16.4864476 44.3096428,16.3129771 44.0603112,16.3129771 Z" id="Shape" fill="#FFFFFF"></path>
                    </g>
                </g>
            </g>
        </g>
    </g>
</svg>