<?xml version="1.0" encoding="UTF-8"?>
<svg width="62px" height="62px" viewBox="0 0 62 62" version="1.1" xmlns="http://www.w3.org/2000/svg" xmlns:xlink="http://www.w3.org/1999/xlink">
    <!-- Generator: Sketch 56.3 (81716) - https://sketch.com -->
    <title>Group 9</title>
    <desc>Created with Sketch.</desc>
    <defs>
        <circle id="path-1" cx="27" cy="27" r="27"></circle>
        <filter x="-11.1%" y="-11.1%" width="122.2%" height="122.2%" filterUnits="objectBoundingBox" id="filter-2">
            <feOffset dx="0" dy="0" in="SourceAlpha" result="shadowOffsetOuter1"></feOffset>
            <feGaussianBlur stdDeviation="2" in="shadowOffsetOuter1" result="shadowBlurOuter1"></feGaussianBlur>
            <feColorMatrix values="0 0 0 0 0.0392156863   0 0 0 0 0.121568627   0 0 0 0 0.266666667  0 0 0 0.12 0" type="matrix" in="shadowBlurOuter1"></feColorMatrix>
        </filter>
    </defs>
    <g id="DESIGN--v3" stroke="none" stroke-width="1" fill="none" fill-rule="evenodd">
        <g id="Artboard" transform="translate(-609.000000, -23.000000)">
            <g id="Group-9" transform="translate(613.000000, 27.000000)">
                <g id="Group-2-Copy">
                    <g id="Group-12">
                        <g id="Group-8">
                            <g id="Oval">
                                <use fill="black" fill-opacity="1" filter="url(#filter-2)" xlink:href="#path-1"></use>
                                <use fill="#EDEDED" fill-rule="evenodd" xlink:href="#path-1"></use>
                            </g>
                        </g>
                    </g>
                </g>
                <g id="Group-15" transform="translate(13.000000, 10.000000)" fill-rule="nonzero">
                    <g id="Group-14">
                        <path d="M24.976559,5.9765625 L19.9749118,5.9765625 L19.9749118,0.99609375 C19.9749118,0.438214844 19.5348335,0 18.9745823,0 L3.00098833,0 C1.34030808,0 5.68434189e-14,1.33469922 5.68434189e-14,2.98828125 L5.68434189e-14,31.0117188 C5.68434189e-14,32.665168 1.34030808,34 3.00098833,34 L22.9759001,34 C24.6365803,34 25.9768884,32.665168 25.9768884,31.0117188 L25.9768884,6.97265625 C25.9768884,6.41477734 25.5368101,5.9765625 24.976559,5.9765625 Z" id="Path" fill="#FFFFFF"></path>
                        <path d="M25.9768884,6.97265625 L25.9768884,31.0117188 C25.9768884,32.665168 24.6365803,34 22.9759001,34 L12.9726057,34 L12.9726057,0 L18.9745823,0 C19.5348335,0 19.9749118,0.438214844 19.9749118,0.99609375 L19.9749118,5.9765625 L24.976559,5.9765625 C25.5368101,5.9765625 25.9768884,6.41477734 25.9768884,6.97265625 Z" id="Path" fill="#FFFFFF"></path>
                        <path d="M25.9768884,7.96875 L18.9745823,7.96875 C18.4216669,7.96875 17.9742529,7.52323047 17.9742529,6.97265625 L17.9742529,0 L20.1546376,0 C20.9400296,0 21.7098165,0.317089844 22.2647325,0.870585938 L25.1035341,3.69836328 C25.6583835,4.25285547 25.9768884,5.01739063 25.9768884,5.79753125 L25.9768884,7.96875 Z" id="Path" fill="#DBDBDB"></path>
                        <path d="M18.9745823,11.953125 L5.00164721,11.953125 C3.68141242,11.953125 3.68141242,9.9609375 5.00164721,9.9609375 L18.9745823,9.9609375 C20.2948838,9.9609375 20.2948838,11.953125 18.9745823,11.953125 Z" id="Path" fill="#DBDBDB"></path>
                        <path d="M14.9732645,15.9375 L5.00164721,15.9375 C3.68141242,15.9375 3.68141242,13.9453125 5.00164721,13.9453125 L14.9732645,13.9453125 C16.293566,13.9453125 16.293566,15.9375 14.9732645,15.9375 Z" id="Path" fill="#DBDBDB"></path>
                        <path d="M14.9732645,19.921875 L5.00164721,19.921875 C3.68141242,19.921875 3.68141242,17.9296875 5.00164721,17.9296875 L14.9732645,17.9296875 C16.293566,17.9296875 16.293566,19.921875 14.9732645,19.921875 Z" id="Path" fill="#DBDBDB"></path>
                        <path d="M14.9732645,23.90625 L5.00164721,23.90625 C3.68141242,23.90625 3.68141242,21.9140625 5.00164721,21.9140625 L14.9732645,21.9140625 C16.293566,21.9140625 16.293566,23.90625 14.9732645,23.90625 Z" id="Path" fill="#DBDBDB"></path>
                        <path d="M18.9745823,30.015625 L12.9726057,30.015625 C11.6523709,30.015625 11.6523709,28.0234375 12.9726057,28.0234375 L18.9745823,28.0234375 C20.2948838,28.0234375 20.2948838,30.015625 18.9745823,30.015625 Z" id="Path" fill="#DBDBDB"></path>
                        <g id="Group" transform="translate(12.937594, 9.960938)" fill="#DBDBDB">
                            <path d="M2.03567042,13.9453125 L0.0350115305,13.9453125 L0.0350115305,11.953125 L2.03567042,11.953125 C3.3559719,11.953125 3.3559719,13.9453125 2.03567042,13.9453125 Z" id="Path"></path>
                            <path d="M2.03567042,9.9609375 L0.0350115305,9.9609375 L0.0350115305,7.96875 L2.03567042,7.96875 C3.3559719,7.96875 3.3559719,9.9609375 2.03567042,9.9609375 Z" id="Path"></path>
                            <path d="M2.03567042,5.9765625 L0.0350115305,5.9765625 L0.0350115305,3.984375 L2.03567042,3.984375 C3.3559719,3.984375 3.3559719,5.9765625 2.03567042,5.9765625 Z" id="Path"></path>
                            <path d="M6.03698819,20.0546875 L0.0350115305,20.0546875 L0.0350115305,18.0625 L6.03698819,18.0625 C7.35728967,18.0625 7.35728967,20.0546875 6.03698819,20.0546875 Z" id="Path"></path>
                            <path d="M6.03698819,1.9921875 L0.0350115305,1.9921875 L0.0350115305,0 L6.03698819,0 C7.35728967,0 7.35728967,1.9921875 6.03698819,1.9921875 Z" id="Path"></path>
                        </g>
                    </g>
                </g>
                <g id="Group-17" transform="translate(32.000000, 25.000000)" fill="#B0B0B0">
                    <g id="Group-7">
                        <circle id="Oval" cx="5.5" cy="5.5" r="5.5"></circle>
                    </g>
                </g>
                <text id="+" font-family="EYInterstate-Regular, EYInterstate" font-size="14" font-weight="normal" fill="#FFFFFF">
                    <tspan x="33" y="35">+</tspan>
                </text>
            </g>
        </g>
    </g>
</svg>