<?xml version="1.0" encoding="UTF-8"?>
<svg width="62px" height="62px" viewBox="0 0 62 62" version="1.1" xmlns="http://www.w3.org/2000/svg" xmlns:xlink="http://www.w3.org/1999/xlink">
    <!-- Generator: Sketch 56.3 (81716) - https://sketch.com -->
    <title>Group</title>
    <desc>Created with Sketch.</desc>
    <defs>
        <circle id="path-1" cx="27" cy="27" r="27"></circle>
        <filter x="-11.1%" y="-11.1%" width="122.2%" height="122.2%" filterUnits="objectBoundingBox" id="filter-2">
            <feOffset dx="0" dy="0" in="SourceAlpha" result="shadowOffsetOuter1"></feOffset>
            <feGaussianBlur stdDeviation="2" in="shadowOffsetOuter1" result="shadowBlurOuter1"></feGaussianBlur>
            <feColorMatrix values="0 0 0 0 0.0392156863   0 0 0 0 0.121568627   0 0 0 0 0.266666667  0 0 0 0.12 0" type="matrix" in="shadowBlurOuter1"></feColorMatrix>
        </filter>
        <filter x="-24.2%" y="-38.1%" width="148.5%" height="176.2%" filterUnits="objectBoundingBox" id="filter-3">
            <feOffset dx="0" dy="0" in="SourceAlpha" result="shadowOffsetOuter1"></feOffset>
            <feGaussianBlur stdDeviation="2" in="shadowOffsetOuter1" result="shadowBlurOuter1"></feGaussianBlur>
            <feColorMatrix values="0 0 0 0 0.0392156863   0 0 0 0 0.121568627   0 0 0 0 0.266666667  0 0 0 0.12 0" type="matrix" in="shadowBlurOuter1" result="shadowMatrixOuter1"></feColorMatrix>
            <feMerge>
                <feMergeNode in="shadowMatrixOuter1"></feMergeNode>
                <feMergeNode in="SourceGraphic"></feMergeNode>
            </feMerge>
        </filter>
    </defs>
    <g id="DESIGN--v3" stroke="none" stroke-width="1" fill="none" fill-rule="evenodd">
        <g id="Artboard" transform="translate(-33.000000, -23.000000)">
            <g id="Group" transform="translate(37.000000, 27.000000)">
                <g id="Group-7">
                    <g id="Group-12">
                        <g id="Group-8">
                            <g id="Oval">
                                <use fill="black" fill-opacity="1" filter="url(#filter-2)" xlink:href="#path-1"></use>
                                <use fill="#EDEDED" fill-rule="evenodd" xlink:href="#path-1"></use>
                            </g>
                        </g>
                    </g>
                </g>
                <g id="Group-23" transform="translate(11.000000, 16.000000)" fill-rule="nonzero">
                    <g id="Group-22" filter="url(#filter-3)">
                        <path d="M32.3123523,0 L0.687518799,0 C0.307826923,0 0,0.313425 0,0.700021875 L0,20.3000437 C0,20.686575 0.307826923,21 0.687518799,21 L4.81250269,21 C5.19219456,21 5.50002148,20.686575 5.50002148,20.2999781 C5.50698239,20.1777187 5.54642755,20.0595937 5.61416752,19.9584 C5.74345999,19.7375719 5.74345999,19.4624062 5.61416752,19.2415781 C5.54642755,19.1403187 5.50698239,19.0222594 5.50002148,18.9 C5.50002148,18.5134031 5.80784841,18.1999781 6.18754028,18.1999781 C6.56723216,18.1999781 6.87505908,18.5134031 6.87505908,18.9 C6.86809817,19.0222594 6.82865301,19.1403844 6.76091304,19.2415781 C6.63162058,19.4624062 6.63162058,19.7375719 6.76091304,19.9584 C6.82865301,20.0596594 6.86809817,20.1777187 6.87505908,20.2999781 C6.87505908,20.686575 7.182886,21 7.56257788,21 L11.6875618,21 C12.0672536,21 12.3750806,20.686575 12.3750806,20.2999781 C12.3820415,20.1777187 12.4214866,20.0595937 12.4892266,19.9584 C12.6185191,19.7375719 12.6185191,19.4624062 12.4892266,19.2415781 C12.4214866,19.1403187 12.3820415,19.0222594 12.3750806,18.9 C12.3750806,18.5134031 12.6829075,18.1999781 13.0625994,18.1999781 C13.4422912,18.1999781 13.7501182,18.5134031 13.7501182,18.9 C13.7431573,19.0222594 13.7037121,19.1403844 13.6359721,19.2415781 C13.5066797,19.4624062 13.5066797,19.7375719 13.6359721,19.9584 C13.7037121,20.0596594 13.7431573,20.1777187 13.7501182,20.2999781 C13.7501182,20.686575 14.0579451,21 14.437637,21 L18.5626208,21 C18.9423127,21 19.2501396,20.686575 19.2501396,20.2999781 C19.2571006,20.1777187 19.2965457,20.0595937 19.3642857,19.9584 C19.4935782,19.7375719 19.4935782,19.4624062 19.3642857,19.2415781 C19.2965457,19.1403187 19.2571006,19.0222594 19.2501396,18.9 C19.2501396,18.5134031 19.5579666,18.1999781 19.9376584,18.1999781 C20.3173503,18.1999781 20.6249194,18.5134031 20.6249194,18.9 C20.6179585,19.0222594 20.5785134,19.1403844 20.5107734,19.2415781 C20.3814809,19.4624062 20.3814809,19.7375719 20.5107734,19.9584 C20.5785134,20.0596594 20.6179585,20.1777187 20.6249194,20.2999781 C20.6249194,20.686575 20.9327464,21 21.3124382,21 L25.4374221,21 C25.817114,21 26.1249409,20.686575 26.1249409,20.2999781 C26.1319018,20.1777187 26.171347,20.0595937 26.239087,19.9584 C26.3683794,19.7375719 26.3683794,19.4624062 26.239087,19.2415781 C26.171347,19.1403187 26.1319018,19.0222594 26.1249409,18.9 C26.1249409,18.5134031 26.4327678,18.1999781 26.8124597,18.1999781 C27.1921516,18.1999781 27.4999785,18.5134031 27.4999785,18.9 C27.4930176,19.0222594 27.4535724,19.1403844 27.3858325,19.2415781 C27.25654,19.4624062 27.25654,19.7375719 27.3858325,19.9584 C27.4535724,20.0596594 27.4930176,20.1777187 27.4999785,20.2999781 C27.4999785,20.686575 27.8078054,21 28.1874973,21 L32.3124812,21 C32.6921731,21 33,20.686575 33,20.2999781 L33,0.700021875 C33,0.313425 32.6920442,0 32.3123523,0 Z" id="Path" fill="#FFFFFF"></path>
                        <ellipse id="Oval" fill="#DBDBDB" cx="9.1119403" cy="6.25" rx="2.70895522" ry="2.75"></ellipse>
                        <path d="M14.5298507,14.5 C14.5298507,11.4624413 12.0490476,9 8.98883844,9 C5.92862928,9 3.44776119,11.4624413 3.44776119,14.5 L14.5298507,14.5 Z" id="Path" fill="#DBDBDB"></path>
                        <path d="M29.6069474,5.5 L18.6617094,5.5 C18.283907,5.5 17.9776119,5.22015188 17.9776119,4.8749707 C17.9776119,4.52978953 18.283907,4.25 18.6617094,4.25 L29.6069474,4.25 C29.9847497,4.25 30.2910448,4.52984812 30.2910448,4.8750293 C30.2910448,5.22021047 29.9847497,5.5 29.6069474,5.5 Z" id="Path" fill="#EEEEEE"></path>
                        <path d="M25.6529687,9.75 L18.6753895,9.75 C18.2900321,9.75 17.9776119,9.47015188 17.9776119,9.1249707 C17.9776119,8.77978953 18.2900321,8.5 18.6753895,8.5 L25.6529687,8.5 C26.0383261,8.5 26.3507463,8.77984812 26.3507463,9.1250293 C26.3507463,9.47021047 26.0383261,9.75 25.6529687,9.75 Z" id="Path" fill="#EEEEEE"></path>
                        <path d="M29.6069474,14 L18.6617094,14 C18.283907,14 17.9776119,13.720165 17.9776119,13.375 C17.9776119,13.029835 18.283907,12.75 18.6617094,12.75 L29.6069474,12.75 C29.9847497,12.75 30.2910448,13.029835 30.2910448,13.375 C30.2910448,13.7202236 29.9847497,14 29.6069474,14 Z" id="Path" fill="#EEEEEE"></path>
                    </g>
                </g>
            </g>
        </g>
    </g>
</svg>