<?xml version="1.0" encoding="UTF-8"?>
<svg width="62px" height="62px" viewBox="0 0 62 62" version="1.1" xmlns="http://www.w3.org/2000/svg" xmlns:xlink="http://www.w3.org/1999/xlink">
    <!-- Generator: Sketch 56.3 (81716) - https://sketch.com -->
    <title>Group 31</title>
    <desc>Created with Sketch.</desc>
    <defs>
        <circle id="path-1" cx="27" cy="27" r="27"></circle>
        <filter x="-11.1%" y="-11.1%" width="122.2%" height="122.2%" filterUnits="objectBoundingBox" id="filter-2">
            <feOffset dx="0" dy="0" in="SourceAlpha" result="shadowOffsetOuter1"></feOffset>
            <feGaussianBlur stdDeviation="2" in="shadowOffsetOuter1" result="shadowBlurOuter1"></feGaussianBlur>
            <feColorMatrix values="0 0 0 0 0.0392156863   0 0 0 0 0.121568627   0 0 0 0 0.266666667  0 0 0 0.12 0" type="matrix" in="shadowBlurOuter1"></feColorMatrix>
        </filter>
    </defs>
    <g id="DESIGN--v3" stroke="none" stroke-width="1" fill="none" fill-rule="evenodd">
        <g id="Artboard" transform="translate(-1343.000000, -22.000000)">
            <g id="Group-31" transform="translate(1347.000000, 26.000000)">
                <g id="Group-24">
                    <g id="Group-2-Copy-7">
                        <g id="Group-12">
                            <g id="Group-8">
                                <g id="Oval">
                                    <use fill="black" fill-opacity="1" filter="url(#filter-2)" xlink:href="#path-1"></use>
                                    <use fill="#EDEDED" fill-rule="evenodd" xlink:href="#path-1"></use>
                                </g>
                            </g>
                        </g>
                    </g>
                    <g id="Group-19" transform="translate(11.000000, 9.000000)" fill-rule="nonzero">
                        <path d="M33.7918966,20.264 C33.0579655,19.241069 32.4483103,18.9983793 29.8965517,20.3402069 L24.8117931,23.4476897 C24.2314483,23.7566207 23.2999655,23.916069 22.2676552,23.9952069 C22.2688276,24.0086897 22.2758621,24.021 22.2758621,24.0338966 C22.2758621,24.358069 22.0138276,24.6201034 21.6896552,24.6201034 L11.7241379,24.6201034 C9.96551724,24.6201034 9.96551724,25.502931 9.96551724,25.7925172 C9.96551724,26.1166897 9.70348276,26.3787241 9.37931034,26.3787241 C9.05455172,26.3787241 8.79310345,26.1166897 8.79310345,25.7925172 C8.79310345,24.3246552 9.88872414,23.4476897 11.7241379,23.4476897 L20.0693793,23.4476897 C20.383,23.1205862 20.434,22.6164483 19.9152069,21.8426552 C19.0915862,20.6122069 17.6706207,19.9140345 16.1904483,19.9140345 L13.9036552,19.9140345 C12.5706207,19.9140345 11.2557586,19.5177586 10.1917931,18.7158276 C7.70803448,16.8434828 2.93103448,16.9994138 2.93103448,16.9994138 L2.93103448,31.0683793 L11.137931,31.0683793 C12.3085862,31.0683793 13.478069,30.9804483 14.6352414,30.804 L22.2758621,29.6427241 C22.5361379,29.6427241 22.7899655,29.6116552 23.035,29.5571379 C23.0391034,29.5565517 23.0432069,29.5559655 23.0467241,29.5553793 C23.6657586,29.4686207 24.2308621,29.1555862 24.6816552,28.7235517 L33.5896552,21.7863793 C34.0433793,21.4106207 34.1354138,20.7435172 33.7918966,20.264" id="XMLID_112_" fill="#DBDBDB"></path>
                        <path d="M18.0112069,24.040931 C17.7966552,24.0368276 17.5944138,24.0344828 17.4208966,24.0344828 C17.4208966,24.0344828 17.6653448,24.0503103 18.0112069,24.040931" id="XMLID_111_" fill="#2C91D0"></path>
                        <path d="M8.79310345,25.7931034 C8.79310345,26.1166897 9.05513793,26.3793103 9.37931034,26.3793103 C9.70348276,26.3793103 9.96551724,26.1166897 9.96551724,25.7931034 C9.96551724,25.502931 9.96551724,24.6206897 11.7241379,24.6206897 L21.6896552,24.6206897 C22.0138276,24.6206897 22.2758621,24.358069 22.2758621,24.0344828 C22.2758621,24.0204138 22.2688276,24.0092759 22.2682414,23.9957931 C20.8097586,24.1077586 19.156069,24.0591034 18.0106207,24.0403448 C17.6647586,24.0514828 17.4203103,24.0344828 17.4203103,24.0344828 C17.5938276,24.0344828 17.7966552,24.0374138 18.0106207,24.0403448 C18.6454828,24.0221724 19.6226897,23.9137241 20.0693793,23.4482759 L11.7241379,23.4482759 C9.88872414,23.4482759 8.79310345,24.3246552 8.79310345,25.7931034" id="XMLID_110_" fill="#878787"></path>
                        <path d="M28.7241379,4.68965517 C28.7241379,7.27951724 26.6243448,9.37931034 24.0344828,9.37931034 C21.4446207,9.37931034 19.3448276,7.27951724 19.3448276,4.68965517 C19.3448276,2.0997931 21.4446207,0 24.0344828,0 C26.6243448,0 28.7241379,2.0997931 28.7241379,4.68965517" id="XMLID_109_" fill="#B7B7B7"></path>
                        <path d="M12.7828276,19.8155517 C13.1515517,19.8794483 13.5261379,19.9152069 13.9036552,19.9152069 L16.1898621,19.9152069 C16.5615172,19.9152069 16.929069,19.9591724 17.2843103,20.0441724 C18.8488966,19.2838621 19.9310345,17.6841034 19.9310345,15.8275862 C19.9310345,13.2377241 17.8312414,11.137931 15.2413793,11.137931 C12.650931,11.137931 10.5517241,13.2377241 10.5517241,15.8275862 C10.5517241,17.5146897 11.4451034,18.9895862 12.7828276,19.8155517" id="XMLID_74_" fill="#B7B7B7"></path>
                        <path d="M17.5862069,15.8275862 C17.5862069,17.1225172 16.5363103,18.1724138 15.2413793,18.1724138 C13.9464483,18.1724138 12.8965517,17.1225172 12.8965517,15.8275862 C12.8965517,14.5326552 13.9464483,13.4827586 15.2413793,13.4827586 C16.5363103,13.4827586 17.5862069,14.5326552 17.5862069,15.8275862" id="XMLID_73_" fill="#FFFFFF"></path>
                        <path d="M26.3793103,4.68965517 C26.3793103,5.98458621 25.3294138,7.03448276 24.0344828,7.03448276 C22.7395517,7.03448276 21.6896552,5.98458621 21.6896552,4.68965517 C21.6896552,3.39472414 22.7395517,2.34482759 24.0344828,2.34482759 C25.3294138,2.34482759 26.3793103,3.39472414 26.3793103,4.68965517" id="XMLID_72_" fill="#FFFFFF"></path>
                        <rect id="XMLID_75_" fill="#878787" x="0" y="15.2249655" width="2.93103448" height="17.6026207"></rect>
                    </g>
                </g>
            </g>
        </g>
    </g>
</svg>