<?xml version="1.0" encoding="UTF-8"?>
<svg width="62px" height="62px" viewBox="0 0 62 62" version="1.1" xmlns="http://www.w3.org/2000/svg" xmlns:xlink="http://www.w3.org/1999/xlink">
    <!-- Generator: Sketch 56.3 (81716) - https://sketch.com -->
    <title>Group 30</title>
    <desc>Created with Sketch.</desc>
    <defs>
        <circle id="path-1" cx="27" cy="27" r="27"></circle>
        <filter x="-11.1%" y="-11.1%" width="122.2%" height="122.2%" filterUnits="objectBoundingBox" id="filter-2">
            <feOffset dx="0" dy="0" in="SourceAlpha" result="shadowOffsetOuter1"></feOffset>
            <feGaussianBlur stdDeviation="2" in="shadowOffsetOuter1" result="shadowBlurOuter1"></feGaussianBlur>
            <feColorMatrix values="0 0 0 0 0.0392156863   0 0 0 0 0.121568627   0 0 0 0 0.266666667  0 0 0 0.12 0" type="matrix" in="shadowBlurOuter1"></feColorMatrix>
        </filter>
        <filter x="-48.5%" y="-48.5%" width="197.0%" height="197.0%" filterUnits="objectBoundingBox" id="filter-3">
            <feOffset dx="0" dy="0" in="SourceAlpha" result="shadowOffsetOuter1"></feOffset>
            <feGaussianBlur stdDeviation="4" in="shadowOffsetOuter1" result="shadowBlurOuter1"></feGaussianBlur>
            <feColorMatrix values="0 0 0 0 0.0392156863   0 0 0 0 0.121568627   0 0 0 0 0.266666667  0 0 0 0.1 0" type="matrix" in="shadowBlurOuter1" result="shadowMatrixOuter1"></feColorMatrix>
            <feMerge>
                <feMergeNode in="shadowMatrixOuter1"></feMergeNode>
                <feMergeNode in="SourceGraphic"></feMergeNode>
            </feMerge>
        </filter>
    </defs>
    <g id="DESIGN--v3" stroke="none" stroke-width="1" fill="none" fill-rule="evenodd">
        <g id="Artboard" transform="translate(-1192.000000, -23.000000)">
            <g id="Group-30" transform="translate(1196.000000, 27.000000)">
                <g id="Group-2-Copy-6">
                    <g id="Group-12">
                        <g id="Group-8">
                            <g id="Oval">
                                <use fill="black" fill-opacity="1" filter="url(#filter-2)" xlink:href="#path-1"></use>
                                <use fill="#EDEDED" fill-rule="evenodd" xlink:href="#path-1"></use>
                            </g>
                        </g>
                    </g>
                </g>
                <g id="bill" filter="url(#filter-3)" transform="translate(11.000000, 11.000000)" fill-rule="nonzero">
                    <path d="M33,16.5 C33,19.5486832 32.1729355,22.4050141 30.7310486,24.8557434 C27.8633881,29.7290039 22.5638809,33 16.5,33 C13.041687,33 9.83187105,31.9360199 7.18048096,30.1174851 C2.84399414,27.1448364 0,22.1545029 0,16.5 C0,13.006691 1.08563232,9.7666626 2.93840791,7.09915922 C4.9319229,4.22872925 7.81292725,2.02095796 11.1848831,0.874900834 C12.8526077,0.307662996 14.6404267,0 16.5,0 C19.0154343,0 21.3994446,0.562957764 23.5324402,1.56928252 C24.7102203,2.12544247 25.8119659,2.81655122 26.8175354,3.62322237 C30.5870361,6.64723202 33,11.2921372 33,16.5 Z" id="Path" fill="#FFFFFF"></path>
                    <path d="M31,24.7799219 C28.1431387,29.6985516 22.8635887,33 16.8225435,33 C13.377254,33 10.1795258,31.9261145 7.53812043,30.0906494 C5.33615505,22.5190701 3.91926221,14.7327645 3.31202243,6.8580273 C3.15024226,4.75625086 3.04564955,2.64761327 3,0.535672208 C4.34515781,1.12775775 5.69432871,1.69798945 7.04776362,2.24509677 C8.3560506,1.5940568 9.66910321,0.964616557 10.9881755,0.356775987 C11.1680148,0.430214967 11.3476033,0.503145622 11.5274426,0.575822245 C12.6930119,1.04466247 13.8615911,1.49749356 15.0324277,1.93329894 C16.3422196,1.32622073 17.6565263,0.741504541 18.9768527,0.178133928 C20.3200039,0.681787746 21.6666666,1.16307954 23.0173425,1.62124701 C23.2877285,1.50562521 23.5581146,1.39076564 23.8285005,1.27666849 C24.8711671,0.837559582 25.917596,0.411918763 26.9662823,0 C26.9906121,1.11810138 27.0362617,2.23493221 27.1012245,3.34973013 C27.5313841,10.6303489 28.8409252,17.8281266 31,24.7799219 Z" id="Path" fill="#A6A6A6"></path>
                    <path d="M31,24.9820435 C28.0852867,29.7797301 22.6988249,33 16.5354474,33 C13.0203902,33 9.75790733,31.95252 7.06301305,30.1621868 C6.68581489,28.9231066 6.33139185,27.6778298 6,26.4273479 C6.54634875,26.9027541 7.12468519,27.343707 7.7319385,27.7467365 C10.4268327,29.5370697 13.6893156,30.5845497 17.2041169,30.5845497 C22.7310684,30.5845497 27.6336213,27.9948499 30.6878007,24 C30.7899052,24.3281741 30.894057,24.6551088 31,24.9820435 L31,24.9820435 Z" id="Path" fill="#DBDBDB"></path>
                    <g id="Group" transform="translate(6.000000, 6.000000)" fill="#FFFFFF">
                        <path d="M1.02110905,4.13160846 C0.521577262,4.13160846 0.0884326376,3.7608199 0.0250517432,3.25395064 C-0.0438405667,2.70488391 0.346966628,2.20400725 0.897854478,2.13534268 L17.6647357,0.0464421733 C18.2151225,-0.021722983 18.717911,0.36729294 18.7868033,0.916359673 C18.8556956,1.46542634 18.4648884,1.96605332 17.9140006,2.03471789 L1.14711934,4.1236184 C1.10478184,4.12886186 1.06269492,4.13160846 1.02110905,4.13160846 Z" id="Path"></path>
                        <path d="M1.98184342,9.00579279 C1.48757248,9.00579279 1.05693306,8.64249488 0.987289185,8.14086914 C0.911382451,7.59280116 1.29542566,7.0871804 1.84531144,7.01127486 L18.2629713,4.74834094 C18.8123561,4.67218572 19.3201549,5.05545878 19.3963122,5.60352669 C19.4724695,6.15159467 19.0881758,6.65746517 18.53829,6.73312104 L2.12063005,8.99605489 C2.07403384,9.00254685 2.02768813,9.00579279 1.98184342,9.00579279 Z" id="Path"></path>
                        <path d="M10.9057754,17.9314353 C10.4287902,17.9314353 10.0054157,17.5918579 9.91773461,17.1074607 C9.81903078,16.5631381 10.1820305,16.0417869 10.728409,15.943659 L20.6671871,14.1551347 C21.2133152,14.0565075 21.736145,14.4185569 21.8348489,14.9628796 C21.9335527,15.5074519 21.570553,16.0285533 21.024425,16.1269309 L11.0853964,17.9154552 C11.0250217,17.9261918 10.965148,17.9314353 10.9057754,17.9314353 L10.9057754,17.9314353 Z" id="Path"></path>
                    </g>
                </g>
            </g>
        </g>
    </g>
</svg>