<?xml version="1.0" encoding="UTF-8"?>
<svg width="62px" height="62px" viewBox="0 0 62 62" version="1.1" xmlns="http://www.w3.org/2000/svg" xmlns:xlink="http://www.w3.org/1999/xlink">
    <!-- Generator: Sketch 56.3 (81716) - https://sketch.com -->
    <title>Group 27</title>
    <desc>Created with Sketch.</desc>
    <defs>
        <circle id="path-1" cx="27" cy="27" r="27"></circle>
        <filter x="-11.1%" y="-11.1%" width="122.2%" height="122.2%" filterUnits="objectBoundingBox" id="filter-2">
            <feOffset dx="0" dy="0" in="SourceAlpha" result="shadowOffsetOuter1"></feOffset>
            <feGaussianBlur stdDeviation="2" in="shadowOffsetOuter1" result="shadowBlurOuter1"></feGaussianBlur>
            <feColorMatrix values="0 0 0 0 0.0392156863   0 0 0 0 0.121568627   0 0 0 0 0.266666667  0 0 0 0.12 0" type="matrix" in="shadowBlurOuter1"></feColorMatrix>
        </filter>
    </defs>
    <g id="DESIGN--v3" stroke="none" stroke-width="1" fill="none" fill-rule="evenodd">
        <g id="Artboard" transform="translate(-856.000000, -23.000000)">
            <g id="Group-27" transform="translate(860.000000, 27.000000)">
                <g id="Group-2-Copy-3">
                    <g id="Group-12">
                        <g id="Group-8">
                            <g id="Oval">
                                <use fill="black" fill-opacity="1" filter="url(#filter-2)" xlink:href="#path-1"></use>
                                <use fill="#EDEDED" fill-rule="evenodd" xlink:href="#path-1"></use>
                            </g>
                        </g>
                    </g>
                </g>
                <g id="Group-13" transform="translate(8.000000, 11.000000)" fill-rule="nonzero">
                    <g id="Group" transform="translate(0.000000, 2.860215)">
                        <path d="M37.3892936,10.1277455 L37.3892936,14.8628892 C37.3892936,15.1857399 37.1015729,15.4727183 36.7419222,15.4009737 C36.4901666,15.3651014 36.3103413,15.1498676 36.2743762,14.8987615 L35.8068302,10.0560009 C35.8068302,9.91251168 35.6629699,9.76902248 35.4831445,9.76902248 C35.3033191,9.76902248 35.1594588,9.91251168 35.1594588,10.0918732 L35.1594588,24.3690489 C35.1594588,24.7636442 34.8717382,25.1223672 34.4761224,25.1941118 C34.0445414,25.2299841 33.6489256,24.9430057 33.6129605,24.5125381 L32.8576939,17.0152272 C32.8576939,16.8358657 32.6778685,16.6923765 32.4980432,16.6923765 C32.3182178,16.6923765 32.1743575,16.8358657 32.1743575,17.0152272 L31.5989162,24.4407935 C31.5629512,24.8353888 31.2392655,25.1582395 30.8076846,25.1582395 L30.6638242,25.1582395 C30.2322433,25.1582395 29.8725926,24.7995165 29.8725926,24.3690489 L29.8725926,10.0918732 C29.8725926,9.91251168 29.7287323,9.76902248 29.5489069,9.76902248 C29.4050466,9.76902248 29.2971513,9.84076708 29.2611863,9.98425628 C29.2611863,9.80489478 29.4410116,9.62553328 29.620837,9.62553328 C29.8006624,9.62553328 29.9804878,9.76902248 29.9804878,9.98425628 L30.555929,15.8314413 C30.5918941,16.154292 30.8076846,16.4053981 31.1313702,16.4412704 C31.5629512,16.513015 31.9226019,16.1901643 31.9226019,15.795569 L31.9226019,10.0918732 C31.9226019,8.47761966 31.2752305,7.00685533 30.1962783,5.93068631 C30.8436496,5.536091 31.5989162,5.3208572 32.426113,5.2849849 C35.1234937,5.2132403 37.3892936,7.40145064 37.3892936,10.1277455 Z" id="Path" fill="#C2C2C2"></path>
                        <circle id="Oval" fill="#C2C2C2" cx="32.7156319" cy="2.23522951" r="2.23522951"></circle>
                        <path d="M7.28029515,10.1287286 C7.28029515,10.0569887 7.31529657,10.0211187 7.31529657,9.98524878 C7.28029515,10.0211187 7.28029515,10.0569887 7.28029515,10.1287286 L7.31529657,24.3691029 C7.31529657,24.7636724 7.03528521,25.122372 6.65026961,25.194112 C6.23025258,25.2299819 5.84523697,24.9430222 5.81023555,24.5125827 L5.07520575,17.015761 C5.07520575,16.8364112 4.90019866,16.6929314 4.72519156,16.6929314 C4.55018447,16.6929314 4.41017879,16.8364112 4.41017879,17.015761 L3.81515467,24.4767128 C3.78015325,24.8712823 3.46514048,25.194112 3.04512345,25.194112 L2.90511778,25.194112 C2.48510075,25.194112 2.13508656,24.8354124 2.13508656,24.4049728 L2.13508656,10.0928587 C2.13508656,9.91350886 1.99508088,9.77002902 1.82007379,9.77002902 C1.68006811,9.77002902 1.54006243,9.8776389 1.50506102,10.0569887 L1.05004257,14.8994333 C1.01504115,15.186393 0.805032636,15.4016128 0.525021285,15.4016128 C0.210008514,15.4016128 0,15.1505231 0,14.8635634 L0,10.2363385 C0,7.58196144 2.0300823,5.3580239 4.58518589,5.28628397 C5.56522562,5.25041401 6.44026109,5.5373737 7.21029231,6.00368318 C6.12524832,7.11565195 5.46022136,8.65806025 5.46022136,10.3080784 L5.46022136,15.9037922 C5.46022136,16.2624918 5.74023271,16.5853215 6.12524832,16.5853215 C6.47526251,16.5853215 6.75527386,16.3342318 6.75527386,15.9755322 L7.28029515,10.1287286 Z" id="Path" fill="#C2C2C2"></path>
                        <path d="M8.1281073,10.0663483 L8.1281073,10.9729448 L8.00618569,10.0038244 C8.00618569,9.87877656 7.88426408,9.78499071 7.72170193,9.75372875 C7.96554515,9.75372875 8.1281073,9.87877656 8.1281073,10.0663483 Z" id="Path" fill="#2B3B4E"></path>
                        <circle id="Oval" fill="#C2C2C2" cx="4.67366169" cy="2.23522951" r="2.23522951"></circle>
                    </g>
                    <path d="M22.6053131,12.6666667 C22.6293485,12.6666667 22.6533839,12.6856714 22.6774194,12.7046762 C22.6654016,12.7046762 22.6413662,12.6856714 22.6293485,12.6856714 C22.56926,12.6856714 22.5091714,12.7616904 22.5091714,12.8757189 L22.4731183,13.483871 L22.4731183,12.8757189 C22.4731183,12.7616904 22.5332068,12.6666667 22.6053131,12.6666667 Z" id="Path" fill="#FF7058"></path>
                    <path d="M32.0752688,13.1032299 L32.0752688,18.7075271 C32.0752688,19.0952458 31.7175432,19.4124702 31.2882725,19.3419758 C30.9663194,19.3067287 30.751684,19.0247515 30.7159115,18.7427743 L30.179323,12.9974885 C30.179323,12.8212527 30.0004602,12.6450169 29.8215974,12.6450169 C29.6069621,12.6450169 29.4280992,12.8212527 29.4280992,13.0327356 L29.4280992,29.9513687 C29.4280992,30.4095816 29.0703736,30.8677946 28.6053303,30.9030418 C28.0687419,30.9735361 27.6394712,30.5858174 27.567926,30.0923573 L26.673612,21.2100749 C26.6378394,20.998592 26.4947492,20.8576034 26.2801138,20.8576034 C26.0654784,20.8576034 25.8866156,21.0338392 25.8866156,21.2453221 L25.0996193,30.0923573 C25.0638467,30.5505702 24.634576,30.9382889 24.1695327,30.9382889 L23.9906698,30.9382889 C23.489854,30.9382889 23.0605832,30.5153231 23.0605832,30.021863 L23.0605832,13.4557014 L23.5971717,19.2009872 C23.6329442,19.5182116 23.8833522,19.8001888 24.2053052,19.8706831 C24.6703485,19.9411774 25.0280741,19.5887059 25.0280741,19.1657401 L25.0280741,13.1032299 C25.0280741,11.2351308 24.2053052,9.57851469 22.8817204,8.41535867 C23.7760345,7.78090993 24.8849839,7.39319126 26.0654784,7.35794411 C29.3923267,7.25220265 32.0752688,9.86049191 32.0752688,13.1032299 Z" id="Path" fill="#878787"></path>
                    <circle id="Oval" fill="#878787" cx="26.2526882" cy="3.77956989" r="2.55376344"></circle>
                    <path d="M12.4544161,13.2023861 L12.4544161,19.1533637 C12.4544161,19.5407054 12.7620602,19.8576214 13.1380695,19.8576214 L13.1380695,19.8576214 C13.4798962,19.8576214 13.7875403,19.5759183 13.8217229,19.2237894 L14.334463,13.4136634 L14.334463,29.9285065 C14.334463,30.386274 13.9926363,30.8440415 13.5482616,30.8792544 C13.0697042,30.9496801 12.6253295,30.5623384 12.5569641,30.069358 L11.6682147,21.195711 C11.634032,20.9844337 11.4631187,20.8435822 11.2922053,20.8435822 C11.0871093,20.8435822 10.916196,20.9844337 10.916196,21.195711 L10.1983599,30.069358 C10.1641772,30.5271255 9.75398519,30.9144673 9.30961048,30.9144673 L9.13869713,30.9144673 C8.66013974,30.9144673 8.2499477,30.4919126 8.2499477,29.9989322 L8.2499477,13.0263217 C8.2499477,12.8150444 8.07903435,12.63898 7.87393833,12.63898 C7.70302498,12.63898 7.53211163,12.7798315 7.53211163,12.9911088 L6.9851889,18.7308091 C6.95100623,19.0829379 6.67754487,19.3294281 6.36990084,19.3294281 L6.36990084,19.3294281 C6.02807414,19.3294281 5.72043011,19.047725 5.72043011,18.6603833 L5.72043011,13.2023861 C5.72043011,10.0684394 8.11321702,7.42747299 11.121292,7.35704722 C12.3860508,7.32183433 13.5482616,7.70917607 14.5053763,8.41343377 C13.2406175,9.57545897 12.4544161,11.3008903 12.4544161,13.2023861 Z" id="Path" fill="#878787"></path>
                    <path d="M7.55913978,12.6933146 C7.46833931,12.6933146 7.40023895,12.7643759 7.35483871,12.8709677 C7.37753883,12.7643759 7.44563919,12.657784 7.55913978,12.6933146 C7.53643967,12.657784 7.53643967,12.657784 7.55913978,12.6933146 Z" id="Path" fill="#84DBFF"></path>
                    <path d="M15.3225806,13.0009775 L15.3225806,13.8924731 L15.2144213,12.9731183 C15.2144213,12.8338221 15.0341556,12.6945259 14.8538899,12.6945259 C14.8178368,12.6945259 14.7457306,12.6945259 14.7096774,12.7223851 C14.7817837,12.6945259 14.8538899,12.6666667 14.9259962,12.6666667 C15.142315,12.6945259 15.3225806,12.8338221 15.3225806,13.0009775 Z" id="Path" fill="#84DBFF"></path>
                    <circle id="Oval" fill="#878787" cx="11.1344086" cy="3.77956989" r="2.55376344"></circle>
                    <g id="Group" transform="translate(12.666667, 0.000000)" fill="#DDDDDD">
                        <path d="M6.11159248,6.84388365 C2.70047109,6.9501162 0,9.81839505 0,13.2532475 L0,19.2376811 C0,19.6272005 0.31979263,19.9458981 0.710650288,19.9458981 L0.710650288,19.9458981 C1.06597543,19.9458981 1.38576806,19.6626113 1.42130058,19.3085028 L2.02535332,13.0407824 C2.06088584,12.8283173 2.20301589,12.6866739 2.41621098,12.6866739 C2.62940607,12.6866739 2.80706864,12.8637282 2.80706864,13.0761933 L2.80706864,31.5960678 C2.80706864,32.1626414 3.26899132,32.5875716 3.80197904,32.5875716 L4.01517413,32.5875716 C4.54816184,32.5875716 4.97455202,32.1980522 5.01008453,31.6668895 L5.82733236,21.9643166 C5.86286488,21.7518515 6.04052745,21.5747972 6.25372253,21.5747972 C6.46691762,21.5747972 6.68011271,21.7518515 6.68011271,21.9643166 L7.67502311,31.7023003 C7.74608814,32.2334631 8.24354334,32.6583933 8.77653106,32.5875716 C9.30951877,32.5167499 9.66484392,32.0564088 9.66484392,31.5252461 L9.66484392,13.0407824 C9.66484392,12.8283173 9.84250649,12.6512631 10.0557016,12.6512631 C10.2688967,12.6512631 10.4465592,12.7929065 10.4465592,13.0053716 L11.050612,19.273092 C11.0861445,19.5917896 11.3348721,19.8750764 11.6546647,19.9458981 C12.1165874,20.0167198 12.4719126,19.6626113 12.4719126,19.2376811 L12.4719126,13.1116041 C12.5785101,9.5705191 9.66484392,6.7376511 6.11159248,6.84388365 Z" id="Path"></path>
                        <path d="M2.41446725,12.4747475 C2.24200531,12.5513972 2.12703068,12.6663719 2.12703068,12.8196714 L2.01205604,13.2795699 L2.01205604,12.8579962 C2.01205604,12.7046967 2.18451799,12.5513972 2.41446725,12.4747475 Z" id="Path"></path>
                        <circle id="Oval" cx="6.23737374" cy="3.01808407" r="3.01808407"></circle>
                    </g>
                </g>
            </g>
        </g>
    </g>
</svg>