<?xml version="1.0" encoding="UTF-8"?>
<svg width="62px" height="62px" viewBox="0 0 62 62" version="1.1" xmlns="http://www.w3.org/2000/svg" xmlns:xlink="http://www.w3.org/1999/xlink">
    <!-- Generator: Sketch 56.3 (81716) - https://sketch.com -->
    <title>Group 6</title>
    <desc>Created with Sketch.</desc>
    <defs>
        <circle id="path-1" cx="27" cy="27" r="27"></circle>
        <filter x="-11.1%" y="-11.1%" width="122.2%" height="122.2%" filterUnits="objectBoundingBox" id="filter-2">
            <feOffset dx="0" dy="0" in="SourceAlpha" result="shadowOffsetOuter1"></feOffset>
            <feGaussianBlur stdDeviation="2" in="shadowOffsetOuter1" result="shadowBlurOuter1"></feGaussianBlur>
            <feColorMatrix values="0 0 0 0 0.0392156863   0 0 0 0 0.121568627   0 0 0 0 0.266666667  0 0 0 0.12 0" type="matrix" in="shadowBlurOuter1"></feColorMatrix>
        </filter>
        <path d="M21.9448242,5.2734375 L17.550293,5.2734375 L17.550293,0.87890625 C17.550293,0.386660156 17.1636328,0 16.6713867,0 L2.63671875,0 C1.17761719,0 5.68434189e-14,1.17767578 5.68434189e-14,2.63671875 L5.68434189e-14,27.3632812 C5.68434189e-14,28.822207 1.17761719,30 2.63671875,30 L20.1870117,30 C21.6461133,30 22.8237305,28.822207 22.8237305,27.3632812 L22.8237305,6.15234375 C22.8237305,5.66009766 22.4370703,5.2734375 21.9448242,5.2734375 Z" id="path-3"></path>
        <filter x="-26.3%" y="-20.0%" width="152.6%" height="140.0%" filterUnits="objectBoundingBox" id="filter-4">
            <feOffset dx="0" dy="0" in="SourceAlpha" result="shadowOffsetOuter1"></feOffset>
            <feGaussianBlur stdDeviation="2" in="shadowOffsetOuter1" result="shadowBlurOuter1"></feGaussianBlur>
            <feColorMatrix values="0 0 0 0 0.0392156863   0 0 0 0 0.121568627   0 0 0 0 0.266666667  0 0 0 0.1 0" type="matrix" in="shadowBlurOuter1"></feColorMatrix>
        </filter>
    </defs>
    <g id="DESIGN--v3" stroke="none" stroke-width="1" fill="none" fill-rule="evenodd">
        <g id="Artboard" transform="translate(-426.000000, -23.000000)">
            <g id="Group-6" transform="translate(430.000000, 27.000000)">
                <g id="Group-2">
                    <g id="Group-12">
                        <g id="Group-8">
                            <g id="Oval">
                                <use fill="black" fill-opacity="1" filter="url(#filter-2)" xlink:href="#path-1"></use>
                                <use fill="#EDEDED" fill-rule="evenodd" xlink:href="#path-1"></use>
                            </g>
                        </g>
                    </g>
                </g>
                <g id="Group-15" transform="translate(15.000000, 11.000000)" fill-rule="nonzero">
                    <g id="Group-14">
                        <g id="Path">
                            <use fill="black" fill-opacity="1" filter="url(#filter-4)" xlink:href="#path-3"></use>
                            <use fill="#FFFFFF" xlink:href="#path-3"></use>
                        </g>
                        <path d="M22.8237305,6.15234375 L22.8237305,27.3632812 C22.8237305,28.822207 21.6461133,30 20.1870117,30 L11.3979492,30 L11.3979492,0 L16.6713867,0 C17.1636328,0 17.550293,0.386660156 17.550293,0.87890625 L17.550293,5.2734375 L21.9448242,5.2734375 C22.4370703,5.2734375 22.8237305,5.66009766 22.8237305,6.15234375 Z" id="Path" fill="#FFFFFF"></path>
                        <path d="M22.8237305,7.03125 L16.6713867,7.03125 C16.1855859,7.03125 15.7924805,6.63814453 15.7924805,6.15234375 L15.7924805,0 L17.7082031,0 C18.3982617,0 19.0746094,0.279785156 19.562168,0.768164062 L22.0563867,3.26326172 C22.5438867,3.75251953 22.8237305,4.42710937 22.8237305,5.11546875 L22.8237305,7.03125 Z" id="Path" fill="#DBDBDB"></path>
                        <path d="M29.2222266,9.421875 C28.2379688,8.41992187 26.4801563,8.41992187 25.4956641,9.421875 L24.5991797,10.3359961 L23.9663672,10.9511719 C23.6146875,11.2851562 23.6146875,11.8476562 23.9663672,12.1816406 L25.2143555,13.4297461 L26.4625195,14.6777344 C26.7788086,15.0292969 27.3766406,15.0292969 27.6929297,14.6777344 L28.3257422,14.0625586 L29.2222266,13.1484375 C30.2592773,12.1640039 30.2592773,10.4061914 29.2222266,9.421875 Z" id="Path" fill="#909090"></path>
                        <path d="M19.2025781,19.4414062 L17.3919727,17.6308008 C17.3569922,17.5957031 17.3217773,17.5957031 17.2866211,17.6308008 L17.2340625,17.6660156 C17.1284766,17.7714844 17.0581055,17.8945312 17.0228906,18.0175781 L15.7749023,21.7617187 C15.6517383,22.1132227 15.7573242,22.447207 15.9858398,22.6582031 L15.9858398,22.6756641 C16.2319336,22.9041797 16.5658594,22.9920703 16.8823242,22.869082 L20.6264648,21.6209766 C20.7496289,21.5857617 20.8725586,21.5155078 20.9779688,21.4100391 L21.0131836,21.3748242 C21.0483984,21.3397266 21.0483984,21.3045703 21.0131836,21.2693555 C20.4331641,20.671875 19.8003516,20.0390039 19.2025781,19.4414062 Z" id="Path" fill="#DBDBDB"></path>
                        <path d="M16.6713867,10.546875 L4.39453125,10.546875 C3.23455078,10.546875 3.23455078,8.7890625 4.39453125,8.7890625 L16.6713867,8.7890625 C17.8314258,8.7890625 17.8314258,10.546875 16.6713867,10.546875 Z" id="Path" fill="#DBDBDB"></path>
                        <path d="M13.1557617,14.0625 L4.39453125,14.0625 C3.23455078,14.0625 3.23455078,12.3046875 4.39453125,12.3046875 L13.1557617,12.3046875 C14.3158008,12.3046875 14.3158008,14.0625 13.1557617,14.0625 Z" id="Path" fill="#DBDBDB"></path>
                        <path d="M13.1557617,17.578125 L4.39453125,17.578125 C3.23455078,17.578125 3.23455078,15.8203125 4.39453125,15.8203125 L13.1557617,15.8203125 C14.3158008,15.8203125 14.3158008,17.578125 13.1557617,17.578125 Z" id="Path" fill="#DBDBDB"></path>
                        <path d="M13.1557617,21.09375 L4.39453125,21.09375 C3.23455078,21.09375 3.23455078,19.3359375 4.39453125,19.3359375 L13.1557617,19.3359375 C14.3158008,19.3359375 14.3158008,21.09375 13.1557617,21.09375 Z" id="Path" fill="#DBDBDB"></path>
                        <path d="M16.6713867,26.484375 L11.3979492,26.484375 C10.2379688,26.484375 10.2379688,24.7265625 11.3979492,24.7265625 L16.6713867,24.7265625 C17.8314258,24.7265625 17.8314258,26.484375 16.6713867,26.484375 Z" id="Path" fill="#DBDBDB"></path>
                        <path d="M28.3256836,14.0625 L27.6928711,14.6776758 C24.2124609,18.140625 25.3724414,16.9804102 22.2434766,20.109375 C22.2434766,20.1444727 20.9954883,21.3925195 20.9779102,21.4101563 C20.8725586,21.515625 20.7496289,21.5858789 20.6264063,21.6210938 L17.022832,18.0175781 C17.0580469,17.8945312 17.128418,17.7714844 17.2340039,17.6660156 C17.251582,17.6484375 18.4995703,16.400332 18.5347852,16.400332 C20.8198242,14.1151758 19.6947656,15.2578125 23.9663672,10.9511719 L24.581543,10.3183594 L28.3256836,14.0625 Z" id="Path" fill="#C0C0C0"></path>
                        <g id="Group" transform="translate(11.367188, 8.789062)" fill="#DBDBDB">
                            <path d="M1.78857422,12.3046875 L0.0307617188,12.3046875 L0.0307617188,10.546875 L1.78857422,10.546875 C2.94861328,10.546875 2.94861328,12.3046875 1.78857422,12.3046875 Z" id="Path"></path>
                            <path d="M1.78857422,8.7890625 L0.0307617188,8.7890625 L0.0307617188,7.03125 L1.78857422,7.03125 C2.94861328,7.03125 2.94861328,8.7890625 1.78857422,8.7890625 Z" id="Path"></path>
                            <path d="M1.78857422,5.2734375 L0.0307617188,5.2734375 L0.0307617188,3.515625 L1.78857422,3.515625 C2.94861328,3.515625 2.94861328,5.2734375 1.78857422,5.2734375 Z" id="Path"></path>
                            <path d="M5.30419922,17.6953125 L0.0307617187,17.6953125 L0.0307617187,15.9375 L5.30419922,15.9375 C6.46423828,15.9375 6.46423828,17.6953125 5.30419922,17.6953125 Z" id="Path"></path>
                            <path d="M5.30419922,1.7578125 L0.0307617187,1.7578125 L0.0307617187,0 L5.30419922,0 C6.46423828,0 6.46423828,1.7578125 5.30419922,1.7578125 Z" id="Path"></path>
                        </g>
                    </g>
                </g>
            </g>
        </g>
    </g>
</svg>