<?xml version="1.0" encoding="UTF-8"?>
<svg width="62px" height="62px" viewBox="0 0 62 62" version="1.1" xmlns="http://www.w3.org/2000/svg" xmlns:xlink="http://www.w3.org/1999/xlink">
    <!-- Generator: Sketch 56.3 (81716) - https://sketch.com -->
    <title>Group 10</title>
    <desc>Created with Sketch.</desc>
    <defs>
        <circle id="path-1" cx="27" cy="27" r="27"></circle>
        <filter x="-11.1%" y="-11.1%" width="122.2%" height="122.2%" filterUnits="objectBoundingBox" id="filter-2">
            <feOffset dx="0" dy="0" in="SourceAlpha" result="shadowOffsetOuter1"></feOffset>
            <feGaussianBlur stdDeviation="2" in="shadowOffsetOuter1" result="shadowBlurOuter1"></feGaussianBlur>
            <feColorMatrix values="0 0 0 0 0.0392156863   0 0 0 0 0.121568627   0 0 0 0 0.266666667  0 0 0 0.12 0" type="matrix" in="shadowBlurOuter1"></feColorMatrix>
        </filter>
        <filter x="-40.7%" y="-36.7%" width="181.5%" height="173.3%" filterUnits="objectBoundingBox" id="filter-3">
            <feOffset dx="0" dy="0" in="SourceAlpha" result="shadowOffsetOuter1"></feOffset>
            <feGaussianBlur stdDeviation="2" in="shadowOffsetOuter1" result="shadowBlurOuter1"></feGaussianBlur>
            <feColorMatrix values="0 0 0 0 0.0392156863   0 0 0 0 0.121568627   0 0 0 0 0.266666667  0 0 0 0.12 0" type="matrix" in="shadowBlurOuter1" result="shadowMatrixOuter1"></feColorMatrix>
            <feMerge>
                <feMergeNode in="shadowMatrixOuter1"></feMergeNode>
                <feMergeNode in="SourceGraphic"></feMergeNode>
            </feMerge>
        </filter>
        <filter x="-14.8%" y="-13.3%" width="129.6%" height="126.7%" filterUnits="objectBoundingBox" id="filter-4">
            <feOffset dx="0" dy="0" in="SourceAlpha" result="shadowOffsetOuter1"></feOffset>
            <feGaussianBlur stdDeviation="1" in="shadowOffsetOuter1" result="shadowBlurOuter1"></feGaussianBlur>
            <feColorMatrix values="0 0 0 0 0.0392156863   0 0 0 0 0.121568627   0 0 0 0 0.266666667  0 0 0 0.1 0" type="matrix" in="shadowBlurOuter1" result="shadowMatrixOuter1"></feColorMatrix>
            <feMerge>
                <feMergeNode in="shadowMatrixOuter1"></feMergeNode>
                <feMergeNode in="SourceGraphic"></feMergeNode>
            </feMerge>
        </filter>
    </defs>
    <g id="DESIGN--v3" stroke="none" stroke-width="1" fill="none" fill-rule="evenodd">
        <g id="Artboard" transform="translate(-533.000000, -24.000000)">
            <g id="Group-10" transform="translate(537.000000, 28.000000)">
                <g id="Group-2">
                    <g id="Group-12">
                        <g id="Group-8">
                            <g id="Oval">
                                <use fill="black" fill-opacity="1" filter="url(#filter-2)" xlink:href="#path-1"></use>
                                <use fill="#EDEDED" fill-rule="evenodd" xlink:href="#path-1"></use>
                            </g>
                        </g>
                    </g>
                </g>
                <g id="Group-20" filter="url(#filter-3)" transform="translate(14.000000, 14.000000)" fill-rule="nonzero">
                    <g id="Group-16" filter="url(#filter-4)">
                        <path d="M20.7321429,22.6833977 L19.7678571,22.6833977 L7.23214286,22.6833977 L6.26785714,22.6833977 C5.7375,22.6833977 5.30357143,23.1177606 5.30357143,23.6486486 L5.30357143,28.957529 C5.30357143,29.488417 5.7375,29.9227799 6.26785714,29.9227799 L20.7321429,29.9227799 C21.2625,29.9227799 21.6964286,29.488417 21.6964286,28.957529 L21.6964286,23.6486486 C21.6964286,23.1177606 21.2625,22.6833977 20.7321429,22.6833977 Z" id="Path" fill="#FFFFFF"></path>
                        <path d="M14.4642857,16.3513514 L14.4642857,21.2355212 L12.5357143,21.2355212 L12.5357143,16.3561776 L12.5357143,16.3513514 C12.8491071,16.3899614 13.1721429,16.4092664 13.5,16.4092664 C13.8278571,16.4092664 14.1508929,16.3899614 14.4642857,16.3513514 Z" id="Path" fill="#FFFFFF"></path>
                        <path d="M19.7678571,22.2007722 L19.7678571,22.6833977 L7.23214286,22.6833977 L7.23214286,22.2007722 C7.23214286,21.6650579 7.66125,21.2355212 8.19642857,21.2355212 L12.5357143,21.2355212 L14.4642857,21.2355212 L18.8035714,21.2355212 C19.33875,21.2355212 19.7678571,21.6650579 19.7678571,22.2007722 Z" id="Path" fill="#EEEEEE"></path>
                        <path d="M17.8392857,25.5791506 L17.8392857,27.027027 C17.5741071,27.027027 17.3571429,27.2442085 17.3571429,27.5096525 L9.64285714,27.5096525 C9.64285714,27.2442085 9.42589286,27.027027 9.16071429,27.027027 L9.16071429,25.5791506 C9.42589286,25.5791506 9.64285714,25.3619691 9.64285714,25.0965251 L17.3571429,25.0965251 C17.3571429,25.3619691 17.5741071,25.5791506 17.8392857,25.5791506 Z" id="Path" fill="#A6A6A6"></path>
                        <path d="M5.53017857,10.1399614 C5.65601786,10.6418919 5.81994643,11.1293436 6.03160714,11.5878378 L5.30357143,11.5878378 C2.37214286,11.5878378 0.00482142857,9.21814672 -3.55271368e-14,6.27895753 L-3.55271368e-14,6.27413127 L-3.55271368e-14,2.89527027 L0.481660714,2.41312741 L5.30357143,2.41312741 L5.30357143,3.86100386 L1.44642857,3.86100386 L1.44642857,6.27413127 L1.44642857,6.27895753 C1.45125,8.41747104 3.1725,10.1399614 5.30357143,10.1399614 L5.53017857,10.1399614 Z" id="Path" fill="#FFFFFF"></path>
                        <path d="M27,2.89527027 L27,6.27413127 L27,6.27895753 C26.9951786,9.21814672 24.6278571,11.5878378 21.6964286,11.5878378 L20.9683929,11.5878378 C21.1800536,11.1293436 21.3439821,10.6418919 21.4698214,10.1399614 L21.6964286,10.1399614 C23.8275,10.1399614 25.54875,8.41747104 25.5535714,6.27895753 L25.5535714,6.27413127 L25.5535714,3.86100386 L21.6964286,3.86100386 L21.6964286,2.41312741 L26.517375,2.41312741 L27,2.89527027 Z" id="Path" fill="#FFFFFF"></path>
                        <path d="M21.6964286,3.86100386 L21.6964286,8.2046332 C21.6964286,8.87065637 21.6192857,9.51737452 21.4698214,10.1399614 C21.3439821,10.6418919 21.1800536,11.1293436 20.9683929,11.5878378 C19.8064286,14.1505792 17.3667857,16.0135135 14.4642857,16.3513514 C14.1508929,16.3899614 13.8278571,16.4092664 13.5,16.4092664 C13.1721429,16.4092664 12.8491071,16.3899614 12.5357143,16.3513514 C9.63321429,16.0135135 7.19357143,14.1505792 6.03160714,11.5878378 C5.81994643,11.1293436 5.65601786,10.6418919 5.53017857,10.1399614 C5.38071429,9.51737452 5.30357143,8.87065637 5.30357143,8.2046332 L5.30357143,3.86100386 L5.30357143,2.41312741 L5.30357143,0.482625483 L5.78571429,2.84217094e-14 L21.2138036,2.84217094e-14 L21.6964286,0.482625483 L21.6964286,2.41312741 L21.6964286,3.86100386 Z M16.875,8.20945946 L16.875,6.75675676 C16.875,4.88899614 15.3658929,3.37837838 13.5,3.37837838 C11.6341071,3.37837838 10.125,4.88899614 10.125,6.75675676 L10.125,8.20945946 C10.125,10.0723938 11.6341071,11.5878378 13.5,11.5878378 C15.3658929,11.5878378 16.875,10.0723938 16.875,8.20945946 Z" id="Shape" fill="#FFFFFF"></path>
                        <path d="M16.875,8.20945946 C16.875,10.0723938 15.3658929,11.5878378 13.5,11.5878378 C11.6341071,11.5878378 10.125,10.0723938 10.125,8.20945946 L10.125,6.75675676 C10.125,8.62451737 11.6341071,10.1351351 13.5,10.1351351 C15.3658929,10.1351351 16.875,8.62451737 16.875,6.75675676 L16.875,8.20945946 Z" id="Path" stroke="#FFFFFF" fill="#DBDBDB"></path>
                        <path d="M13.5,3.37837838 C11.6341071,3.37837838 10.125,4.88899614 10.125,6.75675676 C10.125,8.62451737 11.6341071,10.1351351 13.5,10.1351351 C15.3658929,10.1351351 16.875,8.62451737 16.875,6.75675676 C16.875,4.88899614 15.3658929,3.37837838 13.5,3.37837838 Z" id="Path" stroke="#B0B0B0" fill="#B0B0B0"></path>
                        <polygon id="Path" fill="#EEEEEE" points="15.01875 6.41409266 14.2617857 7.15733591 14.4401786 8.2046332 13.5 7.71235521 12.5598214 8.2046332 12.7382143 7.15733591 11.98125 6.41409266 13.0275 6.25965251 13.5 5.30888031 13.9725 6.25965251"></polygon>
                        <ellipse id="Oval" fill="#FFFFFF" cx="5.78571429" cy="0.482625483" rx="1" ry="1"></ellipse>
                        <ellipse id="Oval" fill="#FFFFFF" cx="26.5178571" cy="2.8957529" rx="1" ry="1"></ellipse>
                        <ellipse id="Oval" fill="#FFFFFF" cx="21.2142857" cy="0.482625483" rx="1" ry="1"></ellipse>
                        <ellipse id="Oval" fill="#FFFFFF" cx="0.482142857" cy="2.8957529" rx="1" ry="1"></ellipse>
                    </g>
                </g>
            </g>
        </g>
    </g>
</svg>