<?xml version="1.0" encoding="UTF-8"?>
<svg width="62px" height="62px" viewBox="0 0 62 62" version="1.1" xmlns="http://www.w3.org/2000/svg" xmlns:xlink="http://www.w3.org/1999/xlink">
    <!-- Generator: Sketch 56.3 (81716) - https://sketch.com -->
    <title>Group 4</title>
    <desc>Created with Sketch.</desc>
    <defs>
        <circle id="path-1" cx="27" cy="27" r="27"></circle>
        <filter x="-11.1%" y="-11.1%" width="122.2%" height="122.2%" filterUnits="objectBoundingBox" id="filter-2">
            <feOffset dx="0" dy="0" in="SourceAlpha" result="shadowOffsetOuter1"></feOffset>
            <feGaussianBlur stdDeviation="2" in="shadowOffsetOuter1" result="shadowBlurOuter1"></feGaussianBlur>
            <feColorMatrix values="0 0 0 0 0.0392156863   0 0 0 0 0.121568627   0 0 0 0 0.266666667  0 0 0 0.12 0" type="matrix" in="shadowBlurOuter1"></feColorMatrix>
        </filter>
        <path d="M26.943952,13 L9.44694972,30.3142902 C8.85101676,30.8991764 8.85101676,31.8479127 9.44694972,32.4333915 L21.8039548,44.5613354 C22.3998877,45.1462215 23.3665429,45.1462215 23.9630797,44.5613354 L41,27.3880815 L41,13 L26.943952,13 Z M34.9621787,21.2962579 C33.628424,21.2962579 32.5470502,20.2349295 32.5470502,18.9258985 C32.5470502,17.6168675 33.628424,16.5555391 34.9621787,16.5555391 C36.2959334,16.5555391 37.3773072,17.6168675 37.3773072,18.9258985 C37.3773072,20.2349295 36.2959334,21.2962579 34.9621787,21.2962579 Z" id="path-3"></path>
        <filter x="-9.4%" y="-9.4%" width="118.8%" height="118.8%" filterUnits="objectBoundingBox" id="filter-4">
            <feOffset dx="0" dy="0" in="SourceAlpha" result="shadowOffsetOuter1"></feOffset>
            <feGaussianBlur stdDeviation="1" in="shadowOffsetOuter1" result="shadowBlurOuter1"></feGaussianBlur>
            <feColorMatrix values="0 0 0 0 0.0392156863   0 0 0 0 0.121568627   0 0 0 0 0.266666667  0 0 0 0.12 0" type="matrix" in="shadowBlurOuter1"></feColorMatrix>
        </filter>
    </defs>
    <g id="DESIGN--v3" stroke="none" stroke-width="1" fill="none" fill-rule="evenodd">
        <g id="Artboard" transform="translate(-339.000000, -23.000000)">
            <g id="Group-4" transform="translate(343.000000, 27.000000)">
                <g id="Group-2">
                    <g id="Group-12">
                        <g id="Group-8">
                            <g id="Oval">
                                <use fill="black" fill-opacity="1" filter="url(#filter-2)" xlink:href="#path-1"></use>
                                <use fill="#EDEDED" fill-rule="evenodd" xlink:href="#path-1"></use>
                            </g>
                        </g>
                    </g>
                    <g id="Shape" fill-rule="nonzero">
                        <use fill="black" fill-opacity="1" filter="url(#filter-4)" xlink:href="#path-3"></use>
                        <use fill="#FFFFFF" xlink:href="#path-3"></use>
                    </g>
                    <path d="M35,14 C32.23875,14 30,16.23875 30,19 C30,21.76125 32.23875,24 35,24 C37.76125,24 40,21.76125 40,19 C40,16.23875 37.76125,14 35,14 Z M35,21.5 C33.619375,21.5 32.5,20.380625 32.5,19 C32.5,17.619375 33.619375,16.5 35,16.5 C36.380625,16.5 37.5,17.619375 37.5,19 C37.5,20.380625 36.380625,21.5 35,21.5 Z" id="Shape" fill="#DBDBDB" fill-rule="nonzero"></path>
                    <path d="M34.6251367,20 C34.4651417,20 34.3051467,19.938751 34.1832755,19.8168779 C33.9389082,19.5725067 33.9389082,19.1775129 34.1832755,18.9331417 L42.9330021,10.1832784 C43.1773695,9.9389072 43.5723571,9.9389072 43.8167245,10.1832784 C44.0610918,10.4276496 44.0610918,10.8226434 43.8167245,11.0670146 L35.0669979,19.8168779 C34.9451267,19.938751 34.7851317,20 34.6251367,20 Z" id="Path" fill="#FFFFFF" fill-rule="nonzero"></path>
                    <text id="£" transform="translate(23.374357, 30.481766) rotate(43.000000) translate(-23.374357, -30.481766) " font-family="EYInterstate-Light, EYInterstate" font-size="18" font-weight="300" fill="#DBDBDB">
                        <tspan x="17.7950035" y="36.9817659">£</tspan>
                    </text>
                </g>
                <g id="Group-17" transform="translate(25.000000, 34.000000)">
                    <g id="Group-7">
                        <circle id="Oval" fill="#B0B0B0" cx="6" cy="6" r="6"></circle>
                        <path d="M8.90310624,4.32215519 C8.93051187,4.47263284 8.77766306,4.5845239 8.67181718,4.54980601 C8.58954931,4.53438142 7.45811097,4.15489641 7.41891635,4.14720924 C7.34838645,4.13178465 7.29352419,4.08159195 7.26999722,4.01602489 C7.25039991,3.9465389 7.26999722,3.87323443 7.32092981,3.82309195 L7.54696231,3.59669722 C7.09622421,3.19153805 6.48345108,2.93173174 5.82893161,2.93173174 C4.42573371,2.93173174 3.26821666,4.07129214 3.26821666,5.45272211 C3.26821666,5.54531987 3.27607599,5.64952375 3.28781397,5.7575461 C3.2956733,5.81929469 3.27214632,5.87717457 3.22509237,5.91957962 C3.18201912,5.96203491 3.11536786,5.9813282 3.05657593,5.96977233 L2.65284077,5.88873045 C2.56664322,5.87330586 2.50392163,5.8038701 2.49611333,5.71895951 C2.48825399,5.65334221 2.48432432,5.56848187 2.48432432,5.46040928 C2.48432432,5.45659081 2.48432432,5.45659081 2.48432432,5.45272211 C2.48432432,3.64302121 3.99071429,2.16 5.82893161,2.16 C6.69902148,2.16 7.51169735,2.50471689 8.10354627,3.04874758 L8.29558969,2.86355206 C8.34652228,2.81340959 8.42103288,2.7941163 8.4876331,2.81340959 C8.55821404,2.83270288 8.60521695,2.88671406 8.62481426,2.95614983 C8.62481426,2.95614983 8.89524691,4.28351837 8.90310624,4.32215519 L8.90310624,4.32215519 Z" id="Path" fill="#FFFFFF" fill-rule="nonzero"></path>
                        <path d="M9.43135135,6.45172743 L9.43135135,6.46333223 C9.43135135,8.27282501 7.92498277,9.75567568 6.08679156,9.75567568 C5.21278442,9.75567568 4.40012009,9.41099843 3.80827957,8.86698007 L3.6201685,9.05220452 C3.57704483,9.09847297 3.51044554,9.1216323 3.42812781,9.10234123 C3.35759891,9.08305015 3.30661602,9.02517693 3.2909486,8.95574915 C3.27528118,8.87471659 3.02051979,7.63235128 3.01266057,7.59376913 C3.00092276,7.53202763 3.02051979,7.46259986 3.06752205,7.42014945 C3.11064572,7.37388101 3.17336642,7.35458993 3.24001673,7.36614449 C3.24001673,7.36614449 4.45763533,7.76095844 4.49682939,7.76869496 C4.56735829,7.78411778 4.62221977,7.8343047 4.64574641,7.89991446 C4.66534344,7.96934223 4.64574641,8.04263827 4.59481454,8.09282521 L4.36878525,8.31527542 C4.81951694,8.72425625 5.43228137,8.98403268 6.08679156,8.98403268 C7.48996953,8.98403268 8.64747015,7.8445531 8.64747015,6.46333223 C8.64747015,6.37843141 8.63961093,6.27042148 8.62787312,6.15854329 C8.6200139,6.0968018 8.64354054,6.03506032 8.69059382,5.99260991 C8.73366646,5.95015949 8.80031678,5.93473668 8.85910787,5.94634146 L9.2628373,6.02737402 C9.34903362,6.04279684 9.41175432,6.11222462 9.41956251,6.19712544 C9.42742174,6.28197603 9.43135135,6.36687685 9.43135135,6.45172743 L9.43135135,6.45172743 Z" id="Path" fill="#FFFFFF" fill-rule="nonzero"></path>
                    </g>
                    <g id="refresh" transform="translate(3.000000, 2.000000)"></g>
                </g>
            </g>
        </g>
    </g>
</svg>