<?xml version="1.0" encoding="UTF-8"?>
<svg width="48px" height="48px" viewBox="0 0 48 48" version="1.1" xmlns="http://www.w3.org/2000/svg" xmlns:xlink="http://www.w3.org/1999/xlink">
    <!-- Generator: Sketch 56.3 (81716) - https://sketch.com -->
    <title>Group 2</title>
    <desc>Created with Sketch.</desc>
    <defs>
        <circle id="path-1" cx="20" cy="20" r="20"></circle>
        <filter x="-15.0%" y="-15.0%" width="130.0%" height="130.0%" filterUnits="objectBoundingBox" id="filter-2">
            <feOffset dx="0" dy="0" in="SourceAlpha" result="shadowOffsetOuter1"></feOffset>
            <feGaussianBlur stdDeviation="2" in="shadowOffsetOuter1" result="shadowBlurOuter1"></feGaussianBlur>
            <feColorMatrix values="0 0 0 0 0.0392156863   0 0 0 0 0.121568627   0 0 0 0 0.266666667  0 0 0 0.12 0" type="matrix" in="shadowBlurOuter1"></feColorMatrix>
        </filter>
    </defs>
    <g id="DESIGN--v3" stroke="none" stroke-width="1" fill="none" fill-rule="evenodd">
        <g id="7.1-Guidance" transform="translate(-980.000000, -761.000000)">
            <g id="Group-2" transform="translate(984.000000, 765.000000)">
                <g id="Group-7">
                    <g id="Group-6-Copy-2">
                        <g id="Group-8">
                            <g id="Oval">
                                <use fill="black" fill-opacity="1" filter="url(#filter-2)" xlink:href="#path-1"></use>
                                <use fill="#EDEDED" fill-rule="evenodd" xlink:href="#path-1"></use>
                            </g>
                        </g>
                    </g>
                    <g id="Group" transform="translate(9.000000, 8.000000)" fill="#71D456" fill-rule="nonzero">
                        <path d="M11.027347,19.0176974 L8.54139589,21.4972744 C6.59674293,23.436941 3.42912853,23.436941 1.48447558,21.4972744 C-0.460177378,19.5576077 -0.460177378,16.3981154 1.48447558,14.4584487 L3.97042674,11.9788718 C5.91507969,10.0392051 9.08269409,10.0392051 11.027347,11.9788718 C12.972,13.9185974 12.972,17.0780308 11.027347,19.0176974 Z M3.20864781,16.1582077 C2.20622622,17.158059 2.20622622,18.7577385 3.20864781,19.7575897 C4.21106941,20.757441 5.81486118,20.757441 6.81728278,19.7575897 L9.30323393,17.2780128 C10.3056555,16.2781615 10.3056555,14.6784821 9.30323393,13.6786308 C8.30081234,12.6787795 6.69702057,12.6787795 5.69459897,13.6786308 L3.20864781,16.1582077 Z" id="Shape"></path>
                        <path d="M21.5324936,8.51949487 L19.0465424,10.9990718 C17.1018895,12.9387385 13.9342751,12.9387385 11.9896221,10.9990718 C10.0449692,9.05940513 10.0449692,5.89991282 11.9896221,3.96024615 L14.4755733,1.48066923 C16.4202262,-0.458997436 19.5878406,-0.458997436 21.5324936,1.48066923 C23.4771465,3.4203359 23.4771465,6.57982821 21.5324936,8.51949487 Z M13.733838,5.66000513 C12.7314165,6.65985641 12.7314165,8.2595359 13.733838,9.25938718 C14.7362596,10.2592385 16.3400514,10.2592385 17.342473,9.25938718 L19.8284242,6.77981026 C20.8308458,5.77995897 20.8308458,4.18027949 19.8284242,3.18042821 C18.8260026,2.18057692 17.2222108,2.18057692 16.2197892,3.18042821 L13.733838,5.66000513 Z" id="Shape"></path>
                    </g>
                </g>
                <path d="M24.6529874,17.1188181 L18.1074919,23.6367613 C17.6211264,24.1210796 16.8510575,24.1210796 16.3647518,23.6367613 C15.878446,23.152443 15.8783862,22.3856752 16.3647518,21.9013569 L22.8899272,15.3632387 C23.3762927,14.8789204 24.1463616,14.8789204 24.6326674,15.3632387 C25.1189731,15.847557 25.1190329,16.6344998 24.6529874,17.1188181 Z" id="Path" fill="#B2CEAB" fill-rule="nonzero"></path>
            </g>
        </g>
    </g>
</svg>