<?xml version="1.0" encoding="UTF-8"?>
<svg width="62px" height="62px" viewBox="0 0 62 62" version="1.1" xmlns="http://www.w3.org/2000/svg" xmlns:xlink="http://www.w3.org/1999/xlink">
    <!-- Generator: Sketch 56.3 (81716) - https://sketch.com -->
    <title>Path + Path + Path + Path + Path + Path + Path + Path + Path + Path + Path + Group + Path + Path + Path + Path Mask</title>
    <desc>Created with Sketch.</desc>
    <defs>
        <path d="M23,0 C35.7017941,0 46,10.2982059 46,23 C46,35.7003157 35.7017941,46 23,46 C10.2982059,46 0,35.7016298 0,23 C0,10.2983702 10.2967275,0 23,0 Z" id="path-1"></path>
        <filter x="-26.1%" y="-26.1%" width="152.2%" height="152.2%" filterUnits="objectBoundingBox" id="filter-2">
            <feOffset dx="0" dy="0" in="SourceAlpha" result="shadowOffsetOuter1"></feOffset>
            <feGaussianBlur stdDeviation="4" in="shadowOffsetOuter1" result="shadowBlurOuter1"></feGaussianBlur>
            <feColorMatrix values="0 0 0 0 0.0392156863   0 0 0 0 0.121568627   0 0 0 0 0.266666667  0 0 0 0.12 0" type="matrix" in="shadowBlurOuter1"></feColorMatrix>
        </filter>
    </defs>
    <g id="DESIGN--v3" stroke="none" stroke-width="1" fill="none" fill-rule="evenodd">
        <g id="6.1-Policy" transform="translate(-29.000000, -1815.000000)" fill-rule="nonzero">
            <g id="Group-4" transform="translate(37.000000, 1823.000000)">
                <g id="Path-+-Path-+-Path-+-Path-+-Path-+-Path-+-Path-+-Path-+-Path-+-Path-+-Path-+-Group-+-Path-+-Path-+-Path-+-Path-Mask">
                    <g id="Mask">
                        <g id="Path">
                            <use fill="black" fill-opacity="1" filter="url(#filter-2)" xlink:href="#path-1"></use>
                            <use fill="#EBEBEB" xlink:href="#path-1"></use>
                        </g>
                    </g>
                    <path d="M34.8156772,30.6290874 L27.0008515,29.6017868 C26.0414778,29.4756963 25.3227203,28.6365689 25.3227203,27.6426678 L25.3227203,24 L19.6772797,24 L19.6772797,27.6426678 C19.6772797,28.6365689 18.9585222,29.4756963 17.9991485,29.6017868 L10.1843228,30.6290874 C7.79211712,30.9435437 6,33.0358759 6,35.5141797 L6,39.2370256 C10.2985897,43.4282352 16.1069074,46 22.5000468,46 C28.8931863,46 34.701504,43.4282352 39,39.2370256 L39,35.5141797 C39,33.0358759 37.2079765,30.9435437 34.8156772,30.6290874 Z" id="Path" fill="#FFC776"></path>
                    <path d="M34.9435686,30.6290584 L27.3675985,29.6017623 C26.4375475,29.4756723 25.7407584,28.6365486 25.7407584,27.6426518 L25.7407584,24 L23,24 L23,46 C23.0014528,46 23.0029056,46 23.0043583,46 C29.2020952,46 34.832885,43.4282464 39,39.2370552 L39,35.5142256 C39,33.0358363 37.2627487,30.9435133 34.9435686,30.6290584 Z" id="Path" fill="#FFBB61"></path>
                    <path d="M27.0547676,25.4981086 L25.738885,26.1958712 C23.7168872,27.2680429 21.2832057,27.2680429 19.2612079,26.1958712 L17.9453253,25.4981086 C15.5153602,24.2095444 14,21.7111041 14,18.9931605 L14,11 L31,11 L31,18.9931605 C31,21.7111041 29.4847327,24.2095444 27.0547676,25.4981086 Z" id="Path" fill="#FED080"></path>
                    <path d="M29.9999236,11 L23,11 L23,27 C23.9201846,27.0028142 24.8409036,26.7349965 25.6761023,26.1960672 L26.7575539,25.4982956 C28.7546087,24.2097148 30,21.7112423 30,18.9932637 L29.9999236,11 L29.9999236,11 Z" id="Path" fill="#FFC776"></path>
                    <path d="M34.8156653,30.856579 L28.2016536,30 C26.7756548,31.5400973 24.7494721,32.503642 22.5,32.503642 C20.2505279,32.503642 18.2242516,31.5400973 16.7983464,30 L10.1843347,30.856579 C7.7921222,31.1663812 6,33.2277466 6,35.6693712 L6,39.3371185 C10.2985082,43.4662976 16.1068424,46 22.5,46 C28.8931576,46 34.7014918,43.4662976 39,39.3371185 L39,35.6693712 C39,33.2277466 37.2079715,31.1663812 34.8156653,30.856579 Z" id="Path" fill="#283592"></path>
                    <path d="M23,46 C29.1994255,46 34.8317496,43.4662976 39,39.3371185 L39,35.6693712 C39,33.2276518 37.2621845,31.1663812 34.9424634,30.856579 L28.5288762,30 C27.1460895,31.5400973 25.1813063,32.503642 23,32.503642 L23,46 L23,46 Z" id="Path" fill="#1A237E"></path>
                    <path d="M22.572015,32.7810002 C20.3774097,32.6599767 18.4113783,31.613928 17.0023974,30 L14,30.4123683 L18.7541407,37 L23,32.7952818 C22.8562546,32.7952818 22.7135929,32.7903097 22.572015,32.7810002 Z" id="Path" fill="#303F9E"></path>
                    <path d="M23,32.795176 L26.302335,37 L30,30.4123683 L27.664802,30 C26.568928,31.6138222 25.0397158,32.6598709 23.3328772,32.7810002 C23.2228377,32.7902039 23.1118786,32.795176 23,32.795176 Z" id="Path" fill="#283592"></path>
                    <path d="M32,14.3593333 C32,8.63800023 27.7467338,4 22.5,4 C17.2532662,4 13,8.63800023 13,14.3593333 C13,14.4451891 13,22 13,22 L14.7004317,22 L14.7004317,16.9243738 C16.6796211,14.4443941 19.4182638,12.8439393 22.5,12.8439393 C25.5817362,12.8439393 28.3203789,14.4443941 30.2995683,16.9243738 L30.2995683,22 L32,22 C32,22 32,14.4451891 32,14.3593333 Z" id="Path" fill="#FEC007"></path>
                    <path d="M32,20 L30.1572998,20 L30.1572998,14.2400037 C30.1572998,9.68888066 26.7222318,5.98623755 22.5,5.98623755 C18.2777682,5.98623755 14.8427002,9.68888066 14.8427002,14.2400037 L14.8427002,20 L13,20 L13,14.2400037 C13,8.59371835 17.261663,4 22.5,4 C27.738337,4 32,8.59362575 32,14.2400037 L32,20 L32,20 Z" id="Path" fill="#37474F"></path>
                    <g id="Group" transform="translate(21.000000, 3.000000)" fill="#263238">
                        <path d="M1.00433871,0 C1.00289247,0 1.00144624,0 1,0 L1,1.98623755 C1.00144624,1.98623755 1.00289247,1.98623755 1.00433871,1.98623755 C5.44690505,1.98623755 9.06123002,5.68888066 9.06123002,10.2400037 L9.06123002,16 L11,16 L11,10.2400037 C11,4.59362575 6.51603514,0 1.00433871,0 Z" id="Path"></path>
                        <path d="M5.48924859,22 L0,22 L0,19.8988098 L5.48924859,19.8988098 C7.46372983,19.8988098 9.07014387,18.1498751 9.07014387,16 L11,16 C11,19.3084195 8.52771484,22 5.48924859,22 Z" id="Path"></path>
                    </g>
                    <path d="M13.9999088,22 L11.8606611,22 C10.2807392,22 9,20.4427517 9,18.5217277 L9,14.4782723 C9,12.5572483 10.2807392,11 11.8606611,11 L14,11 L14,22 L13.9999088,22 Z" id="Path" fill="#3F51B4"></path>
                    <path d="M32.5672067,22 L30,22 L30,11 L32.5672067,11 C34.463113,11 36,12.557264 36,14.4783073 L36,18.5218036 C36,20.442736 34.463113,22 32.5672067,22 Z" id="Path" fill="#303F9E"></path>
                    <path d="M21.7533915,27 L19.2466085,27 C18.0058686,27 17,26.1045449 17,25 L17,25 C17,23.8954551 18.0058686,23 19.2466085,23 L21.7533915,23 C22.9941314,23 24,23.8954551 24,25 L24,25 C24,26.1045449 22.9942306,27 21.7533915,27 Z" id="Path" fill="#DC2C00"></path>
                    <path d="M23,23 L23,27 C23.5751075,26.7703026 24,25.9619832 24,24.9999544 L24,24.9999544 C24,24.0380168 23.5751665,23.2296974 23,23 Z" id="Path" fill="#B21F02"></path>
                </g>
            </g>
        </g>
    </g>
</svg>