<?xml version="1.0" encoding="UTF-8"?>
<svg width="112px" height="112px" viewBox="0 0 112 112" version="1.1" xmlns="http://www.w3.org/2000/svg" xmlns:xlink="http://www.w3.org/1999/xlink">
    <!-- Generator: Sketch 56.3 (81716) - https://sketch.com -->
    <title>Group 9</title>
    <desc>Created with Sketch.</desc>
    <defs>
        <filter x="-12.0%" y="-12.0%" width="124.0%" height="124.0%" filterUnits="objectBoundingBox" id="filter-1">
            <feOffset dx="0" dy="0" in="SourceAlpha" result="shadowOffsetOuter1"></feOffset>
            <feGaussianBlur stdDeviation="3" in="shadowOffsetOuter1" result="shadowBlurOuter1"></feGaussianBlur>
            <feColorMatrix values="0 0 0 0 0.0392156863   0 0 0 0 0.121568627   0 0 0 0 0.266666667  0 0 0 0.1 0" type="matrix" in="shadowBlurOuter1" result="shadowMatrixOuter1"></feColorMatrix>
            <feMerge>
                <feMergeNode in="shadowMatrixOuter1"></feMergeNode>
                <feMergeNode in="SourceGraphic"></feMergeNode>
            </feMerge>
        </filter>
    </defs>
    <g id="DESIGN--v3" stroke="none" stroke-width="1" fill="none" fill-rule="evenodd">
        <g id="HoverTest_1.1" transform="translate(-1254.000000, -816.000000)">
            <g id="Group-9" filter="url(#filter-1)" transform="translate(1260.000000, 822.000000)">
                <circle id="Oval" fill="#DBDBDB" fill-rule="nonzero" cx="50" cy="50" r="50"></circle>
                <path d="M50,6.89655172 C73.7672414,6.89655172 93.1034483,26.2327586 93.1034483,50 C93.1034483,73.7672414 73.7672414,93.1034483 50,93.1034483 C26.2327586,93.1034483 6.89655172,73.7672414 6.89655172,50 C6.89655172,26.2327586 26.2327586,6.89655172 50,6.89655172 L50,6.89655172 Z M50,0 C22.3862069,0 0,22.3862069 0,50 C0,77.6137931 22.3862069,100 50,100 C77.6137931,100 100,77.6137931 100,50 C100,22.3862069 77.6137931,0 50,0 L50,0 Z" id="Shape" fill="#FFFFFF" fill-rule="nonzero"></path>
                <path d="M50,10.1362069 C49.0482759,10.1362069 48.2758621,10.9068966 48.2758621,11.8603448 L48.2758621,13.5844828 C48.2758621,14.537931 49.0482759,15.3086207 50,15.3086207 C50.9517241,15.3086207 51.7241379,14.537931 51.7241379,13.5844828 L51.7241379,11.8603448 C51.7241379,10.9068966 50.9517241,10.1362069 50,10.1362069 Z" id="Path" fill="#FFFFFF" fill-rule="nonzero"></path>
                <path d="M50,84.2741379 C49.0482759,84.2741379 48.2758621,85.0448276 48.2758621,85.9982759 L48.2758621,87.7224138 C48.2758621,88.6758621 49.0482759,89.4465517 50,89.4465517 C50.9517241,89.4465517 51.7241379,88.6758621 51.7241379,87.7224138 L51.7241379,85.9982759 C51.7241379,85.0448276 50.9517241,84.2741379 50,84.2741379 Z" id="Path" fill="#FFFFFF" fill-rule="nonzero"></path>
                <path d="M87.9310345,48.0672414 L86.2068966,48.0672414 C85.2551724,48.0672414 84.4827586,48.837931 84.4827586,49.7913793 C84.4827586,50.7448276 85.2551724,51.5155172 86.2068966,51.5155172 L87.9310345,51.5155172 C88.8827586,51.5155172 89.6551724,50.7448276 89.6551724,49.7913793 C89.6551724,48.837931 88.8827586,48.0672414 87.9310345,48.0672414 Z" id="Path" fill="#FFFFFF" fill-rule="nonzero"></path>
                <path d="M13.7931034,48.0672414 L12.0689655,48.0672414 C11.1172414,48.0672414 10.3448276,48.837931 10.3448276,49.7913793 C10.3448276,50.7448276 11.1172414,51.5155172 12.0689655,51.5155172 L13.7931034,51.5155172 C14.7448276,51.5155172 15.5172414,50.7448276 15.5172414,49.7913793 C15.5172414,48.837931 14.7448276,48.0672414 13.7931034,48.0672414 Z" id="Path" fill="#FFFFFF" fill-rule="nonzero"></path>
                <path d="M75.6017241,21.75 L74.3827586,22.9689655 C73.7086207,23.6431034 73.7086207,24.7327586 74.3827586,25.4068966 C74.7189655,25.7431034 75.1603448,25.912069 75.6017241,25.912069 C76.0431034,25.912069 76.4844828,25.7431034 76.8206897,25.4068966 L78.0396552,24.187931 C78.7137931,23.5137931 78.7137931,22.4241379 78.0396552,21.75 C77.3655172,21.0758621 76.2758621,21.0758621 75.6017241,21.75 Z" id="Path" fill="#FFFFFF" fill-rule="nonzero"></path>
                <path d="M23.1793103,74.1741379 L21.9603448,75.3931034 C21.2862069,76.0672414 21.2862069,77.1568966 21.9603448,77.8310345 C22.2965517,78.1672414 22.737931,78.3362069 23.1793103,78.3362069 C23.6206897,78.3362069 24.062069,78.1672414 24.3982759,77.8310345 L25.6172414,76.612069 C26.2913793,75.937931 26.2913793,74.8482759 25.6172414,74.1741379 C24.9431034,73.5 23.8517241,73.5017241 23.1793103,74.1741379 Z" id="Path" fill="#FFFFFF" fill-rule="nonzero"></path>
                <path d="M76.8206897,74.1741379 C76.1465517,73.5 75.0568966,73.5 74.3827586,74.1741379 C73.7086207,74.8482759 73.7086207,75.937931 74.3827586,76.612069 L75.6017241,77.8310345 C75.937931,78.1672414 76.3793103,78.3362069 76.8206897,78.3362069 C77.262069,78.3362069 77.7034483,78.1672414 78.0396552,77.8310345 C78.7137931,77.1568966 78.7137931,76.0672414 78.0396552,75.3931034 L76.8206897,74.1741379 Z" id="Path" fill="#FFFFFF" fill-rule="nonzero"></path>
                <path d="M24.3982759,21.75 C23.7241379,21.0758621 22.6344828,21.0758621 21.9603448,21.75 C21.2862069,22.4241379 21.2862069,23.5137931 21.9603448,24.187931 L23.1793103,25.4068966 C23.5155172,25.7431034 23.9568966,25.912069 24.3982759,25.912069 C24.8396552,25.912069 25.2810345,25.7431034 25.6172414,25.4068966 C26.2913793,24.7327586 26.2913793,23.6431034 25.6172414,22.9689655 L24.3982759,21.75 Z" id="Path" fill="#FFFFFF" fill-rule="nonzero"></path>
                <path d="M44.8275862,49.7913793 L31.0344828,49.7913793" id="Path" stroke="#FFFFFF" stroke-width="2" stroke-linecap="round" stroke-linejoin="round"></path>
                <path d="M50,44.6189655 L50,25.6534483" id="Path" stroke="#FFFFFF" stroke-width="2" stroke-linecap="round" stroke-linejoin="round"></path>
                <circle id="Oval" stroke="#FFFFFF" stroke-width="2" stroke-linecap="round" stroke-linejoin="round" cx="50" cy="49.7913793" r="5.17241379"></circle>
            </g>
        </g>
    </g>
</svg>