<?xml version="1.0" encoding="UTF-8"?>
<svg width="106px" height="118px" viewBox="0 0 106 118" version="1.1" xmlns="http://www.w3.org/2000/svg" xmlns:xlink="http://www.w3.org/1999/xlink">
    <!-- Generator: Sketch 56.3 (81716) - https://sketch.com -->
    <title>Group 24</title>
    <desc>Created with Sketch.</desc>
    <defs>
        <filter x="-8.2%" y="-7.3%" width="116.3%" height="114.5%" filterUnits="objectBoundingBox" id="filter-1">
            <feOffset dx="0" dy="0" in="SourceAlpha" result="shadowOffsetOuter1"></feOffset>
            <feGaussianBlur stdDeviation="2" in="shadowOffsetOuter1" result="shadowBlurOuter1"></feGaussianBlur>
            <feColorMatrix values="0 0 0 0 0.0392156863   0 0 0 0 0.121568627   0 0 0 0 0.266666667  0 0 0 0.1 0" type="matrix" in="shadowBlurOuter1" result="shadowMatrixOuter1"></feColorMatrix>
            <feMerge>
                <feMergeNode in="shadowMatrixOuter1"></feMergeNode>
                <feMergeNode in="SourceGraphic"></feMergeNode>
            </feMerge>
        </filter>
    </defs>
    <g id="DESIGN--v3" stroke="none" stroke-width="1" fill="none" fill-rule="evenodd">
        <g id="HoverTest_1.1" transform="translate(-313.000000, -820.000000)">
            <g id="Group-24" filter="url(#filter-1)" transform="translate(317.000000, 824.000000)">
                <g id="Group-15" fill-rule="nonzero">
                    <g id="Group-14">
                        <path d="M79.7328613,19.3359375 L63.7660645,19.3359375 L63.7660645,3.22265625 C63.7660645,1.41775391 62.3611992,0 60.5727051,0 L9.58007813,0 C4.27867578,0 5.68434189e-14,4.31814453 5.68434189e-14,9.66796875 L5.68434189e-14,100.332031 C5.68434189e-14,105.681426 4.27867578,110 9.58007813,110 L73.3461426,110 C78.6475449,110 82.9262207,105.681426 82.9262207,100.332031 L82.9262207,22.5585938 C82.9262207,20.7536914 81.5213555,19.3359375 79.7328613,19.3359375 Z" id="Path" fill="#FFFFFF"></path>
                        <path d="M82.9262207,22.5585938 L82.9262207,100.332031 C82.9262207,105.681426 78.6475449,110 73.3461426,110 L41.4125488,110 L41.4125488,0 L60.5727051,0 C62.3611992,0 63.7660645,1.41775391 63.7660645,3.22265625 L63.7660645,19.3359375 L79.7328613,19.3359375 C81.5213555,19.3359375 82.9262207,20.7536914 82.9262207,22.5585938 Z" id="Path" fill="#FFFFFF"></path>
                        <path d="M82.9262207,25.78125 L60.5727051,25.78125 C58.8076289,25.78125 57.3793457,24.3398633 57.3793457,22.5585938 L57.3793457,0 L64.3398047,0 C66.8470176,0 69.3044141,1.02587891 71.075877,2.81660156 L80.1382051,11.965293 C81.9094551,13.7592383 82.9262207,16.2327344 82.9262207,18.7567188 L82.9262207,25.78125 Z" id="Path" fill="#DBDBDB"></path>
                        <path d="M60.5727051,38.671875 L15.9667969,38.671875 C11.7522012,38.671875 11.7522012,32.2265625 15.9667969,32.2265625 L60.5727051,32.2265625 C64.7875137,32.2265625 64.7875137,38.671875 60.5727051,38.671875 Z" id="Path" fill="#DBDBDB"></path>
                        <path d="M47.7992676,51.5625 L15.9667969,51.5625 C11.7522012,51.5625 11.7522012,45.1171875 15.9667969,45.1171875 L47.7992676,45.1171875 C52.0140762,45.1171875 52.0140762,51.5625 47.7992676,51.5625 Z" id="Path" fill="#DBDBDB"></path>
                        <path d="M47.7992676,64.453125 L15.9667969,64.453125 C11.7522012,64.453125 11.7522012,58.0078125 15.9667969,58.0078125 L47.7992676,58.0078125 C52.0140762,58.0078125 52.0140762,64.453125 47.7992676,64.453125 Z" id="Path" fill="#DBDBDB"></path>
                        <path d="M47.7992676,77.34375 L15.9667969,77.34375 C11.7522012,77.34375 11.7522012,70.8984375 15.9667969,70.8984375 L47.7992676,70.8984375 C52.0140762,70.8984375 52.0140762,77.34375 47.7992676,77.34375 Z" id="Path" fill="#DBDBDB"></path>
                        <path d="M60.5727051,97.109375 L41.4125488,97.109375 C37.1979531,97.109375 37.1979531,90.6640625 41.4125488,90.6640625 L60.5727051,90.6640625 C64.7875137,90.6640625 64.7875137,97.109375 60.5727051,97.109375 Z" id="Path" fill="#DBDBDB"></path>
                        <g id="Group" transform="translate(41.300781, 32.226562)" fill="#DBDBDB">
                            <path d="M6.49848633,45.1171875 L0.111767578,45.1171875 L0.111767578,38.671875 L6.49848633,38.671875 C10.7132949,38.671875 10.7132949,45.1171875 6.49848633,45.1171875 Z" id="Path"></path>
                            <path d="M6.49848633,32.2265625 L0.111767578,32.2265625 L0.111767578,25.78125 L6.49848633,25.78125 C10.7132949,25.78125 10.7132949,32.2265625 6.49848633,32.2265625 Z" id="Path"></path>
                            <path d="M6.49848633,19.3359375 L0.111767578,19.3359375 L0.111767578,12.890625 L6.49848633,12.890625 C10.7132949,12.890625 10.7132949,19.3359375 6.49848633,19.3359375 Z" id="Path"></path>
                            <path d="M19.2719238,64.8828125 L0.111767578,64.8828125 L0.111767578,58.4375 L19.2719238,58.4375 C23.4867324,58.4375 23.4867324,64.8828125 19.2719238,64.8828125 Z" id="Path"></path>
                            <path d="M19.2719238,6.4453125 L0.111767578,6.4453125 L0.111767578,0 L19.2719238,0 C23.4867324,0 23.4867324,6.4453125 19.2719238,6.4453125 Z" id="Path"></path>
                        </g>
                    </g>
                </g>
                <g id="Group-17" transform="translate(61.000000, 50.000000)" fill="#B0B0B0">
                    <g id="Group-7">
                        <circle id="Oval" cx="18.5" cy="18.5" r="18.5"></circle>
                    </g>
                </g>
                <text id="+" font-family="EYInterstate-Regular, EYInterstate" font-size="36" font-weight="normal" fill="#FFFFFF">
                    <tspan x="68.3378906" y="81">+</tspan>
                </text>
            </g>
        </g>
    </g>
</svg>