<?xml version="1.0" encoding="UTF-8"?>
<svg width="142px" height="92px" viewBox="0 0 142 92" version="1.1" xmlns="http://www.w3.org/2000/svg" xmlns:xlink="http://www.w3.org/1999/xlink">
    <!-- Generator: Sketch 56.3 (81716) - https://sketch.com -->
    <title>Group 23</title>
    <desc>Created with Sketch.</desc>
    <defs>
        <filter x="-6.0%" y="-9.5%" width="111.9%" height="119.0%" filterUnits="objectBoundingBox" id="filter-1">
            <feOffset dx="0" dy="0" in="SourceAlpha" result="shadowOffsetOuter1"></feOffset>
            <feGaussianBlur stdDeviation="2" in="shadowOffsetOuter1" result="shadowBlurOuter1"></feGaussianBlur>
            <feColorMatrix values="0 0 0 0 0.0392156863   0 0 0 0 0.121568627   0 0 0 0 0.266666667  0 0 0 0.12 0" type="matrix" in="shadowBlurOuter1" result="shadowMatrixOuter1"></feColorMatrix>
            <feMerge>
                <feMergeNode in="shadowMatrixOuter1"></feMergeNode>
                <feMergeNode in="SourceGraphic"></feMergeNode>
            </feMerge>
        </filter>
    </defs>
    <g id="DESIGN--v3" stroke="none" stroke-width="1" fill="none" fill-rule="evenodd">
        <g id="HoverTest_1.1" transform="translate(-59.000000, -588.000000)" fill-rule="nonzero">
            <g id="Group-23" transform="translate(63.000000, 592.000000)">
                <g id="Group-22" filter="url(#filter-1)">
                    <path d="M131.207734,0 L2.791743,0 C1.24996387,0 0,1.2537 0,2.8000875 L0,81.200175 C0,82.7463 1.24996387,84 2.791743,84 L19.5416776,84 C21.0834567,84 22.3334206,82.7463 22.3334206,81.1999125 C22.3616861,80.710875 22.5218573,80.238375 22.7969227,79.8336 C23.3219284,78.9502875 23.3219284,77.849625 22.7969227,76.9663125 C22.5218573,76.561275 22.3616861,76.0890375 22.3334206,75.6 C22.3334206,74.0536125 23.5833844,72.7999125 25.1251636,72.7999125 C26.6669427,72.7999125 27.9169066,74.0536125 27.9169066,75.6 C27.8886411,76.0890375 27.7284698,76.5615375 27.4534045,76.9663125 C26.9283987,77.849625 26.9283987,78.9502875 27.4534045,79.8336 C27.7284698,80.2386375 27.8886411,80.710875 27.9169066,81.1999125 C27.9169066,82.7463 29.1668704,84 30.7086496,84 L47.4585841,84 C49.0003633,84 50.2503271,82.7463 50.2503271,81.1999125 C50.2785927,80.710875 50.4387639,80.238375 50.7138292,79.8336 C51.238835,78.9502875 51.238835,77.849625 50.7138292,76.9663125 C50.4387639,76.561275 50.2785927,76.0890375 50.2503271,75.6 C50.2503271,74.0536125 51.500291,72.7999125 53.0420701,72.7999125 C54.5838493,72.7999125 55.8338131,74.0536125 55.8338131,75.6 C55.8055476,76.0890375 55.6453764,76.5615375 55.3703111,76.9663125 C54.8453053,77.849625 54.8453053,78.9502875 55.3703111,79.8336 C55.6453764,80.2386375 55.8055476,80.710875 55.8338131,81.1999125 C55.8338131,82.7463 57.083777,84 58.6255562,84 L75.3754907,84 C76.9172699,84 78.1672337,82.7463 78.1672337,81.1999125 C78.1954992,80.710875 78.3556705,80.238375 78.6307358,79.8336 C79.1557416,78.9502875 79.1557416,77.849625 78.6307358,76.9663125 C78.3556705,76.561275 78.1954992,76.0890375 78.1672337,75.6 C78.1672337,74.0536125 79.4171976,72.7999125 80.9589767,72.7999125 C82.5007559,72.7999125 83.7496729,74.0536125 83.7496729,75.6 C83.7214073,76.0890375 83.5612361,76.5615375 83.2861708,76.9663125 C82.761165,77.849625 82.761165,78.9502875 83.2861708,79.8336 C83.5612361,80.2386375 83.7214073,80.710875 83.7496729,81.1999125 C83.7496729,82.7463 84.9996367,84 86.5414159,84 L103.29135,84 C104.83313,84 106.083093,82.7463 106.083093,81.1999125 C106.111359,80.710875 106.27153,80.238375 106.546596,79.8336 C107.071601,78.9502875 107.071601,77.849625 106.546596,76.9663125 C106.27153,76.561275 106.111359,76.0890375 106.083093,75.6 C106.083093,74.0536125 107.333057,72.7999125 108.874836,72.7999125 C110.416616,72.7999125 111.666579,74.0536125 111.666579,75.6 C111.638314,76.0890375 111.478143,76.5615375 111.203077,76.9663125 C110.678072,77.849625 110.678072,78.9502875 111.203077,79.8336 C111.478143,80.2386375 111.638314,80.710875 111.666579,81.1999125 C111.666579,82.7463 112.916543,84 114.458322,84 L131.208257,84 C132.750036,84 134,82.7463 134,81.1999125 L134,2.8000875 C134,1.2537 132.749513,0 131.207734,0 Z" id="Path" fill="#FFFFFF"></path>
                    <circle id="Oval" fill="#DBDBDB" cx="37" cy="25" r="11"></circle>
                    <path d="M59,58 C59,45.849765 48.9264357,36 36.5001318,36 C24.073828,36 14,45.849765 14,58 L59,58 Z" id="Path" fill="#DBDBDB"></path>
                    <path d="M120.22215,22 L75.7778501,22 C74.2437435,22 73,20.8806075 73,19.4998828 C73,18.1191581 74.2437435,17 75.7778501,17 L120.22215,17 C121.756256,17 123,18.1193925 123,19.5001172 C123,20.8808419 121.756256,22 120.22215,22 Z" id="Path" fill="#EEEEEE"></path>
                    <path d="M104.1666,39 L75.8333997,39 C74.2686151,39 73,37.8806075 73,36.4998828 C73,35.1191581 74.2686151,34 75.8333997,34 L104.1666,34 C105.731385,34 107,35.1193925 107,36.5001172 C107,37.8808419 105.731385,39 104.1666,39 Z" id="Path" fill="#EEEEEE"></path>
                    <path d="M120.22215,56 L75.7778501,56 C74.2437435,56 73,54.88066 73,53.5 C73,52.11934 74.2437435,51 75.7778501,51 L120.22215,51 C121.756256,51 123,52.11934 123,53.5 C123,54.8808943 121.756256,56 120.22215,56 Z" id="Path" fill="#EEEEEE"></path>
                </g>
            </g>
        </g>
    </g>
</svg>