<?xml version="1.0" encoding="UTF-8"?>
<svg width="108px" height="108px" viewBox="0 0 108 108" version="1.1" xmlns="http://www.w3.org/2000/svg" xmlns:xlink="http://www.w3.org/1999/xlink">
    <!-- Generator: Sketch 56.3 (81716) - https://sketch.com -->
    <title>Group 21</title>
    <desc>Created with Sketch.</desc>
    <defs>
        <filter x="-8.0%" y="-8.0%" width="116.0%" height="116.0%" filterUnits="objectBoundingBox" id="filter-1">
            <feOffset dx="0" dy="0" in="SourceAlpha" result="shadowOffsetOuter1"></feOffset>
            <feGaussianBlur stdDeviation="2" in="shadowOffsetOuter1" result="shadowBlurOuter1"></feGaussianBlur>
            <feColorMatrix values="0 0 0 0 0.0392156863   0 0 0 0 0.121568627   0 0 0 0 0.266666667  0 0 0 0.09 0" type="matrix" in="shadowBlurOuter1" result="shadowMatrixOuter1"></feColorMatrix>
            <feMerge>
                <feMergeNode in="shadowMatrixOuter1"></feMergeNode>
                <feMergeNode in="SourceGraphic"></feMergeNode>
            </feMerge>
        </filter>
    </defs>
    <g id="DESIGN--v3" stroke="none" stroke-width="1" fill="none" fill-rule="evenodd">
        <g id="HoverTest_1.1" transform="translate(-550.000000, -821.000000)" fill-rule="nonzero">
            <g id="Group-21" filter="url(#filter-1)" transform="translate(554.000000, 825.000000)">
                <path d="M68.7457687,6.89655172 C68.7457687,3.08769138 65.6679158,0 61.8711918,0 L6.87457687,0 C3.0778529,0 0,3.08769138 0,6.89655172 L0,93.1034483 C0,96.9123086 3.0778529,100 6.87457687,100 L61.8711918,100 C63.0446475,99.9973903 64.198075,99.6947603 65.222548,99.1206897 C69.4504128,34.2396552 68.7457687,54.9482759 68.7457687,6.89655172 Z" id="Shape" fill="#FFFFFF"></path>
                <path d="M65.5651385,6.89655172 C65.7470469,3.28147402 62.9596906,0.199458793 59.327938,0 L9.43033425,0 C5.7985816,0.199458793 3.01122532,3.28147402 3.19313378,6.89655172 L3.19313378,93.1034483 C3.01122532,96.718526 5.7985816,99.8005412 9.43033425,100 L59.327938,100 C60.4039344,99.9940064 61.4569274,99.689495 62.3685732,99.1206897 C66.2044515,34.2344828 65.5651385,54.9482759 65.5651385,6.89655172 Z" id="Shape" fill="#B7B7B7"></path>
                <rect id="Rectangle-path" fill="#DBDBDB" x="7.00636943" y="8.91719745" width="55.4140127" height="17.1974522" rx="8.59872611"></rect>
                <g id="Group" transform="translate(7.006369, 32.484076)" fill="#DBDBDB">
                    <rect id="Rectangle-path" x="0" y="0" width="8.64261439" height="8.64325737" rx="4.3213072"></rect>
                    <rect id="Rectangle-path" x="15.5567059" y="0" width="8.64261439" height="8.64325737" rx="4.3213072"></rect>
                    <rect id="Rectangle-path" x="31.1134118" y="0" width="8.64261439" height="8.64325737" rx="4.3213072"></rect>
                    <rect id="Rectangle-path" x="46.6701177" y="0" width="8.64261439" height="8.64325737" rx="4.3213072"></rect>
                    <rect id="Rectangle-path" x="0" y="17.2865147" width="8.64261439" height="8.64325737" rx="4.3213072"></rect>
                    <rect id="Rectangle-path" x="15.5567059" y="17.2865147" width="8.64261439" height="8.64325737" rx="4.3213072"></rect>
                    <rect id="Rectangle-path" x="31.1134118" y="17.2865147" width="8.64261439" height="8.64325737" rx="4.3213072"></rect>
                    <rect id="Rectangle-path" x="0" y="34.5730295" width="8.64261439" height="8.64325737" rx="4.3213072"></rect>
                    <rect id="Rectangle-path" x="15.5567059" y="34.5730295" width="8.64261439" height="8.64325737" rx="4.3213072"></rect>
                    <path d="M38.4942045,34.6421755 C38.231469,34.5436424 38.4613626,34.5730295 32.8419347,34.5730295 C31.8872979,34.5730295 31.1134118,35.3469732 31.1134118,36.301681 L31.1134118,41.4876354 C31.1134118,42.4423431 31.8872979,43.2162869 32.8419347,43.2162869 C37.3360942,43.2162869 38.0603453,43.2422166 38.2349261,43.1990003" id="Shape"></path>
                    <rect id="Rectangle-path" x="0" y="51.8595442" width="8.64261439" height="8.64325737" rx="4.3213072"></rect>
                    <rect id="Rectangle-path" x="15.5567059" y="51.8595442" width="8.64261439" height="8.64325737" rx="4.3213072"></rect>
                    <rect id="Rectangle-path" x="31.1134118" y="51.8595442" width="8.64261439" height="8.64325737" rx="4.3213072"></rect>
                </g>
                <path d="M41.0828025,17.1974522 C40.2033683,17.1974522 39.4904459,16.4370017 39.4904459,15.4989384 L39.4904459,13.8004246 C39.4904459,12.8623614 40.2033683,12.1019108 41.0828025,12.1019108 C41.9622368,12.1019108 42.6751592,12.8623614 42.6751592,13.8004246 L42.6751592,15.4989384 C42.6751592,16.4370017 41.9622368,17.1974522 41.0828025,17.1974522 Z" id="Shape" fill="#A6A6A6"></path>
                <path d="M41.0828025,22.2929936 C40.2033683,22.2929936 39.4904459,21.532543 39.4904459,20.5944798 L39.4904459,18.895966 C39.4904459,17.9579028 40.2033683,17.1974522 41.0828025,17.1974522 C41.9622368,17.1974522 42.6751592,17.9579028 42.6751592,18.895966 L42.6751592,20.5944798 C42.6751592,21.532543 41.9622368,22.2929936 41.0828025,22.2929936 Z" id="Shape" fill="#A6A6A6"></path>
                <path d="M48.089172,17.1974522 C47.2097377,17.1974522 46.4968153,16.4370017 46.4968153,15.4989384 L46.4968153,13.8004246 C46.4968153,12.8623614 47.2097377,12.1019108 48.089172,12.1019108 C48.9686062,12.1019108 49.6815287,12.8623614 49.6815287,13.8004246 L49.6815287,15.4989384 C49.6815287,16.4370017 48.9686062,17.1974522 48.089172,17.1974522 Z" id="Shape" fill="#A6A6A6"></path>
                <path d="M48.089172,22.2929936 C47.2097377,22.2929936 46.4968153,21.532543 46.4968153,20.5944798 L46.4968153,18.895966 C46.4968153,17.9579028 47.2097377,17.1974522 48.089172,17.1974522 C48.9686062,17.1974522 49.6815287,17.9579028 49.6815287,18.895966 L49.6815287,20.5944798 C49.6815287,21.532543 48.9686062,22.2929936 48.089172,22.2929936 Z" id="Shape" fill="#A6A6A6"></path>
                <path d="M55.0955414,17.1974522 C54.2161072,17.1974522 53.5031847,16.4370017 53.5031847,15.4989384 L53.5031847,13.8004246 C53.5031847,12.8623614 54.2161072,12.1019108 55.0955414,12.1019108 C55.9749756,12.1019108 56.6878981,12.8623614 56.6878981,13.8004246 L56.6878981,15.4989384 C56.6878981,16.4370017 55.9749756,17.1974522 55.0955414,17.1974522 Z" id="Shape" fill="#A6A6A6"></path>
                <path d="M55.0955414,22.2929936 C54.2161072,22.2929936 53.5031847,21.532543 53.5031847,20.5944798 L53.5031847,18.895966 C53.5031847,17.9579028 54.2161072,17.1974522 55.0955414,17.1974522 C55.9749756,17.1974522 56.6878981,17.9579028 56.6878981,18.895966 L56.6878981,20.5944798 C56.6878981,21.532543 55.9749756,22.2929936 55.0955414,22.2929936 Z" id="Shape" fill="#A6A6A6"></path>
                <path d="M54.5605474,51.0306661 C48.2921239,56.247144 44.643388,63.9570857 44.5866586,72.1059377 C44.5299292,80.2547898 48.0709702,88.0146596 54.2661607,93.3176886 C72.2202859,108.688027 100,95.8116717 100,72.3038921 C100,49.0088448 72.6272322,35.9837501 54.5605474,51.0306661 Z" id="Shape" fill="#FFFFFF"></path>
                <path d="M75.7961783,99.8280341 C68.1950035,100.677932 60.5800419,98.352407 54.7770701,93.4090319 L72.7416774,72.611465 L75.7961783,99.8280341 Z" id="Shape" fill="#EEEEEE"></path>
                <path d="M100,72.611465 C100.004678,86.6542149 89.5113403,98.4527693 75.6413213,100 L72.611465,72.611465 L100,72.611465 Z" id="Shape" fill="#878787"></path>
                <path d="M100,72.611465 L72.611465,72.611465 L90.4310919,51.5923567 C96.5139944,56.8433604 100.011751,64.5265977 100,72.611465 Z" id="Shape" fill="#C6C6C6"></path>
                <path d="M90.4458599,51.8149997 L72.4646443,72.611465 L54.7770701,51.5582532 C65.1397329,43.0150951 80.209533,43.1235686 90.4458599,51.8149997 L90.4458599,51.8149997 Z" id="Shape" stroke="#EEEEEE" fill="#EEEEEE"></path>
            </g>
        </g>
    </g>
</svg>