<?xml version="1.0" encoding="UTF-8"?>
<svg width="106px" height="106px" viewBox="0 0 106 106" version="1.1" xmlns="http://www.w3.org/2000/svg" xmlns:xlink="http://www.w3.org/1999/xlink">
    <!-- Generator: Sketch 56.3 (81716) - https://sketch.com -->
    <title>Group 11</title>
    <desc>Created with Sketch.</desc>
    <defs>
        <circle id="path-1" cx="50" cy="50" r="50"></circle>
        <filter x="-4.5%" y="-4.5%" width="109.0%" height="109.0%" filterUnits="objectBoundingBox" id="filter-2">
            <feOffset dx="0" dy="0" in="SourceAlpha" result="shadowOffsetOuter1"></feOffset>
            <feGaussianBlur stdDeviation="1.5" in="shadowOffsetOuter1" result="shadowBlurOuter1"></feGaussianBlur>
            <feColorMatrix values="0 0 0 0 0.0392156863   0 0 0 0 0.121568627   0 0 0 0 0.266666667  0 0 0 0.1 0" type="matrix" in="shadowBlurOuter1"></feColorMatrix>
        </filter>
    </defs>
    <g id="DESIGN--v3" stroke="none" stroke-width="1" fill="none" fill-rule="evenodd">
        <g id="HoverTest_1.1" transform="translate(-308.000000, -580.000000)" fill-rule="nonzero">
            <g id="Group-11" transform="translate(311.000000, 583.000000)">
                <g id="Oval">
                    <use fill="black" fill-opacity="1" filter="url(#filter-2)" xlink:href="#path-1"></use>
                    <use fill="#FFFFFF" xlink:href="#path-1"></use>
                </g>
                <path d="M16.643295,32.8250122 L33.3738292,41.0896518 C33.3738292,41.0896518 45.7179393,37.1190933 47.6392672,37.739828 C47.8259486,37.80005 48.1412676,37.9243919 48.5548296,38.0970672 L48.5563983,38.0980417 C52.3910143,39.7031818 64.8068947,45.5969461 64.8068947,45.5969461 L61.2679884,45.3724291 C62.7077097,47.2102717 64.7127697,49.6158381 65.851879,50.3172586 C67.7698733,51.4975316 63.2022585,54.8567102 59.3668581,52.4049542 C55.5306735,49.9537828 54.5256923,46.9580799 54.5256923,46.9580799 L52.62868,47.1527782 L65.9330619,59.2954021 L68.0465618,61.8132269 C69.8751373,63.9915478 67.6045662,67.1379031 64.6182524,66.1788338 C64.6659032,66.2146942 64.4968703,66.1655811 64.5415797,66.28622 C64.7123775,66.7432444 65.0575027,67.8406879 64.7463017,68.3760594 C63.6528822,70.2598967 62.0062818,71.7095121 58.5183599,69.0692944 C59.3635245,69.7089338 59.8814085,71.2142886 59.2950878,72.0895538 C58.4973779,73.2807408 57.6178968,73.8180613 56.6558602,74.1094266 C55.6420548,74.4165782 54.1133069,73.4536111 53.2693188,72.8145564 C54.1138951,73.4536111 54.5162798,74.969685 53.9532942,75.8622957 C53.2604945,76.9609085 51.0595368,78.5754035 49.6641327,77.5184978 L45.2798656,74.199857 C45.2798656,74.199857 34.6076519,63.929182 31.3101372,61.1958053 C28.0116419,58.4612593 23.5289357,52.897839 23.5289357,52.897839 L3.81679389,42.0266981 L16.6442754,32.8244275 L16.643295,32.8250122 Z" id="Path" fill="#ECECEC"></path>
                <path d="M0.000393351334,46.0668722 L14.4739524,55.7251908 L29.7709924,35.6725546 L11.3591998,18.3206107 C5.00539572,25.9877258 0.887203933,35.567496 0,46.0668722 L0.000393351334,46.0668722 Z" id="Path" fill="#DBDBDB"></path>
                <polygon id="Path" fill="#ADADAD" points="29.6052029 35.8778626 16.7938931 53.0513199 19.249759 54.9618321 32.0610687 37.7877761"></polygon>
                <path d="M83.3573267,32.8259909 L66.6291378,41.1132504 C65.291965,41.775551 60.487554,38.6379773 56.5348555,38.1597685 C53.6728743,37.813668 50.2152434,38.9199779 50.4211131,39.0264854 L59.3819356,43.1550672 C59.3819356,43.1550672 63.7500989,49.1833909 65.6680204,50.3659171 C67.5857458,51.5490296 63.0187712,54.917793 59.1839086,52.4593266 C55.3482616,50.0014465 54.3434214,46.9975446 54.3434214,46.9975446 L46.4152806,47.8120826 L31.1303364,61.275215 C29.0145839,63.1389982 29.661603,64.1116363 31.0844569,65.9294944 C31.7350052,66.7620116 34.1260349,66.4815744 35.1283263,66.0997109 C32.8135664,67.854837 36.1512047,72.3750537 39.4235529,69.8888368 C37.4446547,71.3918626 40.2829119,76.6910497 44.2460019,73.6810896 C42.2690645,76.3373276 46.298425,78.2693148 47.9926347,77.7891517 L49.2198143,77.4414878 L48.9065002,77.2036536 C48.8051339,77.2036536 45.5955269,73.9230277 45.4012252,73.5251392 C44.3032533,71.2789061 47.1966051,68.2370914 49.7905636,70.4119938 L52.0231716,72.1206083 L50.7297216,70.485865 C49.0798229,68.3308961 50.3497449,66.1057691 51.9300401,65.4311566 C53.0882043,64.937509 54.2869542,65.485876 55.2641492,66.4465931 L57.7300762,68.4159067 L55.6292248,65.9691659 C55.6292248,65.9691659 53.6142504,63.7004588 55.4637448,61.6744715 C57.3132391,59.6490704 59.8195558,62.0774411 59.8195558,62.0774411 L62.7695708,64.5083523 L60.230511,61.577149 C60.230511,61.577149 58.0314303,59.2728743 59.5115355,57.731154 C61.5674877,55.5894741 64.1112532,57.6987132 66.1195613,59.8081477 C66.6965847,60.4145563 67.291058,61.3459594 67.7422068,61.7758979 C69.9587374,59.2892901 71.4502145,56.5939667 71.4502145,56.5939667 L96.1832061,42.0518842 L83.3579149,32.8244275 L83.3573267,32.8259909 Z" id="Path" fill="#DBDBDB"></path>
                <path d="M99.99941,46.0663338 L85.5252609,55.7251908 L70.2290076,35.6726598 L88.6408002,18.3206107 C94.9949976,25.9870965 99.112206,35.5670127 100,46.0663338 L99.99941,46.0663338 Z" id="Path" fill="#A6A6A6"></path>
                <polygon id="Path" fill="#EEEEEE" points="70.39382 35.8778626 83.2061069 53.0513199 80.7496547 54.9618321 67.9389313 37.7877761"></polygon>
                <path d="M13.5831245,50.3279349 C14.0913719,50.3279349 14.5038168,50.6819367 14.5038168,51.1181659 C14.5038168,51.5543951 14.0919645,51.9083969 13.5831245,51.9083969 C13.0748771,51.9083969 12.6624323,51.5549038 12.6624323,51.1181659 C12.6624323,50.6819367 13.0742845,50.3279349 13.5831245,50.3279349 Z M10.8443564,48.8549618 C11.3526038,48.8549618 11.7650487,49.208455 11.7650487,49.6451929 C11.7650487,50.0814221 11.3526038,50.4354239 10.8443564,50.4354239 C10.336109,50.4354239 9.92366412,50.0814221 9.92366412,49.6451929 C9.92366412,49.2089636 10.3355164,48.8549618 10.8443564,48.8549618 Z" id="Shape" fill="#ECF0F1"></path>
                <path d="M87.1802343,51.0912059 C86.6719868,51.0912059 86.259542,51.4452273 86.259542,51.8814808 C86.259542,52.3177343 86.6713942,52.6717557 87.1802343,52.6717557 C87.6884817,52.6717557 88.1009265,52.3182429 88.1009265,51.8814808 C88.1009265,51.4452273 87.6890743,51.0912059 87.1802343,51.0912059 Z M89.9190024,49.6183206 C89.410755,49.6183206 88.9983101,49.9718334 88.9983101,50.4085955 C88.9983101,50.844849 89.410755,51.1988705 89.9190024,51.1988705 C90.4272498,51.1988705 90.8396947,50.844849 90.8396947,50.4085955 C90.8396947,49.9723421 90.4278424,49.6183206 89.9190024,49.6183206 Z" id="Shape" fill="#FFFFFF"></path>
            </g>
        </g>
    </g>
</svg>