<?xml version="1.0" encoding="UTF-8"?>
<svg width="106px" height="106px" viewBox="0 0 106 106" version="1.1" xmlns="http://www.w3.org/2000/svg" xmlns:xlink="http://www.w3.org/1999/xlink">
    <!-- Generator: Sketch 56.3 (81716) - https://sketch.com -->
    <title>Group 25</title>
    <desc>Created with Sketch.</desc>
    <defs>
        <circle id="path-1" cx="49.9896484" cy="49.9896484" r="49.9896484"></circle>
        <filter x="-4.5%" y="-4.5%" width="109.0%" height="109.0%" filterUnits="objectBoundingBox" id="filter-2">
            <feOffset dx="0" dy="0" in="SourceAlpha" result="shadowOffsetOuter1"></feOffset>
            <feGaussianBlur stdDeviation="1.5" in="shadowOffsetOuter1" result="shadowBlurOuter1"></feGaussianBlur>
            <feColorMatrix values="0 0 0 0 0.0392156863   0 0 0 0 0.121568627   0 0 0 0 0.266666667  0 0 0 0.1 0" type="matrix" in="shadowBlurOuter1"></feColorMatrix>
        </filter>
    </defs>
    <g id="DESIGN--v3" stroke="none" stroke-width="1" fill="none" fill-rule="evenodd">
        <g id="HoverTest_1.1" transform="translate(-548.000000, -1068.000000)" fill-rule="nonzero">
            <g id="Group-25" transform="translate(551.000000, 1071.000000)">
                <g id="Oval">
                    <use fill="black" fill-opacity="1" filter="url(#filter-2)" xlink:href="#path-1"></use>
                    <use fill="#FFFFFF" xlink:href="#path-1"></use>
                </g>
                <path d="M80.645,54.568 C79.393,52.823 78.353,52.409 74,54.698 L65.326,59.999 C64.336,60.526 62.747,60.798 60.986,60.933 C60.988,60.956 61,60.977 61,60.999 C61,61.552 60.553,61.999 60,61.999 L43,61.999 C40,61.999 40,63.505 40,63.999 C40,64.552 39.553,64.999 39,64.999 C38.446,64.999 38,64.552 38,63.999 C38,61.495 39.869,59.999 43,59.999 L57.236,59.999 C57.771,59.441 57.858,58.581 56.973,57.261 C55.568,55.162 53.144,53.971 50.619,53.971 L46.718,53.971 C44.444,53.971 42.201,53.295 40.386,51.927 C36.149,48.733 28,48.999 28,48.999 L28,72.999 L42,72.999 C43.997,72.999 45.992,72.849 47.966,72.548 L61,70.567 C61.444,70.567 61.877,70.514 62.295,70.421 C62.302,70.42 62.309,70.419 62.315,70.418 C63.371,70.27 64.335,69.736 65.104,68.999 L80.3,57.165 C81.074,56.524 81.231,55.386 80.645,54.568" id="XMLID_112_" fill="#DBDBDB"></path>
                <path d="M53.725,61.011 C53.359,61.004 53.014,61 52.718,61 C52.718,61 53.135,61.027 53.725,61.011" id="XMLID_111_" fill="#2C91D0"></path>
                <path d="M38,64 C38,64.552 38.447,65 39,65 C39.553,65 40,64.552 40,64 C40,63.505 40,62 43,62 L60,62 C60.553,62 61,61.552 61,61 C61,60.976 60.988,60.957 60.987,60.934 C58.499,61.125 55.678,61.042 53.724,61.01 C53.134,61.029 52.717,61 52.717,61 C53.013,61 53.359,61.005 53.724,61.01 C54.807,60.979 56.474,60.794 57.236,60 L43,60 C39.869,60 38,61.495 38,64" id="XMLID_110_" fill="#878787"></path>
                <path d="M72,28 C72,32.418 68.418,36 64,36 C59.582,36 56,32.418 56,28 C56,23.582 59.582,20 64,20 C68.418,20 72,23.582 72,28" id="XMLID_109_" fill="#B7B7B7"></path>
                <path d="M44.806,53.803 C45.435,53.912 46.074,53.973 46.718,53.973 L50.618,53.973 C51.252,53.973 51.879,54.048 52.485,54.193 C55.154,52.896 57,50.167 57,47 C57,42.582 53.418,39 49,39 C44.581,39 41,42.582 41,47 C41,49.878 42.524,52.394 44.806,53.803" id="XMLID_74_" fill="#B7B7B7"></path>
                <path d="M53,47 C53,49.209 51.209,51 49,51 C46.791,51 45,49.209 45,47 C45,44.791 46.791,43 49,43 C51.209,43 53,44.791 53,47" id="XMLID_73_" fill="#DBDBDB"></path>
                <path d="M68,28 C68,30.209 66.209,32 64,32 C61.791,32 60,30.209 60,28 C60,25.791 61.791,24 64,24 C66.209,24 68,25.791 68,28" id="XMLID_72_" fill="#DBDBDB"></path>
                <rect id="XMLID_75_" fill="#878787" x="23" y="45.972" width="5" height="30.028"></rect>
            </g>
        </g>
    </g>
</svg>