<?xml version="1.0" encoding="UTF-8"?>
<svg width="116px" height="116px" viewBox="0 0 116 116" version="1.1" xmlns="http://www.w3.org/2000/svg" xmlns:xlink="http://www.w3.org/1999/xlink">
    <!-- Generator: Sketch 56.3 (81716) - https://sketch.com -->
    <title>bill</title>
    <desc>Created with Sketch.</desc>
    <defs>
        <filter x="-16.0%" y="-16.0%" width="132.0%" height="132.0%" filterUnits="objectBoundingBox" id="filter-1">
            <feOffset dx="0" dy="0" in="SourceAlpha" result="shadowOffsetOuter1"></feOffset>
            <feGaussianBlur stdDeviation="4" in="shadowOffsetOuter1" result="shadowBlurOuter1"></feGaussianBlur>
            <feColorMatrix values="0 0 0 0 0.0392156863   0 0 0 0 0.121568627   0 0 0 0 0.266666667  0 0 0 0.1 0" type="matrix" in="shadowBlurOuter1" result="shadowMatrixOuter1"></feColorMatrix>
            <feMerge>
                <feMergeNode in="shadowMatrixOuter1"></feMergeNode>
                <feMergeNode in="SourceGraphic"></feMergeNode>
            </feMerge>
        </filter>
    </defs>
    <g id="DESIGN--v3" stroke="none" stroke-width="1" fill="none" fill-rule="evenodd">
        <g id="HoverTest_1.1" transform="translate(-305.000000, -1063.000000)" fill-rule="nonzero">
            <g id="bill" filter="url(#filter-1)" transform="translate(313.000000, 1071.000000)">
                <path d="M100,50 C100,59.2384338 97.4937439,67.893982 93.1243896,75.3204346 C84.4345094,90.0878906 68.3753967,100 50,100 C39.5202637,100 29.7935486,96.775818 21.7590332,91.2651062 C8.61816406,82.2570801 0,67.1348572 0,50 C0,39.414215 3.28979492,29.5959473 8.90426641,21.5126037 C14.9452209,12.8143311 23.6755371,6.12411504 33.8935852,2.65121465 C38.9472961,0.932312109 44.3649293,-2.84217094e-14 50,-2.84217094e-14 C57.6225281,-2.84217094e-14 64.8468018,1.70593262 71.3104248,4.75540156 C74.8794555,6.44073477 78.2180785,8.53500371 81.2652588,10.9794617 C92.6879883,20.1431273 100,34.2185975 100,50 Z" id="Path" fill="#FFFFFF"></path>
                <path d="M93.1243896,75.3204346 C84.4345094,90.0878906 68.3753967,100 50,100 C39.5202637,100 29.7935486,96.775818 21.7590332,91.2651062 C15.0611877,68.5325623 10.7513428,45.1553344 8.90426641,21.5126037 C8.41217031,15.2023316 8.09402461,8.87145996 7.95516973,2.53067012 C12.0468141,4.30831914 16.1506652,6.02035527 20.2674865,7.66296387 C24.2469787,5.70831289 28.2409668,3.81851191 32.2532654,1.99356074 C32.800293,2.21405039 33.3465576,2.43301387 33.8935852,2.65121465 C37.4389648,4.05883789 40.9934998,5.41839609 44.5549012,6.72683711 C48.5389709,4.9041748 52.5367736,3.14865117 56.5528869,1.45721445 C60.6384277,2.96936035 64.7346496,4.41436758 68.8430785,5.78994746 C69.6655273,5.44281016 70.4879762,5.09796133 71.3104248,4.75540156 C74.4819641,3.43704219 77.6649475,2.15911875 80.8547973,0.92239375 C80.9288025,4.27932734 81.0676574,7.63244629 81.2652588,10.9794617 C82.5737,32.8384398 86.5570068,54.4487 93.1243896,75.3204346 Z" id="Path" fill="#A6A6A6"></path>
                <path d="M93.1243896,75.3204346 C84.4345094,90.0878906 68.3753967,100 50,100 C39.5202637,100 29.7935486,96.775818 21.7590332,91.2651062 C20.6344605,87.4511719 19.5777893,83.6181641 18.5897828,79.7691346 C20.2186584,81.2324523 21.9429016,82.5897217 23.753357,83.8302613 C31.7878723,89.3409729 41.5145875,92.5651551 51.9935607,92.5651551 C68.4715271,92.5651551 83.0879211,84.5939637 92.1936035,72.2976684 C92.4980164,73.3078004 92.8085328,74.3141174 93.1243896,75.3204346 L93.1243896,75.3204346 Z" id="Path" fill="#DBDBDB"></path>
                <g id="Group" transform="translate(18.164062, 17.578125)" fill="#FFFFFF">
                    <path d="M3.10974121,12.6243592 C1.58843984,12.6243592 0.269317578,11.4913941 0.0762939453,9.94262695 C-0.133514453,8.26492305 1.05667109,6.7344666 2.734375,6.5246582 L53.7971496,0.141906641 C55.4733277,-0.0663757812 57.0045471,1.12228398 57.2143555,2.79998789 C57.4241639,4.4776916 56.2339783,6.00738516 54.5562744,6.21719355 L3.4934998,12.5999451 C3.36456289,12.6159668 3.23638906,12.6243592 3.10974121,12.6243592 Z" id="Path"></path>
                    <path d="M6.03561406,27.5177002 C4.53033438,27.5177002 3.2188416,26.4076232 3.00674434,24.8748779 C2.77557383,23.2002258 3.94515996,21.6552734 5.61981211,21.4233398 L55.619049,14.5088195 C57.2921754,14.276123 58.8386535,15.4472352 59.0705871,17.1218871 C59.3025207,18.7965393 58.1321717,20.3422547 56.4575195,20.5734254 L6.45828242,27.4879455 C6.31637578,27.507782 6.17523203,27.5177002 6.03561406,27.5177002 Z" id="Path"></path>
                    <path d="M33.2130432,54.7904969 C31.7604064,54.7904969 30.4710389,53.7528992 30.20401,52.2727967 C29.9034119,50.6095887 31.0089111,49.0165711 32.672882,48.7167359 L62.9409789,43.2518006 C64.6041871,42.9504395 66.1964416,44.0567016 66.4970398,45.7199098 C66.7976379,47.3838807 65.6921387,48.9761352 64.0289307,49.2767334 L33.7600707,54.7416688 C33.5762023,54.774475 33.3938598,54.7904969 33.2130432,54.7904969 L33.2130432,54.7904969 Z" id="Path"></path>
                </g>
            </g>
        </g>
    </g>
</svg>