<?xml version="1.0" encoding="UTF-8"?>
<svg width="112px" height="112px" viewBox="0 0 112 112" version="1.1" xmlns="http://www.w3.org/2000/svg" xmlns:xlink="http://www.w3.org/1999/xlink">
    <!-- Generator: Sketch 56.3 (81716) - https://sketch.com -->
    <title>team 2</title>
    <desc>Created with Sketch.</desc>
    <defs>
        <filter x="-12.0%" y="-12.0%" width="124.0%" height="124.0%" filterUnits="objectBoundingBox" id="filter-1">
            <feOffset dx="0" dy="0" in="SourceAlpha" result="shadowOffsetOuter1"></feOffset>
            <feGaussianBlur stdDeviation="3" in="shadowOffsetOuter1" result="shadowBlurOuter1"></feGaussianBlur>
            <feColorMatrix values="0 0 0 0 0.0392156863   0 0 0 0 0.121568627   0 0 0 0 0.266666667  0 0 0 0.1 0" type="matrix" in="shadowBlurOuter1" result="shadowMatrixOuter1"></feColorMatrix>
            <feMerge>
                <feMergeNode in="shadowMatrixOuter1"></feMergeNode>
                <feMergeNode in="SourceGraphic"></feMergeNode>
            </feMerge>
        </filter>
    </defs>
    <g id="DESIGN--v3" stroke="none" stroke-width="1" fill="none" fill-rule="evenodd">
        <g id="HoverTest_1.1" transform="translate(-1015.000000, -818.000000)" fill-rule="nonzero">
            <g id="team-2" transform="translate(1021.000000, 824.000000)">
                <g id="team" filter="url(#filter-1)">
                    <circle id="Oval" fill="#FFFFFF" cx="50" cy="50" r="50"></circle>
                    <g id="Group" transform="translate(8.464567, 20.472441)">
                        <path d="M83.1102362,22.519685 L83.1102362,32.9133858 C83.1102362,33.6220472 82.480315,34.2519685 81.6929134,34.0944882 C81.1417323,34.015748 80.7480315,33.5433071 80.6692913,32.992126 L79.6456693,22.3622047 C79.6456693,22.0472441 79.3307087,21.7322835 78.9370079,21.7322835 C78.5433071,21.7322835 78.2283465,22.0472441 78.2283465,22.4409449 L78.2283465,53.7795276 C78.2283465,54.6456693 77.5984252,55.4330709 76.7322835,55.5905512 C75.7874016,55.6692913 74.9212598,55.0393701 74.8425197,54.0944882 L73.1889764,37.6377953 C73.1889764,37.2440945 72.7952756,36.9291339 72.4015748,36.9291339 C72.007874,36.9291339 71.6929134,37.2440945 71.6929134,37.6377953 L70.4330709,53.9370079 C70.3543307,54.8031496 69.6456693,55.511811 68.7007874,55.511811 L68.3858268,55.511811 C67.4409449,55.511811 66.6535433,54.7244094 66.6535433,53.7795276 L66.6535433,22.4409449 C66.6535433,22.0472441 66.3385827,21.7322835 65.9448819,21.7322835 C65.6299213,21.7322835 65.3937008,21.8897638 65.3149606,22.2047244 C65.3149606,21.8110236 65.7086614,21.4173228 66.1023622,21.4173228 C66.496063,21.4173228 66.8897638,21.7322835 66.8897638,22.2047244 L68.1496063,35.0393701 C68.2283465,35.7480315 68.7007874,36.2992126 69.4094488,36.3779528 C70.3543307,36.5354331 71.1417323,35.8267717 71.1417323,34.9606299 L71.1417323,22.4409449 C71.1417323,18.8976378 69.7244094,15.6692913 67.3622047,13.3070866 C68.7795276,12.4409449 70.4330709,11.9685039 72.2440945,11.8897638 C78.1496063,11.7322835 83.1102362,16.5354331 83.1102362,22.519685 Z" id="Path" fill="#C2C2C2"></path>
                        <circle id="Oval" fill="#C2C2C2" cx="72.480315" cy="5.35433071" r="4.96062992"></circle>
                        <path d="M16.4173228,22.2047244 C16.4173228,22.0472441 16.496063,21.9685039 16.496063,21.8897638 C16.4173228,21.9685039 16.4173228,22.0472441 16.4173228,22.2047244 L16.496063,53.4645669 C16.496063,54.3307087 15.8661417,55.1181102 15,55.2755906 C14.0551181,55.3543307 13.1889764,54.7244094 13.1102362,53.7795276 L11.4566929,37.3228346 C11.4566929,36.9291339 11.0629921,36.6141732 10.6692913,36.6141732 C10.2755906,36.6141732 9.96062992,36.9291339 9.96062992,37.3228346 L8.62204724,53.7007874 C8.54330709,54.5669291 7.83464567,55.2755906 6.88976378,55.2755906 L6.57480315,55.2755906 C5.62992126,55.2755906 4.84251969,54.488189 4.84251969,53.5433071 L4.84251969,22.1259843 C4.84251969,21.7322835 4.52755906,21.4173228 4.13385827,21.4173228 C3.81889764,21.4173228 3.50393701,21.6535433 3.42519685,22.0472441 L2.4015748,32.6771654 C2.32283465,33.3070866 1.8503937,33.7795276 1.22047244,33.7795276 C0.511811024,33.7795276 0.0393700787,33.2283465 0.0393700787,32.5984252 L0.0393700787,22.4409449 C0.0393700787,16.6141732 4.60629921,11.7322835 10.3543307,11.5748031 C12.5590551,11.496063 14.5275591,12.1259843 16.2598425,13.1496063 C13.8188976,15.5905512 12.3228346,18.976378 12.3228346,22.5984252 L12.3228346,34.8818898 C12.3228346,35.6692913 12.9527559,36.3779528 13.8188976,36.3779528 C14.6062992,36.3779528 15.2362205,35.8267717 15.2362205,35.0393701 L16.4173228,22.2047244 Z" id="Path" fill="#C2C2C2"></path>
                        <path d="M17.992126,22.2834646 L17.992126,24.5669291 L17.7559055,22.1259843 C17.7559055,21.8110236 17.519685,21.5748031 17.2047244,21.496063 C17.6771654,21.496063 17.992126,21.8110236 17.992126,22.2834646 Z" id="Path" fill="#2B3B4E"></path>
                        <circle id="Oval" fill="#C2C2C2" cx="10.5905512" cy="5.11811024" r="4.96062992"></circle>
                    </g>
                    <path d="M58.6614173,41.8897638 C58.8188976,41.8897638 58.976378,41.9685039 59.1338583,42.0472441 C59.0551181,42.0472441 58.8976378,41.9685039 58.8188976,41.9685039 C58.4251969,41.9685039 58.0314961,42.2834646 58.0314961,42.7559055 L57.7952756,45.2755906 L57.7952756,42.7559055 C57.7952756,42.2834646 58.1889764,41.8897638 58.6614173,41.8897638 Z" id="Path" fill="#FF7058"></path>
                    <path d="M79.5275591,42.9133858 L79.5275591,55.4330709 C79.5275591,56.2992126 78.7401575,57.007874 77.7952756,56.8503937 C77.0866142,56.7716535 76.6141732,56.1417323 76.5354331,55.511811 L75.3543307,42.6771654 C75.3543307,42.2834646 74.9606299,41.8897638 74.5669291,41.8897638 C74.0944882,41.8897638 73.7007874,42.2834646 73.7007874,42.7559055 L73.7007874,80.5511811 C73.7007874,81.5748031 72.9133858,82.5984252 71.8897638,82.6771654 C70.7086614,82.8346457 69.7637795,81.9685039 69.6062992,80.8661417 L67.6377953,61.023622 C67.5590551,60.5511811 67.2440945,60.2362205 66.7716535,60.2362205 C66.2992126,60.2362205 65.9055118,60.6299213 65.9055118,61.1023622 L64.1732283,80.8661417 C64.0944882,81.8897638 63.1496063,82.7559055 62.1259843,82.7559055 L61.7322835,82.7559055 C60.6299213,82.7559055 59.6850394,81.8110236 59.6850394,80.7086614 L59.6850394,43.7007874 L60.8661417,56.5354331 C60.9448819,57.2440945 61.496063,57.8740157 62.2047244,58.0314961 C63.2283465,58.1889764 64.015748,57.4015748 64.015748,56.4566929 L64.015748,42.9133858 C64.015748,38.7401575 62.2047244,35.0393701 59.2913386,32.4409449 C61.2598425,31.023622 63.7007874,30.1574803 66.2992126,30.0787402 C73.6220472,29.8425197 79.5275591,35.6692913 79.5275591,42.9133858 Z" id="Path" fill="#878787"></path>
                    <circle id="Oval" fill="#878787" cx="66.6929134" cy="22.1259843" r="5.98425197"></circle>
                    <path d="M36.2204724,43.1496063 L36.2204724,56.4566929 C36.2204724,57.3228346 36.9291339,58.0314961 37.7952756,58.0314961 L37.7952756,58.0314961 C38.5826772,58.0314961 39.2913386,57.4015748 39.3700787,56.6141732 L40.5511811,43.6220472 L40.5511811,80.5511811 C40.5511811,81.5748031 39.7637795,82.5984252 38.7401575,82.6771654 C37.6377953,82.8346457 36.6141732,81.9685039 36.4566929,80.8661417 L34.4094488,61.023622 C34.3307087,60.5511811 33.9370079,60.2362205 33.5433071,60.2362205 C33.0708661,60.2362205 32.6771654,60.5511811 32.6771654,61.023622 L31.023622,80.8661417 C30.9448819,81.8897638 30,82.7559055 28.976378,82.7559055 L28.5826772,82.7559055 C27.480315,82.7559055 26.5354331,81.8110236 26.5354331,80.7086614 L26.5354331,42.7559055 C26.5354331,42.2834646 26.1417323,41.8897638 25.6692913,41.8897638 C25.2755906,41.8897638 24.8818898,42.2047244 24.8818898,42.6771654 L23.6220472,55.511811 C23.5433071,56.2992126 22.9133858,56.8503937 22.2047244,56.8503937 L22.2047244,56.8503937 C21.4173228,56.8503937 20.7086614,56.2204724 20.7086614,55.3543307 L20.7086614,43.1496063 C20.7086614,36.1417323 26.2204724,30.2362205 33.1496063,30.0787402 C36.0629921,30 38.7401575,30.8661417 40.9448819,32.4409449 C38.0314961,35.0393701 36.2204724,38.8976378 36.2204724,43.1496063 Z" id="Path" fill="#878787"></path>
                    <path d="M25.6692913,41.9685039 C25.3543307,41.9685039 25.1181102,42.1259843 24.9606299,42.3622047 C25.0393701,42.1259843 25.2755906,41.8897638 25.6692913,41.9685039 C25.5905512,41.8897638 25.5905512,41.8897638 25.6692913,41.9685039 Z" id="Path" fill="#84DBFF"></path>
                    <path d="M42.4409449,42.7559055 L42.4409449,45.2755906 L42.2047244,42.6771654 C42.2047244,42.2834646 41.8110236,41.8897638 41.4173228,41.8897638 C41.3385827,41.8897638 41.1811024,41.8897638 41.1023622,41.9685039 C41.2598425,41.8897638 41.4173228,41.8110236 41.5748031,41.8110236 C42.0472441,41.8897638 42.4409449,42.2834646 42.4409449,42.7559055 Z" id="Path" fill="#84DBFF"></path>
                    <circle id="Oval" fill="#878787" cx="33.5433071" cy="22.1259843" r="5.98425197"></circle>
                    <g id="Group" transform="translate(36.220472, 13.779528)" fill="#DDDDDD">
                        <path d="M13.5433071,15.1968504 C5.98425197,15.4330709 0,21.8110236 0,29.4488189 L0,42.7559055 C0,43.6220472 0.708661417,44.3307087 1.57480315,44.3307087 L1.57480315,44.3307087 C2.36220472,44.3307087 3.07086614,43.7007874 3.1496063,42.9133858 L4.48818898,28.976378 C4.56692913,28.503937 4.88188976,28.1889764 5.35433071,28.1889764 C5.82677165,28.1889764 6.22047244,28.5826772 6.22047244,29.0551181 L6.22047244,70.2362205 C6.22047244,71.496063 7.24409449,72.4409449 8.42519685,72.4409449 L8.8976378,72.4409449 C10.0787402,72.4409449 11.023622,71.5748031 11.1023622,70.3937008 L12.9133858,48.8188976 C12.992126,48.3464567 13.3858268,47.9527559 13.8582677,47.9527559 C14.3307087,47.9527559 14.8031496,48.3464567 14.8031496,48.8188976 L17.007874,70.4724409 C17.1653543,71.6535433 18.2677165,72.5984252 19.4488189,72.4409449 C20.6299213,72.2834646 21.4173228,71.2598425 21.4173228,70.0787402 L21.4173228,28.976378 C21.4173228,28.503937 21.8110236,28.1102362 22.2834646,28.1102362 C22.7559055,28.1102362 23.1496063,28.4251969 23.1496063,28.8976378 L24.488189,42.8346457 C24.5669291,43.5433071 25.1181102,44.1732283 25.8267717,44.3307087 C26.8503937,44.488189 27.6377953,43.7007874 27.6377953,42.7559055 L27.6377953,29.1338583 C27.8740157,21.2598425 21.4173228,14.9606299 13.5433071,15.1968504 Z" id="Path"></path>
                        <path d="M4.88188976,28.1889764 C4.64566929,28.3464567 4.48818898,28.5826772 4.48818898,28.8976378 L4.33070866,29.8425197 L4.33070866,28.976378 C4.33070866,28.6614173 4.56692913,28.3464567 4.88188976,28.1889764 Z" id="Path"></path>
                        <circle id="Oval" cx="13.9370079" cy="6.61417323" r="6.53543307"></circle>
                    </g>
                </g>
            </g>
        </g>
    </g>
</svg>