<?xml version="1.0" encoding="UTF-8"?>
<svg width="116px" height="116px" viewBox="0 0 116 116" version="1.1" xmlns="http://www.w3.org/2000/svg" xmlns:xlink="http://www.w3.org/1999/xlink">
    <!-- Generator: Sketch 56.3 (81716) - https://sketch.com -->
    <title>Group 8</title>
    <desc>Created with Sketch.</desc>
    <defs>
        <filter x="-16.0%" y="-16.0%" width="132.0%" height="132.0%" filterUnits="objectBoundingBox" id="filter-1">
            <feOffset dx="0" dy="0" in="SourceAlpha" result="shadowOffsetOuter1"></feOffset>
            <feGaussianBlur stdDeviation="4" in="shadowOffsetOuter1" result="shadowBlurOuter1"></feGaussianBlur>
            <feColorMatrix values="0 0 0 0 0.0392156863   0 0 0 0 0.121568627   0 0 0 0 0.266666667  0 0 0 0.1 0" type="matrix" in="shadowBlurOuter1" result="shadowMatrixOuter1"></feColorMatrix>
            <feMerge>
                <feMergeNode in="shadowMatrixOuter1"></feMergeNode>
                <feMergeNode in="SourceGraphic"></feMergeNode>
            </feMerge>
        </filter>
    </defs>
    <g id="DESIGN--v3" stroke="none" stroke-width="1" fill="none" fill-rule="evenodd">
        <g id="HoverTest_1.1" transform="translate(-771.000000, -817.000000)" fill-rule="nonzero">
            <g id="Group-8" filter="url(#filter-1)" transform="translate(779.013241, 825.000000)">
                <path d="M21.4008212,72.0544922 L27.5476962,78.2013672 L35.021329,77.4035156 L43.5740633,68.8046875 C44.7127352,67.6603516 44.7098055,65.8091797 43.5683993,64.6675781 L35.305704,56.4048828 C34.1641024,55.2662109 32.3158602,55.2605469 31.1685946,56.3992188 L22.5689852,64.9525391 L21.4008212,72.0544922 Z" id="Path" fill="#FFFFFF"></path>
                <path d="M61.8875399,0 C40.9107821,0 23.8016024,17.1091797 23.8016024,38.0859375 C23.8016024,59.0623047 40.9107821,76.171875 61.8875399,76.171875 C82.8642977,76.171875 99.9734774,59.0623047 99.9734774,38.0859375 C99.9734774,17.1091797 82.8642977,0 61.8875399,0 Z" id="Path" fill="#FFFFFF"></path>
                <path d="M99.9734774,38.0859375 C99.9734774,59.0623047 82.8642977,76.171875 61.8875399,76.171875 L61.8875399,0 C82.8642977,0 99.9734774,17.1091797 99.9734774,38.0859375 Z" id="Path" fill="#FFFFFF"></path>
                <path d="M94.1141024,38.0859375 C94.1141024,55.8396484 79.6416415,70.3125 61.8875399,70.3125 C44.1334383,70.3125 29.6609774,55.8396484 29.6609774,38.0859375 C29.6609774,20.3318359 44.1334383,5.859375 61.8875399,5.859375 C79.6416415,5.859375 94.1141024,20.3318359 94.1141024,38.0859375 Z" id="Path" fill="#EEEEEE"></path>
                <path d="M8.8016024,100 C6.52132897,100 4.32699303,99.1101563 2.62464928,97.4966797 C-0.865780409,94.00625 -0.865780409,88.4158203 2.5703524,84.9796875 L22.571329,64.9394531 L35.0340243,77.4021484 L15.0328524,97.4421875 C13.2762118,99.1101563 11.0818758,100 8.8016024,100 Z" id="Path" fill="#878787"></path>
                <path d="M61.8875399,17.578125 C57.0240633,17.578125 53.0984774,21.5037109 53.0984774,26.3671875 C53.0984774,31.2302734 57.0240633,35.15625 61.8875399,35.15625 C66.7510165,35.15625 70.6766024,31.2302734 70.6766024,26.3671875 C70.6766024,21.5037109 66.7510165,17.578125 61.8875399,17.578125 Z" id="Path" fill="#878787"></path>
                <path d="M61.8875399,35.15625 C53.8016024,35.15625 47.2391024,41.71875 47.2391024,49.8046875 L47.2391024,55.6640625 C47.2391024,57.3044922 48.5279696,58.59375 50.1687899,58.59375 L73.6062899,58.59375 C75.2471102,58.59375 76.5359774,57.3044922 76.5359774,55.6640625 L76.5359774,49.8046875 C76.5359774,41.71875 69.9734774,35.15625 61.8875399,35.15625 Z" id="Path" fill="#878787"></path>
            </g>
        </g>
    </g>
</svg>