<?xml version="1.0" encoding="UTF-8"?>
<svg width="113px" height="118px" viewBox="0 0 113 118" version="1.1" xmlns="http://www.w3.org/2000/svg" xmlns:xlink="http://www.w3.org/1999/xlink">
    <!-- Generator: Sketch 56.3 (81716) - https://sketch.com -->
    <title>Group 15</title>
    <desc>Created with Sketch.</desc>
    <defs>
        <path d="M79.7328613,19.3359375 L63.7660645,19.3359375 L63.7660645,3.22265625 C63.7660645,1.41775391 62.3611992,0 60.5727051,0 L9.58007813,0 C4.27867578,0 5.68434189e-14,4.31814453 5.68434189e-14,9.66796875 L5.68434189e-14,100.332031 C5.68434189e-14,105.681426 4.27867578,110 9.58007813,110 L73.3461426,110 C78.6475449,110 82.9262207,105.681426 82.9262207,100.332031 L82.9262207,22.5585938 C82.9262207,20.7536914 81.5213555,19.3359375 79.7328613,19.3359375 Z" id="path-1"></path>
        <filter x="-7.2%" y="-5.5%" width="114.5%" height="110.9%" filterUnits="objectBoundingBox" id="filter-2">
            <feOffset dx="0" dy="0" in="SourceAlpha" result="shadowOffsetOuter1"></feOffset>
            <feGaussianBlur stdDeviation="2" in="shadowOffsetOuter1" result="shadowBlurOuter1"></feGaussianBlur>
            <feColorMatrix values="0 0 0 0 0.0392156863   0 0 0 0 0.121568627   0 0 0 0 0.266666667  0 0 0 0.1 0" type="matrix" in="shadowBlurOuter1"></feColorMatrix>
        </filter>
    </defs>
    <g id="DESIGN--v3" stroke="none" stroke-width="1" fill="none" fill-rule="evenodd">
        <g id="HoverTest_1.1" transform="translate(-1254.000000, -574.000000)" fill-rule="nonzero">
            <g id="Group-15" transform="translate(1258.000000, 578.000000)">
                <g id="Group-14">
                    <g id="Path">
                        <use fill="black" fill-opacity="1" filter="url(#filter-2)" xlink:href="#path-1"></use>
                        <use fill="#FFFFFF" xlink:href="#path-1"></use>
                    </g>
                    <path d="M82.9262207,22.5585938 L82.9262207,100.332031 C82.9262207,105.681426 78.6475449,110 73.3461426,110 L41.4125488,110 L41.4125488,0 L60.5727051,0 C62.3611992,0 63.7660645,1.41775391 63.7660645,3.22265625 L63.7660645,19.3359375 L79.7328613,19.3359375 C81.5213555,19.3359375 82.9262207,20.7536914 82.9262207,22.5585938 Z" id="Path" fill="#FFFFFF"></path>
                    <path d="M82.9262207,25.78125 L60.5727051,25.78125 C58.8076289,25.78125 57.3793457,24.3398633 57.3793457,22.5585938 L57.3793457,0 L64.3398047,0 C66.8470176,0 69.3044141,1.02587891 71.075877,2.81660156 L80.1382051,11.965293 C81.9094551,13.7592383 82.9262207,16.2327344 82.9262207,18.7567188 L82.9262207,25.78125 Z" id="Path" fill="#DBDBDB"></path>
                    <path d="M106.17409,34.546875 C102.597953,30.8730469 96.2112344,30.8730469 92.6342461,34.546875 L89.3770195,37.8986523 L87.0778008,40.1542969 C85.8000313,41.3789062 85.8000313,43.4414062 87.0778008,44.6660156 L91.6121582,49.2424023 L96.1471543,53.8183594 C97.2963379,55.1074219 99.4684609,55.1074219 100.617645,53.8183594 L102.916863,51.5627148 L106.17409,48.2109375 C109.942041,44.6013477 109.942041,38.1560352 106.17409,34.546875 Z" id="Path" fill="#909090"></path>
                    <path d="M69.7693672,71.2851562 L63.190834,64.6462695 C63.0637383,64.5175781 62.935791,64.5175781 62.8080566,64.6462695 L62.6170938,64.7753906 C62.2334648,65.1621094 61.9777832,65.6132812 61.8498359,66.0644531 L57.3154785,79.7929687 C56.8679824,81.0818164 57.2516113,82.3064258 58.0818848,83.0800781 L58.0818848,83.1441016 C58.9760254,83.9819922 60.1892891,84.3042578 61.3391113,83.8533008 L74.9428223,79.2769141 C75.3903184,79.147793 75.8369629,78.8901953 76.2199531,78.5034766 L76.3479004,78.3743555 C76.4758477,78.2456641 76.4758477,78.1167578 76.3479004,77.9876367 C74.2404961,75.796875 71.9412773,73.4763477 69.7693672,71.2851562 Z" id="Path" fill="#DBDBDB"></path>
                    <path d="M60.5727051,38.671875 L15.9667969,38.671875 C11.7522012,38.671875 11.7522012,32.2265625 15.9667969,32.2265625 L60.5727051,32.2265625 C64.7875137,32.2265625 64.7875137,38.671875 60.5727051,38.671875 Z" id="Path" fill="#DBDBDB"></path>
                    <path d="M47.7992676,51.5625 L15.9667969,51.5625 C11.7522012,51.5625 11.7522012,45.1171875 15.9667969,45.1171875 L47.7992676,45.1171875 C52.0140762,45.1171875 52.0140762,51.5625 47.7992676,51.5625 Z" id="Path" fill="#DBDBDB"></path>
                    <path d="M47.7992676,64.453125 L15.9667969,64.453125 C11.7522012,64.453125 11.7522012,58.0078125 15.9667969,58.0078125 L47.7992676,58.0078125 C52.0140762,58.0078125 52.0140762,64.453125 47.7992676,64.453125 Z" id="Path" fill="#DBDBDB"></path>
                    <path d="M47.7992676,77.34375 L15.9667969,77.34375 C11.7522012,77.34375 11.7522012,70.8984375 15.9667969,70.8984375 L47.7992676,70.8984375 C52.0140762,70.8984375 52.0140762,77.34375 47.7992676,77.34375 Z" id="Path" fill="#DBDBDB"></path>
                    <path d="M60.5727051,97.109375 L41.4125488,97.109375 C37.1979531,97.109375 37.1979531,90.6640625 41.4125488,90.6640625 L60.5727051,90.6640625 C64.7875137,90.6640625 64.7875137,97.109375 60.5727051,97.109375 Z" id="Path" fill="#DBDBDB"></path>
                    <path d="M102.91665,51.5625 L100.617432,53.8181445 C87.9719414,66.515625 92.1865371,62.2615039 80.8179648,73.734375 C80.8179648,73.8630664 76.2836074,78.4392383 76.2197402,78.5039063 C75.8369629,78.890625 75.3903184,79.1482227 74.9426094,79.2773438 L61.849623,66.0644531 C61.9775703,65.6132813 62.233252,65.1621094 62.6168809,64.7753906 C62.680748,64.7109375 67.2151055,60.1345508 67.3430527,60.1345508 C75.6453613,51.7556445 71.5576484,55.9453125 87.0778008,40.1542969 L89.3129395,37.8339844 L102.91665,51.5625 Z" id="Path" fill="#C0C0C0"></path>
                    <g id="Group" transform="translate(41.300781, 32.226562)" fill="#DBDBDB">
                        <path d="M6.49848633,45.1171875 L0.111767578,45.1171875 L0.111767578,38.671875 L6.49848633,38.671875 C10.7132949,38.671875 10.7132949,45.1171875 6.49848633,45.1171875 Z" id="Path"></path>
                        <path d="M6.49848633,32.2265625 L0.111767578,32.2265625 L0.111767578,25.78125 L6.49848633,25.78125 C10.7132949,25.78125 10.7132949,32.2265625 6.49848633,32.2265625 Z" id="Path"></path>
                        <path d="M6.49848633,19.3359375 L0.111767578,19.3359375 L0.111767578,12.890625 L6.49848633,12.890625 C10.7132949,12.890625 10.7132949,19.3359375 6.49848633,19.3359375 Z" id="Path"></path>
                        <path d="M19.2719238,64.8828125 L0.111767578,64.8828125 L0.111767578,58.4375 L19.2719238,58.4375 C23.4867324,58.4375 23.4867324,64.8828125 19.2719238,64.8828125 Z" id="Path"></path>
                        <path d="M19.2719238,6.4453125 L0.111767578,6.4453125 L0.111767578,0 L19.2719238,0 C23.4867324,0 23.4867324,6.4453125 19.2719238,6.4453125 Z" id="Path"></path>
                    </g>
                </g>
            </g>
        </g>
    </g>
</svg>