<?xml version="1.0" encoding="UTF-8"?>
<svg width="106px" height="108px" viewBox="0 0 106 108" version="1.1" xmlns="http://www.w3.org/2000/svg" xmlns:xlink="http://www.w3.org/1999/xlink">
    <!-- Generator: Sketch 56.3 (81716) - https://sketch.com -->
    <title>Group 19</title>
    <desc>Created with Sketch.</desc>
    <defs>
        <path d="M53.1239515,8.61250654 L1.3232166,60.9476938 C-0.441072202,62.715605 -0.441072202,65.5833111 1.3232166,67.3530135 L37.9067371,104.011647 C39.6710259,105.779558 42.5328561,105.779558 44.2989324,104.011647 L94.737572,52.1027642 L94.737572,8.61250654 L53.1239515,8.61250654 Z M76.8623054,33.6892613 C72.9136591,33.6892613 69.7121988,30.4812279 69.7121988,26.5244743 C69.7121988,22.5677206 72.9136591,19.3596872 76.8623054,19.3596872 C80.8109518,19.3596872 84.012412,22.5677206 84.012412,26.5244743 C84.012412,30.4812279 80.8109518,33.6892613 76.8623054,33.6892613 Z" id="path-1"></path>
        <filter x="-3.2%" y="-3.1%" width="106.3%" height="106.2%" filterUnits="objectBoundingBox" id="filter-2">
            <feOffset dx="0" dy="0" in="SourceAlpha" result="shadowOffsetOuter1"></feOffset>
            <feGaussianBlur stdDeviation="1" in="shadowOffsetOuter1" result="shadowBlurOuter1"></feGaussianBlur>
            <feColorMatrix values="0 0 0 0 0.0392156863   0 0 0 0 0.121568627   0 0 0 0 0.266666667  0 0 0 0.12 0" type="matrix" in="shadowBlurOuter1"></feColorMatrix>
        </filter>
    </defs>
    <g id="DESIGN--v3" stroke="none" stroke-width="1" fill="none" fill-rule="evenodd">
        <g id="HoverTest_1.1" transform="translate(-1014.000000, -580.000000)">
            <g id="Group-19" transform="translate(1016.000000, 580.000000)">
                <g id="Group-12">
                    <g id="Shape" fill-rule="nonzero">
                        <use fill="black" fill-opacity="1" filter="url(#filter-2)" xlink:href="#path-1"></use>
                        <use fill="#FFFFFF" xlink:href="#path-1"></use>
                    </g>
                    <path d="M77.1813086,12.5875096 C69.3151917,12.5875096 62.9375478,18.9651535 62.9375478,26.8312704 C62.9375478,34.6973873 69.3151917,41.0750312 77.1813086,41.0750312 C85.0474255,41.0750312 91.4250694,34.6973873 91.4250694,26.8312704 C91.4250694,18.9651535 85.0474255,12.5875096 77.1813086,12.5875096 Z M77.1813086,33.9531508 C73.2482502,33.9531508 70.0594282,30.7643288 70.0594282,26.8312704 C70.0594282,22.8982119 73.2482502,19.70939 77.1813086,19.70939 C81.1143671,19.70939 84.303189,22.8982119 84.303189,26.8312704 C84.303189,30.7643288 81.1143671,33.9531508 77.1813086,33.9531508 Z" id="Shape" fill="#DBDBDB" fill-rule="nonzero"></path>
                    <path d="M77.3059169,28.4875216 C76.8501308,28.4875216 76.3943447,28.3130383 76.0471639,27.965852 C75.3510218,27.2696991 75.3510218,26.1444596 76.0471639,25.4483067 L100.972966,0.522114699 C101.669108,-0.174038233 102.79433,-0.174038233 103.490472,0.522114699 C104.186615,1.21826763 104.186615,2.34350715 103.490472,3.03966009 L78.56467,27.965852 C78.2174891,28.3130383 77.761703,28.4875216 77.3059169,28.4875216 Z" id="Path" fill="#FFFFFF" fill-rule="nonzero"></path>
                    <text id="£" transform="translate(43.562513, 60.000000) rotate(43.000000) translate(-43.562513, -60.000000) " font-family="EYInterstate-Light, EYInterstate" font-size="60" font-weight="300" fill="#DBDBDB">
                        <tspan x="27" y="82">£</tspan>
                    </text>
                </g>
                <g id="Group-17" transform="translate(47.000000, 70.000000)">
                    <g id="Group-7">
                        <circle id="Oval" fill="#B0B0B0" cx="18.5" cy="18.5" r="18.5"></circle>
                        <path d="M27.4512443,13.3266452 C27.5357449,13.7906179 27.0644611,14.1356153 26.738103,14.0285685 C26.4844437,13.9810094 22.9958422,12.8109306 22.8749921,12.7872285 C22.6575249,12.7396693 22.4883663,12.5849085 22.4158248,12.3827434 C22.3553997,12.1684949 22.4158248,11.9424728 22.5728669,11.7878669 L23.2698004,11.0898164 C21.8800247,9.84057566 19.9906408,9.03950621 17.9725391,9.03950621 C13.6460123,9.03950621 10.0770014,12.5531508 10.0770014,16.8125598 C10.0770014,17.0980696 10.1012343,17.4193649 10.1374264,17.7524338 C10.1616593,17.9428253 10.0891178,18.1212882 9.94403482,18.2520372 C9.81122563,18.382941 9.60571756,18.4424286 9.42444245,18.406798 L8.17959237,18.1569189 C7.9138166,18.1093597 7.72042503,17.8952661 7.69634944,17.6334585 C7.67211647,17.4311385 7.66,17.1694858 7.66,16.8362619 C7.66,16.8244883 7.66,16.8244883 7.66,16.8125598 C7.66,11.2326487 12.3047024,6.66 17.9725391,6.66 C20.6553162,6.66 23.1610668,7.72287708 24.9859343,9.40030503 L25.5780682,8.82928552 C25.7351104,8.67467957 25.9648514,8.61519191 26.1702021,8.67467957 C26.3878266,8.73416722 26.5327523,8.90070168 26.5931773,9.11479529 C26.5931773,9.11479529 27.4270113,13.207515 27.4512443,13.3266452 L27.4512443,13.3266452 Z" id="Path" fill="#FFFFFF" fill-rule="nonzero"></path>
                        <path d="M29.08,19.8928263 L29.08,19.9286077 C29.08,25.5078771 24.4353635,30.08 18.7676073,30.08 C16.072752,30.08 13.567037,29.0172451 11.7421953,27.3398552 L11.1621862,27.9109639 C11.0292216,28.053625 10.8238738,28.1250329 10.5700608,28.0655521 C10.3525966,28.0060713 10.1953994,27.8276289 10.1470915,27.6135599 C10.0987836,27.3637095 9.31326935,23.5330831 9.28903676,23.4141215 C9.25284517,23.2237519 9.31326935,23.0096829 9.45819299,22.8787941 C9.59115764,22.7361331 9.78454646,22.6766523 9.99005158,22.7122788 C9.99005158,22.7122788 13.7443756,23.9296219 13.8652239,23.9534761 C14.0826881,24.0010298 14.2518443,24.1557728 14.3243848,24.3580696 C14.3848089,24.5721385 14.3243848,24.7981347 14.1673448,24.9528777 L13.4704212,25.6387659 C14.8601772,26.8997901 16.7495342,27.7007674 18.7676073,27.7007674 C23.0940727,27.7007674 26.663033,24.1873721 26.663033,19.9286077 C26.663033,19.6668302 26.6388004,19.3337996 26.6026088,18.9888418 C26.5783762,18.7984722 26.6509167,18.6081026 26.7959976,18.4772139 C26.9288049,18.3463251 27.1343101,18.2987714 27.3155826,18.3345528 L28.560415,18.5844032 C28.826187,18.6319569 29.0195758,18.8460259 29.0436511,19.1078034 C29.0678837,19.3694261 29.08,19.6312036 29.08,19.8928263 L29.08,19.8928263 Z" id="Path" fill="#FFFFFF" fill-rule="nonzero"></path>
                    </g>
                    <g id="refresh" transform="translate(7.660000, 6.660000)"></g>
                </g>
            </g>
        </g>
    </g>
</svg>