<?xml version="1.0" encoding="UTF-8"?>
<svg width="108px" height="119px" viewBox="0 0 108 119" version="1.1" xmlns="http://www.w3.org/2000/svg" xmlns:xlink="http://www.w3.org/1999/xlink">
    <!-- Generator: Sketch 56.3 (81716) - https://sketch.com -->
    <title>Group 20</title>
    <desc>Created with Sketch.</desc>
    <defs>
        <filter x="-11.0%" y="-9.9%" width="122.0%" height="119.8%" filterUnits="objectBoundingBox" id="filter-1">
            <feOffset dx="0" dy="0" in="SourceAlpha" result="shadowOffsetOuter1"></feOffset>
            <feGaussianBlur stdDeviation="2" in="shadowOffsetOuter1" result="shadowBlurOuter1"></feGaussianBlur>
            <feColorMatrix values="0 0 0 0 0.0392156863   0 0 0 0 0.121568627   0 0 0 0 0.266666667  0 0 0 0.12 0" type="matrix" in="shadowBlurOuter1" result="shadowMatrixOuter1"></feColorMatrix>
            <feMerge>
                <feMergeNode in="shadowMatrixOuter1"></feMergeNode>
                <feMergeNode in="SourceGraphic"></feMergeNode>
            </feMerge>
        </filter>
        <filter x="-4.0%" y="-3.6%" width="108.0%" height="107.2%" filterUnits="objectBoundingBox" id="filter-2">
            <feOffset dx="0" dy="0" in="SourceAlpha" result="shadowOffsetOuter1"></feOffset>
            <feGaussianBlur stdDeviation="1" in="shadowOffsetOuter1" result="shadowBlurOuter1"></feGaussianBlur>
            <feColorMatrix values="0 0 0 0 0.0392156863   0 0 0 0 0.121568627   0 0 0 0 0.266666667  0 0 0 0.1 0" type="matrix" in="shadowBlurOuter1" result="shadowMatrixOuter1"></feColorMatrix>
            <feMerge>
                <feMergeNode in="shadowMatrixOuter1"></feMergeNode>
                <feMergeNode in="SourceGraphic"></feMergeNode>
            </feMerge>
        </filter>
    </defs>
    <g id="DESIGN--v3" stroke="none" stroke-width="1" fill="none" fill-rule="evenodd">
        <g id="HoverTest_1.1" transform="translate(-69.000000, -819.000000)" fill-rule="nonzero">
            <g id="Group-20" filter="url(#filter-1)" transform="translate(73.000000, 823.000000)">
                <g id="Group-16" filter="url(#filter-2)">
                    <path d="M76.7857143,83.9285714 L73.2142857,83.9285714 L26.7857143,83.9285714 L23.2142857,83.9285714 C21.25,83.9285714 19.6428571,85.5357143 19.6428571,87.5 L19.6428571,107.142857 C19.6428571,109.107143 21.25,110.714286 23.2142857,110.714286 L76.7857143,110.714286 C78.75,110.714286 80.3571429,109.107143 80.3571429,107.142857 L80.3571429,87.5 C80.3571429,85.5357143 78.75,83.9285714 76.7857143,83.9285714 Z" id="Path" fill="#FFFFFF"></path>
                    <path d="M53.5714286,60.5 L53.5714286,78.5714286 L46.4285714,78.5714286 L46.4285714,60.5178571 L46.4285714,60.5 C47.5892857,60.6428571 48.7857143,60.7142857 50,60.7142857 C51.2142857,60.7142857 52.4107143,60.6428571 53.5714286,60.5 Z" id="Path" fill="#FFFFFF"></path>
                    <path d="M73.2142857,82.1428571 L73.2142857,83.9285714 L26.7857143,83.9285714 L26.7857143,82.1428571 C26.7857143,80.1607143 28.375,78.5714286 30.3571429,78.5714286 L46.4285714,78.5714286 L53.5714286,78.5714286 L69.6428571,78.5714286 C71.625,78.5714286 73.2142857,80.1607143 73.2142857,82.1428571 Z" id="Path" fill="#EEEEEE"></path>
                    <path d="M66.0714286,94.6428571 L66.0714286,100 C65.0892857,100 64.2857143,100.803571 64.2857143,101.785714 L35.7142857,101.785714 C35.7142857,100.803571 34.9107143,100 33.9285714,100 L33.9285714,94.6428571 C34.9107143,94.6428571 35.7142857,93.8392857 35.7142857,92.8571429 L64.2857143,92.8571429 C64.2857143,93.8392857 65.0892857,94.6428571 66.0714286,94.6428571 Z" id="Path" fill="#A6A6A6"></path>
                    <path d="M20.4821429,37.5178571 C20.9482143,39.375 21.5553571,41.1785714 22.3392857,42.875 L19.6428571,42.875 C8.78571429,42.875 0.0178571429,34.1071429 -3.55271368e-14,23.2321429 L-3.55271368e-14,23.2142857 L-3.55271368e-14,10.7125 L1.78392857,8.92857143 L19.6428571,8.92857143 L19.6428571,14.2857143 L5.35714286,14.2857143 L5.35714286,23.2142857 L5.35714286,23.2321429 C5.375,31.1446429 11.75,37.5178571 19.6428571,37.5178571 L20.4821429,37.5178571 Z" id="Path" fill="#FFFFFF"></path>
                    <path d="M100,10.7125 L100,23.2142857 L100,23.2321429 C99.9821429,34.1071429 91.2142857,42.875 80.3571429,42.875 L77.6607143,42.875 C78.4446429,41.1785714 79.0517857,39.375 79.5178571,37.5178571 L80.3571429,37.5178571 C88.25,37.5178571 94.625,31.1446429 94.6428571,23.2321429 L94.6428571,23.2142857 L94.6428571,14.2857143 L80.3571429,14.2857143 L80.3571429,8.92857143 L98.2125,8.92857143 L100,10.7125 Z" id="Path" fill="#FFFFFF"></path>
                    <path d="M80.3571429,14.2857143 L80.3571429,30.3571429 C80.3571429,32.8214286 80.0714286,35.2142857 79.5178571,37.5178571 C79.0517857,39.375 78.4446429,41.1785714 77.6607143,42.875 C73.3571429,52.3571429 64.3214286,59.25 53.5714286,60.5 C52.4107143,60.6428571 51.2142857,60.7142857 50,60.7142857 C48.7857143,60.7142857 47.5892857,60.6428571 46.4285714,60.5 C35.6785714,59.25 26.6428571,52.3571429 22.3392857,42.875 C21.5553571,41.1785714 20.9482143,39.375 20.4821429,37.5178571 C19.9285714,35.2142857 19.6428571,32.8214286 19.6428571,30.3571429 L19.6428571,14.2857143 L19.6428571,8.92857143 L19.6428571,1.78571429 L21.4285714,2.84217094e-14 L78.5696429,2.84217094e-14 L80.3571429,1.78571429 L80.3571429,8.92857143 L80.3571429,14.2857143 Z M62.5,30.375 L62.5,25 C62.5,18.0892857 56.9107143,12.5 50,12.5 C43.0892857,12.5 37.5,18.0892857 37.5,25 L37.5,30.375 C37.5,37.2678571 43.0892857,42.875 50,42.875 C56.9107143,42.875 62.5,37.2678571 62.5,30.375 Z" id="Shape" fill="#FFFFFF"></path>
                    <path d="M62.5,30.375 C62.5,37.2678571 56.9107143,42.875 50,42.875 C43.0892857,42.875 37.5,37.2678571 37.5,30.375 L37.5,25 C37.5,31.9107143 43.0892857,37.5 50,37.5 C56.9107143,37.5 62.5,31.9107143 62.5,25 L62.5,30.375 Z" id="Path" stroke="#FFFFFF" fill="#DBDBDB"></path>
                    <path d="M50,12.5 C43.0892857,12.5 37.5,18.0892857 37.5,25 C37.5,31.9107143 43.0892857,37.5 50,37.5 C56.9107143,37.5 62.5,31.9107143 62.5,25 C62.5,18.0892857 56.9107143,12.5 50,12.5 Z" id="Path" stroke="#B0B0B0" fill="#B0B0B0"></path>
                    <polygon id="Path" fill="#EEEEEE" points="55.625 23.7321429 52.8214286 26.4821429 53.4821429 30.3571429 50 28.5357143 46.5178571 30.3571429 47.1785714 26.4821429 44.375 23.7321429 48.25 23.1607143 50 19.6428571 51.75 23.1607143"></polygon>
                    <circle id="Oval" fill="#FFFFFF" cx="21.4285714" cy="1.78571429" r="1.78571429"></circle>
                    <circle id="Oval" fill="#FFFFFF" cx="98.2142857" cy="10.7142857" r="1.78571429"></circle>
                    <circle id="Oval" fill="#FFFFFF" cx="78.5714286" cy="1.78571429" r="1.78571429"></circle>
                    <circle id="Oval" fill="#FFFFFF" cx="1.78571429" cy="10.7142857" r="1.78571429"></circle>
                </g>
            </g>
        </g>
    </g>
</svg>