<?xml version="1.0" encoding="UTF-8"?>
<svg width="54px" height="54px" viewBox="0 0 54 54" version="1.1" xmlns="http://www.w3.org/2000/svg" xmlns:xlink="http://www.w3.org/1999/xlink">
    <!-- Generator: Sketch 56.3 (81716) - https://sketch.com -->
    <title>Group 2</title>
    <desc>Created with Sketch.</desc>
    <defs>
        <path d="M23,0 C35.7017941,0 46,10.2982059 46,23 C46,35.7003157 35.7017941,46 23,46 C10.2982059,46 0,35.7016298 0,23 C0,10.2983702 10.2967275,0 23,0 Z" id="path-1"></path>
        <filter x="-13.0%" y="-13.0%" width="126.1%" height="126.1%" filterUnits="objectBoundingBox" id="filter-2">
            <feOffset dx="0" dy="0" in="SourceAlpha" result="shadowOffsetOuter1"></feOffset>
            <feGaussianBlur stdDeviation="2" in="shadowOffsetOuter1" result="shadowBlurOuter1"></feGaussianBlur>
            <feColorMatrix values="0 0 0 0 0.0392156863   0 0 0 0 0.121568627   0 0 0 0 0.266666667  0 0 0 0.12 0" type="matrix" in="shadowBlurOuter1"></feColorMatrix>
        </filter>
    </defs>
    <g id="DESIGN--v3" stroke="none" stroke-width="1" fill="none" fill-rule="evenodd">
        <g id="3.7Warning" transform="translate(-36.000000, -109.000000)" fill-rule="nonzero">
            <g id="Group-2" transform="translate(40.000000, 113.000000)">
                <g id="hospital">
                    <g id="Path">
                        <use fill="black" fill-opacity="1" filter="url(#filter-2)" xlink:href="#path-1"></use>
                        <use fill="#EBEBEB" xlink:href="#path-1"></use>
                    </g>
                </g>
                <g id="warning" transform="translate(10.000000, 9.000000)">
                    <g id="Group">
                        <path d="M25.8460472,19.7720251 L13.6594913,0.363874586 C13.5176058,0.137462086 13.2674138,0 12.9981838,0 C12.728654,0 12.4785369,0.137758341 12.3365765,0.363874586 L0.117116335,19.8252028 C-0.0318146369,20.0624286 -0.0393848573,20.360905 0.0983032124,20.6047965 C0.235466613,20.848688 0.496301933,21 0.778423814,21 L25.2183935,21 L25.2217663,21 C25.6516949,21 26,20.6555301 26,20.2309974 C25.9994753,20.0587995 25.9425113,19.9003033 25.8460472,19.7720251 Z" id="Path" fill="#EDC92C"></path>
                        <path d="M12.0200406,13.1023254 L11.7349292,9.34721195 C11.6814761,8.61538212 11.6551724,8.08999828 11.6551724,7.77135823 C11.6551724,7.33762063 11.7843225,6.99917725 12.0421999,6.75625143 C12.3004156,6.51250668 12.6409254,6.39130435 13.0622069,6.39130435 C13.5729716,6.39130435 13.91475,6.54675305 14.0866119,6.85765044 C14.2584738,7.16884563 14.3448276,7.61732406 14.3448276,8.20204344 C14.3448276,8.54718719 14.3239369,8.89791459 14.2828321,9.25251332 L13.8996106,13.1176618 C13.8581675,13.5778287 13.7691918,13.9304917 13.632176,14.1764699 C13.4954984,14.4218525 13.2695068,14.5444694 12.9552161,14.5444694 C12.6343284,14.5444694 12.4118044,14.4260961 12.2874752,14.187935 C12.1624694,13.9505184 12.0732399,13.5884004 12.0200406,13.1023254 Z M13.0086692,18.2608696 C12.6463384,18.2608696 12.3298487,18.158056 12.060215,17.9516845 C11.7899893,17.7455363 11.6551724,17.4566757 11.6551724,17.0856238 C11.6551724,16.7614001 11.7843225,16.485568 12.0421999,16.2579786 C12.3004156,16.030687 12.6169053,15.917004 12.9909925,15.917004 C13.3653333,15.917004 13.6837683,16.0303892 13.9483274,16.2579786 C14.2125481,16.4852702 14.3448276,16.7613257 14.3448276,17.0856238 C14.3448276,17.4513898 14.2112794,17.7386126 13.9435064,17.9478132 C13.6764101,18.1563437 13.364995,18.2608696 13.0086692,18.2608696 Z" id="Shape" fill="#000000"></path>
                    </g>
                </g>
            </g>
        </g>
    </g>
</svg>