<?xml version="1.0" encoding="UTF-8"?>
<svg width="18px" height="18px" viewBox="0 0 18 18" version="1.1" xmlns="http://www.w3.org/2000/svg" xmlns:xlink="http://www.w3.org/1999/xlink">
    <!-- Generator: Sketch 56.3 (81716) - https://sketch.com -->
    <title>Search</title>
    <desc>Created with Sketch.</desc>
    <defs>
        <path d="M11.71,11 L11.43,10.73 C12.41,9.59 13,8.11 13,6.5 C13,2.91 10.09,0 6.5,0 C2.91,0 0,2.91 0,6.5 C0,10.09 2.91,13 6.5,13 C8.11,13 9.59,12.41 10.73,11.43 L11,11.71 L11,12.5 L15.2928939,16.7843081 C15.6835323,17.1741652 16.3161514,17.1738486 16.7063993,16.7836007 L16.7836007,16.7063993 C17.1738486,16.3161514 17.1741652,15.6835323 16.7843081,15.2928939 L12.5,11 L11.71,11 Z M2,6.5 C2,4.01 4.01,2 6.5,2 C8.99,2 11,4.01 11,6.5 C11,8.99 8.99,11 6.5,11 C4.01,11 2,8.99 2,6.5 Z" id="path-1"></path>
    </defs>
    <g id="DESIGN--v3" stroke="none" stroke-width="1" fill="none" fill-rule="evenodd">
        <g id="HoverTest_1.1" transform="translate(-1364.000000, -21.000000)">
            <g id="Navigation" transform="translate(-9.000000, -2.000000)">
                <g id="Group-5">
                    <g id="Search" transform="translate(1373.000000, 23.000000)">
                        <mask id="mask-2" fill="white">
                            <use xlink:href="#path-1"></use>
                        </mask>
                        <use id="Mask" fill="#C2D1D9" xlink:href="#path-1"></use>
                        <g id="Atoms-/-Colors-/-White" mask="url(#mask-2)" fill="#FFFFFF">
                            <g transform="translate(-3.000000, -3.000000)" id="Atoms-/-Colors-/-Black">
                                <rect x="0" y="0" width="24" height="24"></rect>
                            </g>
                        </g>
                    </g>
                </g>
            </g>
        </g>
    </g>
</svg>